<svg width="500" height="500" viewBox="0 0 500 500" fill="none" xmlns="http://www.w3.org/2000/svg">
<g clip-path="url(#clip0_4_188)">
<rect y="414" width="500" height="112" rx="31" fill="#002C2C"/>
<path d="M21.4395 469.203C21.4395 467.475 22.0547 465.995 23.2852 464.765C24.5156 463.505 26.0098 462.875 27.7676 462.875C29.5254 462.875 31.0195 463.505 32.25 464.765C33.4805 465.995 34.0957 467.475 34.0957 469.203C34.0957 471.723 34.9893 473.876 36.7764 475.663C38.5635 477.45 40.7168 478.344 43.2363 478.344C45.7266 478.344 47.8652 477.45 49.6523 475.663C51.4688 473.847 52.377 471.693 52.377 469.203V434.794C52.377 433.065 52.9922 431.586 54.2227 430.355C55.4531 429.125 56.9326 428.51 58.6611 428.51C60.4189 428.51 61.9131 429.125 63.1436 430.355C64.374 431.586 64.9893 433.065 64.9893 434.794V469.203C64.9893 475.238 62.8652 480.38 58.6172 484.628C54.3691 488.876 49.2422 491 43.2363 491C37.2305 491 32.1035 488.876 27.8555 484.628C23.5781 480.351 21.4395 475.209 21.4395 469.203ZM90.5391 468.676C90.5391 471.342 91.4766 473.627 93.3516 475.531C95.2559 477.406 97.541 478.344 100.207 478.344C102.873 478.344 105.158 477.406 107.062 475.531C108.938 473.627 109.875 471.356 109.875 468.72V434.838C109.875 433.08 110.49 431.586 111.721 430.355C112.98 429.125 114.475 428.51 116.203 428.51C117.961 428.51 119.455 429.125 120.686 430.355C121.916 431.586 122.531 433.08 122.531 434.838V468.72C122.561 471.356 123.513 473.627 125.388 475.531C127.263 477.406 129.533 478.344 132.199 478.344C134.895 478.344 137.18 477.406 139.055 475.531C140.959 473.627 141.911 471.342 141.911 468.676V434.838C141.911 433.109 142.526 431.63 143.757 430.399C144.987 429.169 146.481 428.554 148.239 428.554C149.968 428.554 151.447 429.169 152.678 430.399C153.908 431.63 154.523 433.109 154.523 434.838V468.676C154.523 474.857 152.355 480.116 148.02 484.452C143.654 488.817 138.381 491 132.199 491C125.988 491 120.656 488.744 116.203 484.232C111.779 488.744 106.447 491 100.207 491C94.0547 491 88.7959 488.817 84.4307 484.452C80.0654 480.087 77.8828 474.828 77.8828 468.676V434.838C77.8828 433.08 78.498 431.586 79.7285 430.355C80.959 429.125 82.4531 428.51 84.2109 428.51C85.9688 428.51 87.4629 429.125 88.6934 430.355C89.9238 431.586 90.5391 433.08 90.5391 434.838V468.676ZM214.79 428.51C216.548 428.51 218.042 429.125 219.272 430.355C220.503 431.586 221.118 433.08 221.118 434.838C221.118 436.566 220.503 438.046 219.272 439.276C218.042 440.507 216.548 441.122 214.79 441.122H198.574V484.672C198.574 486.43 197.959 487.924 196.729 489.154C195.498 490.385 194.004 491 192.246 491C190.518 491 189.038 490.385 187.808 489.154C186.548 487.924 185.918 486.43 185.918 484.672V441.122H169.702C167.974 441.122 166.494 440.507 165.264 439.276C164.033 438.046 163.418 436.566 163.418 434.838C163.418 433.08 164.033 431.586 165.264 430.355C166.494 429.125 167.974 428.51 169.702 428.51H214.79ZM253.392 428.51C262.034 428.51 269.402 431.557 275.496 437.65C281.59 443.744 284.637 451.112 284.637 459.755C284.637 468.368 281.59 475.736 275.496 481.859C269.402 487.953 262.034 491 253.392 491C244.778 491 237.41 487.953 231.287 481.859C225.193 475.736 222.146 468.368 222.146 459.755C222.146 451.112 225.193 443.744 231.287 437.65C237.41 431.557 244.778 428.51 253.392 428.51ZM266.575 446.615C262.942 442.982 258.548 441.166 253.392 441.166C248.265 441.166 243.885 442.982 240.252 446.615C236.619 450.248 234.803 454.628 234.803 459.755C234.803 464.882 236.619 469.262 240.252 472.895C243.885 476.527 248.265 478.344 253.392 478.344C258.548 478.344 262.942 476.527 266.575 472.895C270.179 469.262 271.98 464.882 271.98 459.755C271.98 454.628 270.179 450.248 266.575 446.615ZM295.729 434.838C295.729 433.08 296.344 431.586 297.574 430.355C298.805 429.125 300.299 428.51 302.057 428.51C303.814 428.51 305.309 429.125 306.539 430.355C307.77 431.586 308.385 433.08 308.385 434.838V462.611C308.385 466.947 309.923 470.653 312.999 473.729C316.075 476.806 319.781 478.344 324.117 478.344C328.424 478.344 332.115 476.806 335.191 473.729C338.268 470.653 339.806 466.947 339.806 462.611V434.838C339.806 433.08 340.421 431.586 341.651 430.355C342.882 429.125 344.376 428.51 346.134 428.51C347.892 428.51 349.386 429.125 350.616 430.355C351.847 431.586 352.462 433.08 352.462 434.838V462.611C352.462 470.434 349.679 477.113 344.112 482.65C338.575 488.217 331.91 491 324.117 491C316.295 491 309.615 488.217 304.078 482.65C298.512 477.113 295.729 470.434 295.729 462.611V434.838ZM365.795 453.559C365.795 446.615 368.241 440.697 373.134 435.805C378.056 430.912 383.974 428.466 390.888 428.466C397.802 428.466 403.72 430.912 408.642 435.805C413.534 440.697 415.98 446.615 415.98 453.559C415.98 460.473 413.534 466.376 408.642 471.269C406.796 473.114 404.32 474.564 401.215 475.619L409.608 480.189C411.073 481.273 411.981 482.562 412.333 484.057C412.714 485.609 412.392 487.06 411.366 488.407C410.341 489.813 408.964 490.648 407.235 490.912C405.507 491.176 403.954 490.78 402.577 489.726L383.461 477.685C381.469 476.425 380.473 474.638 380.473 472.323C380.473 470.565 381.088 469.071 382.318 467.841C383.549 466.61 385.043 465.995 386.801 465.995H390.888C394.315 465.995 397.245 464.779 399.677 462.348C402.108 459.916 403.324 456.986 403.324 453.559C403.324 450.131 402.108 447.201 399.677 444.77C397.245 442.338 394.315 441.122 390.888 441.122C387.46 441.122 384.53 442.338 382.099 444.77C379.667 447.201 378.451 450.131 378.451 453.559V484.672C378.451 486.43 377.836 487.924 376.605 489.154C375.375 490.385 373.881 491 372.123 491C370.365 491 368.871 490.385 367.641 489.154C366.41 487.924 365.795 486.43 365.795 484.672V453.559ZM472.028 436.288C473.2 437.577 473.742 439.071 473.654 440.771C473.566 442.499 472.893 443.949 471.633 445.121C470.344 446.264 468.85 446.806 467.15 446.747C465.422 446.659 463.972 445.971 462.8 444.682C460.544 442.191 456.779 440.932 451.506 440.902C448.664 440.902 446.013 441.371 443.552 442.309C440.3 443.568 438.674 445.414 438.674 447.846C438.674 450.336 440.637 452.021 444.562 452.899C445.939 453.222 447.961 453.529 450.627 453.822C454.377 454.203 456.691 454.452 457.57 454.569C463.371 455.39 467.707 456.811 470.578 458.832C474.533 461.645 476.511 465.937 476.511 471.708C476.511 477.978 473.698 482.899 468.073 486.474C463.269 489.521 457.556 491.059 450.935 491.088C446.13 491.117 441.721 490.297 437.707 488.627C433.049 486.723 429.65 483.939 427.512 480.277C426.34 478.285 425.9 476.381 426.193 474.564C426.516 472.514 427.746 471.034 429.885 470.126C431.232 469.569 432.595 469.496 433.972 469.906C435.378 470.287 436.477 471.049 437.268 472.191C439.143 474.828 441.076 476.586 443.068 477.465C444.826 478.256 447.448 478.651 450.935 478.651C453.806 478.622 456.486 478.139 458.977 477.201C462.346 475.941 464.03 474.11 464.03 471.708C464.03 469.306 462.053 467.606 458.098 466.61C456.721 466.229 454.699 465.863 452.033 465.512C448.107 464.955 445.793 464.618 445.09 464.501C439.289 463.534 434.953 462.055 432.082 460.062C428.127 457.309 426.149 453.236 426.149 447.846C426.149 441.576 428.933 436.64 434.499 433.036C439.304 429.931 445.002 428.407 451.594 428.466C460.559 428.524 467.37 431.132 472.028 436.288Z" fill="white"/>
<path fill-rule="evenodd" clip-rule="evenodd" d="M379.226 126.759C382.915 124.71 387.833 125.939 390.292 129.628C392.752 133.317 391.112 138.235 387.423 140.694L367.341 152.58C363.652 154.629 358.734 153.399 356.275 149.711C353.816 146.022 355.455 141.104 359.144 138.645L379.226 126.759ZM321.847 360.375C322.667 366.113 327.995 369.802 333.733 368.572C339.471 367.753 343.159 362.425 341.93 356.687L339.471 343.571L361.193 322.669L365.701 354.228C366.931 361.605 373.488 366.933 381.276 365.703C388.653 364.474 393.981 357.916 392.752 350.129L385.784 301.356C385.784 300.537 385.374 300.127 385.374 299.307L405.457 280.044C410.785 275.126 410.785 266.519 405.867 261.191C400.949 255.863 392.342 255.863 387.014 260.781L365.701 281.274L320.208 268.568C312.83 266.519 305.453 270.617 303.404 277.995C301.354 285.372 305.453 292.749 312.83 294.799L342.749 302.996L321.027 323.898L307.912 320.62C302.584 319.39 296.846 322.669 295.616 328.407C294.387 333.735 297.666 339.473 303.404 340.702L319.798 344.391L321.847 360.375ZM193.563 164.875C190.284 166.925 186.186 169.794 181.677 173.072C177.579 176.351 173.48 178.4 169.382 179.63C164.053 181.269 153.397 181.269 148.479 179.63C144.381 178.4 140.282 176.351 136.183 173.072C131.675 169.384 127.986 166.515 124.298 164.875C121.429 163.236 118.56 162.416 115.691 162.006C115.281 162.006 114.871 162.006 114.051 161.596V162.006C114.051 162.006 114.051 162.006 113.642 162.006C110.773 162.416 107.904 163.236 105.035 164.875C101.756 166.925 97.6572 169.794 93.1488 173.072C89.0503 176.351 84.9518 178.4 80.8532 179.63C80.0335 180.04 79.2138 180.04 77.9843 180.04C77.9843 182.499 79.2138 184.958 80.8532 187.007C82.4927 188.647 85.3616 189.876 87.8207 189.876H227.991C230.86 189.876 233.319 188.647 234.958 187.007C236.597 185.368 237.827 182.909 237.827 180.04C237.007 180.04 236.597 179.63 236.188 179.63C232.089 178.4 227.991 176.351 223.892 173.072C219.384 169.384 215.695 166.515 212.006 164.875C205.858 161.596 199.711 161.596 193.563 164.875ZM77.9843 164.056V145.612C79.2138 145.612 80.0335 145.202 80.8532 145.202C84.9518 143.973 89.0503 141.923 93.1488 138.645C97.6572 134.956 101.346 132.087 105.035 130.448C107.904 128.808 110.773 127.988 113.642 127.579C113.642 127.579 113.641 127.579 114.051 127.579V127.169C114.461 127.169 114.871 127.579 115.691 127.579C118.56 127.988 121.429 128.808 124.298 130.448C127.577 132.497 131.675 134.956 136.183 138.645C140.282 141.923 144.381 143.973 148.479 145.202C153.807 146.842 164.463 146.842 169.382 145.202C173.48 143.973 177.579 141.923 181.677 138.645C186.186 134.956 189.874 132.087 193.563 130.448C199.711 127.169 206.268 127.169 212.416 130.448C215.695 132.497 219.794 135.366 224.302 138.645C228.4 141.923 232.499 143.973 236.597 145.202C237.007 145.202 237.827 145.612 238.237 145.612V163.646C236.597 162.826 234.958 162.006 233.729 160.777C228.81 156.678 224.302 153.399 219.794 150.94C200.53 140.284 187.825 148.071 172.251 160.777C164.873 166.925 152.987 166.515 145.61 160.777C140.692 156.678 136.183 153.399 131.675 150.94C126.757 148.071 121.839 146.432 116.92 146.022C116.101 146.022 115.281 146.022 114.461 146.432V146.022C114.051 146.022 113.642 146.022 113.232 146.022C107.904 146.432 103.395 148.071 98.4769 150.94C93.9685 153.399 89.4602 156.678 84.5419 160.777C82.0828 162.416 80.0335 163.236 77.9843 164.056ZM77.9843 129.628C80.0335 128.808 81.6729 127.988 83.7222 126.349C88.6404 122.251 93.1488 118.972 97.6572 116.513C102.575 113.644 107.494 112.004 112.412 111.594C112.822 111.594 113.232 111.594 113.642 111.594V112.004C114.461 111.594 115.281 111.594 116.101 111.594C121.429 112.004 125.937 113.644 130.855 116.513C135.364 118.972 139.872 122.251 144.79 126.349C152.168 132.087 163.644 132.497 171.431 126.349C187.005 114.053 200.121 106.266 218.974 116.513C223.482 118.972 227.991 122.251 232.909 126.349C234.138 127.579 235.778 128.398 237.417 129.218V39.87C237.417 37.0011 236.188 34.5419 234.548 32.9025C232.909 31.2631 230.04 30.0336 227.581 30.0336H88.2306C85.3616 30.0336 82.9025 31.2631 81.2631 32.9025C79.6237 34.5419 78.3941 37.4109 78.3941 39.87V129.628H77.9843ZM286.6 211.599H426.769C434.147 211.599 440.704 214.468 445.213 219.386C450.131 224.304 453 230.862 453 237.829V377.999C453 385.376 450.131 391.934 445.213 396.442C440.295 401.361 433.737 404.23 426.769 404.23H286.6C279.222 404.23 272.665 401.361 268.156 396.442C263.238 391.524 260.369 384.966 260.369 377.999V237.829C260.369 230.452 263.238 223.894 268.156 219.386C273.074 214.468 279.632 211.599 286.6 211.599ZM426.769 227.583C429.638 227.583 432.097 228.812 433.737 230.452C435.376 232.091 436.606 234.96 436.606 237.419V377.589C436.606 380.458 435.376 382.917 433.737 384.557C432.097 386.196 429.229 387.426 426.769 387.426H292.338L315.289 364.474C316.929 362.834 316.929 360.375 315.289 358.736C313.65 357.096 311.191 357.096 309.551 358.736L282.091 386.196C281.271 385.786 280.452 384.966 279.632 384.557C277.993 382.917 277.173 380.868 276.763 378.819L302.584 352.998C304.223 351.359 304.223 348.899 302.584 347.26C300.944 345.621 298.485 345.621 296.846 347.26L276.763 367.343V237.009C276.763 234.14 277.993 231.681 279.632 230.042C281.271 228.403 284.14 227.173 286.6 227.173H426.769V227.583ZM88.2306 211.599H228.4C235.778 211.599 242.335 214.468 246.844 219.386C251.762 224.304 254.631 230.862 254.631 237.829V377.999C254.631 385.376 251.762 391.934 246.844 396.442C241.926 401.361 235.778 404.23 228.4 404.23H178.808C146.84 404.23 117.74 391.114 96.4277 369.802C75.1153 348.49 62 319.39 62 287.421V237.829C62 230.452 64.8689 223.894 69.7872 219.386C74.2956 214.468 80.8532 211.599 88.2306 211.599ZM228.4 227.583H88.2306C85.3616 227.583 82.9025 228.812 81.2631 230.452C79.6237 232.091 78.3941 234.96 78.3941 237.419V287.012C78.3941 290.7 78.804 294.799 79.2138 298.487L115.281 262.42C118.56 259.142 123.478 259.142 126.757 262.42L171.431 307.094L202.58 275.945C205.858 272.667 210.777 272.667 214.056 275.945L238.647 300.537V237.009C238.647 234.14 237.417 231.681 235.778 230.042C233.319 228.812 230.86 227.583 228.4 227.583ZM82.9025 317.751C87.8207 333.325 96.4277 347.26 107.904 358.736C126.347 377.179 151.348 388.245 178.808 388.245H228.4H228.81L165.693 325.128L121.019 280.454L82.9025 317.751ZM276.763 105.037C298.075 109.135 316.929 119.382 331.683 133.726C346.438 148.481 356.684 167.334 360.783 188.647H427.179C430.048 188.647 432.507 187.417 434.147 185.778C435.786 184.138 437.016 181.269 437.016 178.81V128.808C437.016 101.348 425.54 75.9371 407.506 57.9036C389.473 39.87 364.062 28.3941 336.602 28.3941H287.009C284.14 28.3941 281.681 29.6237 280.042 31.2631C278.403 32.9025 277.173 35.7715 277.173 38.2306V105.037H276.763ZM344.389 188.647H287.009C284.14 188.647 281.681 187.417 280.042 185.778C278.403 184.138 277.173 181.269 277.173 178.81V121.431C293.977 125.12 309.141 133.726 320.617 145.202C332.093 157.088 340.29 171.843 344.389 188.647ZM286.6 12.4099C279.222 12.4099 272.665 15.2788 268.156 20.1971C263.238 25.1153 260.369 31.673 260.369 38.6405V112.004V178.81C260.369 186.188 263.238 192.745 268.156 197.254C273.074 202.172 279.632 205.041 286.6 205.041H353.406H426.36C433.737 205.041 440.295 202.172 444.803 197.254C449.721 192.335 452.59 186.188 452.59 178.81V128.808C452.59 96.8396 439.475 67.7401 418.162 46.4277C396.85 25.1153 367.751 12 335.782 12H286.6V12.4099ZM88.2306 14.0493H228.4C235.778 14.0493 242.335 16.9182 246.844 21.8365C251.762 26.7547 254.631 33.3124 254.631 40.2799V180.45C254.631 187.827 251.762 194.385 246.844 198.893C241.926 203.811 235.778 206.68 228.4 206.68H88.2306C80.8532 206.68 74.2956 203.811 69.7872 198.893C64.8689 193.975 62 187.417 62 180.45V39.87C62 32.4927 64.8689 25.935 69.7872 21.4266C74.2956 16.9183 80.8532 14.0493 88.2306 14.0493ZM238.237 374.72V323.898L207.908 293.569L182.497 318.98L238.237 374.72ZM415.294 157.498C419.392 156.268 423.9 158.727 425.13 163.236C426.36 167.334 423.9 171.843 419.392 173.072L377.997 184.138C373.898 185.368 369.39 182.909 368.16 178.4C366.931 174.302 369.39 169.794 373.898 168.564L415.294 157.498ZM368.98 85.3637L338.651 115.693C335.372 118.972 335.372 123.89 338.651 127.169C341.93 130.448 346.848 130.448 350.127 127.169L380.456 96.8396C383.735 93.5608 383.735 88.6426 380.456 85.3637C377.177 82.4948 371.849 82.4948 368.98 85.3637ZM292.747 46.4277C293.977 42.3291 298.485 39.4602 302.584 40.6897C306.682 41.9193 309.551 46.4277 308.322 50.5262L297.256 91.9214C296.026 96.0199 291.518 98.8889 287.419 97.6593C283.321 96.4298 280.452 91.9214 281.681 87.8229L292.747 46.4277ZM324.716 105.037C322.667 108.725 317.748 110.365 313.65 107.906C309.961 105.856 308.322 100.938 310.781 96.8396L322.257 76.347C324.306 72.6583 329.224 71.0189 333.323 73.478C337.012 75.5273 338.651 80.4455 336.192 84.544L324.716 105.037Z" fill="#002C2C"/>
<path fill-rule="evenodd" clip-rule="evenodd" d="M238.237 129.218V39.8699C238.237 37.001 237.007 34.5418 235.368 32.9024C233.728 31.263 230.859 30.0334 228.4 30.0334H88.2305C85.3615 30.0334 82.9024 31.263 81.263 32.9024C79.6236 34.5418 78.394 37.4108 78.394 39.8699V129.628C80.4433 128.808 82.0827 127.988 84.132 126.349C89.0502 122.25 93.5586 118.972 98.067 116.512C102.985 113.644 107.903 112.004 112.822 111.594C113.232 111.594 113.641 111.594 114.051 111.594V112.004C114.871 111.594 115.691 111.594 116.51 111.594C121.838 112.004 126.347 113.644 131.265 116.512C135.773 118.972 140.282 122.25 145.2 126.349C152.577 132.087 164.053 132.497 171.841 126.349C187.415 114.053 200.53 106.266 219.384 116.512C223.892 118.972 228.4 122.25 233.319 126.349C234.958 127.579 236.597 128.398 238.237 129.218Z" fill="#D0E5E3"/>
<path fill-rule="evenodd" clip-rule="evenodd" d="M322.257 76.7566C324.306 73.0679 329.224 71.4285 333.323 73.8876C337.011 75.9369 338.651 80.8552 336.192 84.9537L324.716 105.446C322.666 109.135 317.748 110.774 313.65 108.315C309.961 106.266 308.322 101.348 310.781 97.2493L322.257 76.7566ZM307.912 50.526C309.141 46.4275 306.682 41.9191 302.174 40.6895C298.075 39.46 293.567 41.9191 292.337 46.4275L281.271 87.8226C280.042 91.9212 282.501 96.4296 287.009 97.6591C291.108 98.8887 295.616 96.4296 296.846 91.9212L307.912 50.526ZM276.763 38.6403V105.036C298.075 109.135 316.929 119.381 331.683 133.726C346.438 148.481 356.684 167.334 360.783 188.647H427.179C430.048 188.647 432.507 187.417 434.147 185.778C435.786 184.138 437.016 181.269 437.016 178.81V128.808C437.016 101.348 425.54 75.9369 407.506 57.9034C389.473 39.8698 364.062 28.3939 336.602 28.3939H287.009C284.14 28.3939 281.681 29.6235 280.042 31.2629C277.993 33.3122 276.763 35.7713 276.763 38.6403ZM368.98 85.3635L338.651 115.693C335.372 118.972 335.372 123.89 338.651 127.169C341.93 130.447 346.848 130.447 350.127 127.169L380.456 96.8394C383.735 93.5606 383.735 88.6424 380.456 85.3635C377.177 82.4946 371.849 82.4946 368.98 85.3635ZM379.226 126.759C382.915 124.709 387.833 125.939 390.292 129.628C392.751 133.316 391.112 138.235 387.423 140.694L367.341 152.579C363.652 154.629 358.734 153.399 356.275 149.71C353.815 146.022 355.455 141.104 359.143 138.644L379.226 126.759ZM415.293 157.498C419.392 156.268 423.9 158.727 425.13 163.236C426.359 167.334 423.9 171.843 419.392 173.072L377.997 184.138C373.898 185.368 369.39 182.909 368.16 178.4C366.931 174.302 369.39 169.793 373.898 168.564L415.293 157.498Z" fill="#D0E5E3"/>
<path fill-rule="evenodd" clip-rule="evenodd" d="M426.769 227.583H286.599C283.73 227.583 281.271 228.812 279.632 230.452C277.992 232.091 276.763 234.96 276.763 237.419V367.753L296.846 347.67C298.485 346.03 300.944 346.03 302.584 347.67C304.223 349.309 304.223 351.768 302.584 353.408L276.763 379.229C277.173 381.278 277.992 383.327 279.632 384.967C280.452 385.786 281.271 386.196 282.091 386.606L309.551 359.146C311.191 357.506 313.65 357.506 315.289 359.146C316.929 360.785 316.929 363.244 315.289 364.884L292.337 387.835H426.769C429.638 387.835 432.097 386.606 433.737 384.967C435.376 383.327 436.606 380.458 436.606 377.999V237.829C436.606 234.96 435.376 232.501 433.737 230.862C432.097 228.812 429.638 227.583 426.769 227.583ZM320.207 268.978L365.701 281.683L387.014 261.191C392.342 256.273 400.948 256.273 405.867 261.601C410.785 266.929 410.785 275.536 405.457 280.454L385.374 299.717C385.374 300.127 385.784 300.947 385.784 301.766L392.751 350.539C393.981 357.916 388.653 364.884 381.276 366.113C373.898 367.343 366.931 362.015 365.701 354.637L361.193 323.079L339.471 343.571L341.93 357.096C342.749 362.834 339.061 367.753 333.733 368.982C327.995 369.802 323.076 366.113 321.847 360.785L318.978 345.211L302.584 341.522C297.256 340.292 293.567 334.555 294.797 329.226C296.026 323.898 301.764 320.21 307.092 321.439L320.207 324.718L341.93 303.816L312.01 295.618C304.633 293.569 300.534 286.192 302.584 278.814C305.453 271.027 312.83 266.929 320.207 268.978Z" fill="#D0E5E3"/>
<path fill-rule="evenodd" clip-rule="evenodd" d="M238.237 301.356V237.829C238.237 234.96 237.007 232.501 235.368 230.862C233.728 229.222 230.859 227.993 228.4 227.993H88.2305C85.3615 227.993 82.9024 229.222 81.263 230.862C79.6236 232.501 78.394 235.37 78.394 237.829V287.421C78.394 291.11 78.8039 295.209 79.2137 298.897L115.281 262.83C118.56 259.551 123.478 259.551 126.757 262.83L171.431 307.504L202.58 276.355C205.858 273.076 210.777 273.076 214.055 276.355L238.237 301.356Z" fill="#D0E5E3"/>
<path fill-rule="evenodd" clip-rule="evenodd" d="M171.841 161.187C187.415 148.891 200.53 141.104 219.384 151.35C223.892 153.809 228.4 157.088 233.319 161.187C234.548 162.416 236.188 163.236 237.827 164.056V146.022C237.007 146.022 236.598 145.612 236.188 145.612C232.089 144.383 227.991 142.333 223.892 139.054C219.384 135.366 215.695 132.497 212.006 130.857C205.859 127.579 199.301 127.579 193.153 130.857C189.874 132.907 185.776 135.776 181.267 139.054C177.169 142.333 173.07 144.383 168.972 145.612C163.644 147.252 152.987 147.252 148.069 145.612C143.971 144.383 139.872 142.333 135.774 139.054C131.265 135.366 127.577 132.497 123.888 130.857C121.019 129.218 118.15 128.398 115.281 127.988C114.871 127.988 114.461 127.988 113.642 127.579V127.988C113.642 127.988 113.642 127.988 113.232 127.988C110.363 128.398 107.494 129.218 104.625 130.857C101.346 132.907 97.2474 135.776 92.7391 139.054C88.6405 142.333 84.542 144.383 80.4435 145.612C79.6237 146.022 78.804 146.022 77.5745 146.022V164.465C79.6237 163.646 81.2631 162.826 83.3124 161.187C88.2307 157.088 92.739 153.809 97.2474 151.35C102.166 148.481 107.084 146.842 112.002 146.432C112.412 146.432 112.822 146.432 113.232 146.432V146.842C114.051 146.432 114.871 146.432 115.691 146.432C121.019 146.842 125.527 148.481 130.446 151.35C134.954 153.809 139.462 157.088 144.381 161.187C152.987 166.925 164.463 166.925 171.841 161.187Z" fill="#6BB3B1"/>
<path fill-rule="evenodd" clip-rule="evenodd" d="M212.416 164.875C206.268 161.596 199.711 161.596 193.563 164.875C190.284 166.925 186.186 169.794 181.677 173.072C177.579 176.351 173.48 178.4 169.382 179.63C164.054 181.269 153.397 181.269 148.479 179.63C144.381 178.4 140.282 176.351 136.184 173.072C131.675 169.384 127.986 166.515 124.298 164.875C121.429 163.236 118.56 162.416 115.691 162.006C115.281 162.006 114.871 162.006 114.051 161.596V162.006C114.051 162.006 114.051 162.006 113.642 162.006C110.773 162.416 107.904 163.236 105.035 164.875C101.756 166.925 97.6574 169.794 93.149 173.072C89.0504 176.351 84.9519 178.4 80.8534 179.63C80.0337 180.04 79.2139 180.04 77.9844 180.04C77.9844 182.499 79.214 184.958 80.8534 187.007C82.4928 188.647 85.3617 189.876 87.8209 189.876H227.991C230.86 189.876 233.319 188.647 234.958 187.007C236.598 185.368 237.827 182.909 237.827 180.04C237.007 180.04 236.598 179.63 236.188 179.63C232.089 178.4 227.991 176.351 223.892 173.072C219.384 169.794 215.695 166.925 212.416 164.875Z" fill="#6BB3B1"/>
<path fill-rule="evenodd" clip-rule="evenodd" d="M276.763 121.431V178.81C276.763 181.679 277.992 184.138 279.632 185.778C281.271 187.417 284.14 188.647 286.599 188.647H343.979C340.29 171.843 331.683 157.088 320.207 145.202C308.732 133.317 293.567 125.12 276.763 121.431Z" fill="#F4DD58"/>
<path fill-rule="evenodd" clip-rule="evenodd" d="M238.237 323.898L207.908 293.569L182.497 318.98L238.237 374.72V323.898Z" fill="#6D774C"/>
<path fill-rule="evenodd" clip-rule="evenodd" d="M228.81 387.835L165.693 324.718L121.019 280.044L83.3123 317.75C88.2305 333.325 96.8374 347.26 108.313 358.736C126.757 377.179 151.758 388.245 179.218 388.245H228.81C228.4 387.835 228.4 387.835 228.81 387.835Z" fill="#919F60"/>
</g>
<defs>
<clipPath id="clip0_4_188">
<rect width="500" height="500" fill="white"/>
</clipPath>
</defs>
</svg>
