<svg width="791" height="136" viewBox="0 0 791 136" fill="none" xmlns="http://www.w3.org/2000/svg">
<g clip-path="url(#clip0_12_33)">
<mask id="mask0_12_33" style="mask-type:luminance" maskUnits="userSpaceOnUse" x="0" y="-655" width="791" height="791">
<path d="M791 -654.698H0V136H791V-654.698Z" fill="white"/>
</mask>
<g mask="url(#mask0_12_33)">
<path d="M741.958 0H49.042C21.9569 0 0 21.9485 0 49.0233V128.093C0 155.168 21.9569 177.116 49.042 177.116H741.958C769.043 177.116 791 155.168 791 128.093V49.0233C791 21.9485 769.043 0 741.958 0Z" fill="#002C2C"/>
<path d="M33.9172 87.2979C33.9172 84.5645 34.8905 82.2248 36.8371 80.2789C38.7836 78.2868 41.1474 77.2907 43.9283 77.2907C46.7091 77.2907 49.0728 78.2868 51.0194 80.2789C52.9661 82.2248 53.9393 84.5645 53.9393 87.2979C53.9393 91.2824 55.353 94.6877 58.1802 97.5138C61.0074 100.34 64.4139 101.753 68.3998 101.753C72.3394 101.753 75.7227 100.34 78.5499 97.5138C81.4236 94.6413 82.8604 91.2361 82.8604 87.2979V32.8834C82.8604 30.15 83.8336 27.8103 85.7803 25.8645C87.7267 23.9186 90.0673 22.9458 92.8018 22.9458C95.5826 22.9458 97.9465 23.9186 99.8931 25.8645C101.84 27.8103 102.813 30.15 102.813 32.8834V87.2979C102.813 96.842 99.4527 104.973 92.7324 111.691C86.0119 118.409 77.9011 121.767 68.3998 121.767C58.8986 121.767 50.7877 118.409 44.0673 111.691C37.3005 104.927 33.9172 96.7956 33.9172 87.2979ZM143.233 86.4641C143.233 90.6801 144.716 94.2939 147.682 97.3052C150.695 100.27 154.31 101.753 158.527 101.753C162.745 101.753 166.36 100.27 169.372 97.3052C172.34 94.2939 173.822 90.7032 173.822 86.5335V32.953C173.822 30.1732 174.795 27.8103 176.743 25.8645C178.734 23.9186 181.099 22.9458 183.833 22.9458C186.614 22.9458 188.978 23.9186 190.925 25.8645C192.871 27.8103 193.844 30.1732 193.844 32.953V86.5335C193.891 90.7032 195.398 94.2939 198.364 97.3052C201.33 100.27 204.921 101.753 209.139 101.753C213.404 101.753 217.019 100.27 219.985 97.3052C222.997 94.2939 224.503 90.6801 224.503 86.4641V32.953C224.503 30.2195 225.476 27.8799 227.424 25.934C229.369 23.9881 231.733 23.0152 234.514 23.0152C237.249 23.0152 239.589 23.9881 241.537 25.934C243.482 27.8799 244.455 30.2195 244.455 32.953V86.4641C244.455 96.2396 241.026 104.556 234.168 111.413C227.261 118.316 218.919 121.767 209.139 121.767C199.313 121.767 190.878 118.2 183.833 111.065C176.834 118.2 168.399 121.767 158.527 121.767C148.794 121.767 140.475 118.316 133.569 111.413C126.663 104.51 123.211 96.1933 123.211 86.4641V32.953C123.211 30.1732 124.184 27.8103 126.13 25.8645C128.077 23.9186 130.441 22.9458 133.222 22.9458C136.003 22.9458 138.366 23.9186 140.313 25.8645C142.259 27.8103 143.233 30.1732 143.233 32.953V86.4641ZM339.798 22.9458C342.579 22.9458 344.942 23.9186 346.888 25.8645C348.836 27.8103 349.809 30.1732 349.809 32.953C349.809 35.6864 348.836 38.0261 346.888 39.972C344.942 41.9178 342.579 42.8908 339.798 42.8908H314.144V111.76C314.144 114.54 313.171 116.903 311.225 118.849C309.278 120.795 306.914 121.767 304.133 121.767C301.399 121.767 299.058 120.795 297.112 118.849C295.119 116.903 294.122 114.54 294.122 111.76V42.8908H268.469C265.735 42.8908 263.393 41.9178 261.448 39.972C259.5 38.0261 258.527 35.6864 258.527 32.953C258.527 30.1732 259.5 27.8103 261.448 25.8645C263.393 23.9186 265.735 22.9458 268.469 22.9458H339.798ZM400.866 22.9458C414.538 22.9458 426.194 27.7639 435.835 37.4007C445.475 47.0372 450.296 58.6892 450.296 72.3566C450.296 85.9776 445.475 97.6295 435.835 107.313C426.194 116.949 414.538 121.767 400.866 121.767C387.239 121.767 375.583 116.949 365.896 107.313C356.255 97.6295 351.435 85.9776 351.435 72.3566C351.435 58.6892 356.255 47.0372 365.896 37.4007C375.583 27.7639 387.239 22.9458 400.866 22.9458ZM421.722 51.5775C415.974 45.8327 409.023 42.9602 400.866 42.9602C392.755 42.9602 385.826 45.8327 380.079 51.5775C374.331 57.3224 371.458 64.2488 371.458 72.3566C371.458 80.4643 374.331 87.3906 380.079 93.1355C385.826 98.8804 392.755 101.753 400.866 101.753C409.023 101.753 415.974 98.8804 421.722 93.1355C427.423 87.3906 430.272 80.4643 430.272 72.3566C430.272 64.2488 427.423 57.3224 421.722 51.5775ZM467.843 32.953C467.843 30.1732 468.816 27.8103 470.762 25.8645C472.709 23.9186 475.073 22.9458 477.854 22.9458C480.634 22.9458 482.999 23.9186 484.945 25.8645C486.892 27.8103 487.865 30.1732 487.865 32.953V76.8737C487.865 83.7306 490.298 89.5913 495.164 94.456C500.031 99.3207 505.893 101.753 512.753 101.753C519.567 101.753 525.406 99.3207 530.272 94.456C535.14 89.5913 537.573 83.7306 537.573 76.8737V32.953C537.573 30.1732 538.546 27.8103 540.492 25.8645C542.439 23.9186 544.803 22.9458 547.584 22.9458C550.365 22.9458 552.729 23.9186 554.674 25.8645C556.622 27.8103 557.595 30.1732 557.595 32.953V76.8737C557.595 89.2439 553.192 99.8071 544.385 108.563C535.626 117.366 525.082 121.767 512.753 121.767C500.379 121.767 489.811 117.366 481.051 108.563C472.246 99.8071 467.843 89.2439 467.843 76.8737V32.953ZM578.688 62.5578C578.688 51.5775 582.557 42.219 590.298 34.4819C598.085 26.7447 607.447 22.8762 618.385 22.8762C629.323 22.8762 638.685 26.7447 646.472 34.4819C654.211 42.219 658.08 51.5775 658.08 62.5578C658.08 73.4917 654.211 82.8272 646.472 90.5643C643.551 93.4831 639.634 95.7764 634.722 97.4442L648 104.672C650.317 106.386 651.754 108.424 652.311 110.787C652.913 113.243 652.404 115.536 650.781 117.667C649.159 119.891 646.981 121.211 644.246 121.628C641.512 122.045 639.055 121.42 636.877 119.752L606.635 100.711C603.484 98.7183 601.908 95.8922 601.908 92.2321C601.908 89.4523 602.881 87.0895 604.827 85.1436C606.774 83.1979 609.138 82.2248 611.919 82.2248H618.385C623.806 82.2248 628.442 80.3022 632.289 76.4568C636.135 72.6114 638.059 67.9784 638.059 62.5578C638.059 57.1373 636.135 52.5042 632.289 48.6588C628.442 44.8134 623.806 42.8908 618.385 42.8908C612.962 42.8908 608.326 44.8134 604.481 48.6588C600.633 52.5042 598.709 57.1373 598.709 62.5578V111.76C598.709 114.54 597.737 116.903 595.789 118.849C593.843 120.795 591.48 121.767 588.698 121.767C585.917 121.767 583.554 120.795 581.608 118.849C579.661 116.903 578.688 114.54 578.688 111.76V62.5578ZM746.748 35.2463C748.602 37.2847 749.46 39.6477 749.321 42.3348C749.181 45.0682 748.117 47.3615 746.123 49.2148C744.084 51.0217 741.721 51.8788 739.031 51.7861C736.298 51.6471 734.004 50.5583 732.15 48.5198C728.581 44.5818 722.624 42.5895 714.282 42.5432C709.786 42.5432 705.593 43.2846 701.699 44.7671C696.555 46.7594 693.982 49.6781 693.982 53.5235C693.982 57.4614 697.088 60.1255 703.297 61.5154C705.475 62.025 708.674 62.5115 712.892 62.9748C718.824 63.577 722.485 63.9708 723.876 64.1561C733.053 65.4533 739.912 67.7003 744.454 70.8971C750.711 75.3448 753.84 82.1322 753.84 91.2592C753.84 101.174 749.39 108.957 740.491 114.609C732.891 119.428 723.854 121.86 713.379 121.906C705.778 121.953 698.803 120.656 692.452 118.015C685.083 115.003 679.706 110.602 676.324 104.811C674.47 101.66 673.774 98.6489 674.237 95.7764C674.748 92.5333 676.694 90.1936 680.078 88.7574C682.209 87.8771 684.365 87.7613 686.544 88.4098C688.768 89.0122 690.507 90.2167 691.758 92.0236C694.724 96.1933 697.782 98.9731 700.933 100.363C703.715 101.614 707.863 102.239 713.379 102.239C717.921 102.193 722.161 101.429 726.102 99.9461C731.431 97.9539 734.095 95.0583 734.095 91.2592C734.095 87.4602 730.968 84.7729 724.711 83.1979C722.533 82.5955 719.334 82.0164 715.116 81.4604C708.905 80.5802 705.244 80.0474 704.132 79.8621C694.955 78.3332 688.096 75.9935 683.554 72.843C677.297 68.488 674.168 62.0481 674.168 53.5235C674.168 43.6089 678.572 35.8022 687.377 30.1036C694.979 25.1928 703.993 22.7835 714.422 22.8762C728.604 22.9688 739.379 27.0922 746.748 35.2463Z" fill="white"/>
</g>
</g>
<defs>
<clipPath id="clip0_12_33">
<rect width="791" height="136" fill="white"/>
</clipPath>
</defs>
</svg>
