<svg width="186" height="190" viewBox="0 0 186 190" fill="none" xmlns="http://www.w3.org/2000/svg">
<mask id="mask0_3_169" style="mask-type:luminance" maskUnits="userSpaceOnUse" x="0" y="3" width="186" height="187">
<path d="M185.34 96.5836C185.34 122.22 176.3 144.061 158.219 162.107C140.138 180.223 118.298 189.28 92.696 189.28C67.094 189.28 45.238 180.223 27.122 162.107C9.04 144.06 0 122.219 0 96.5836C0 70.9826 9.04 49.1256 27.122 31.0096C45.238 12.9636 67.095 3.94058 92.696 3.94058C118.297 3.94058 140.137 12.9636 158.219 31.0096C176.3 49.1256 185.34 70.9836 185.34 96.5836Z" fill="white"/>
</mask>
<g mask="url(#mask0_3_169)">
<path d="M92.696 194.408C65.805 194.408 42.524 184.761 23.496 165.733C4.50405 146.777 -5.12695 123.51 -5.12695 96.5846C-5.12695 69.6956 4.50204 46.4156 23.493 27.3886C42.53 8.42358 65.809 -1.18542 92.696 -1.18542C119.584 -1.18542 142.847 8.42659 161.84 27.3816C180.838 46.4156 190.467 69.6976 190.467 96.5846C190.467 123.511 180.836 146.776 161.84 165.737C142.854 184.759 119.589 194.408 92.696 194.408Z" fill="#71B297"/>
</g>
<mask id="mask1_3_169" style="mask-type:luminance" maskUnits="userSpaceOnUse" x="0" y="3" width="186" height="187">
<path d="M185.34 96.5836C185.34 122.22 176.3 144.061 158.219 162.107C140.138 180.223 118.298 189.28 92.696 189.28C67.094 189.28 45.238 180.223 27.122 162.107C9.04 144.06 0 122.219 0 96.5836C0 70.9826 9.04 49.1256 27.122 31.0096C45.238 12.9636 67.095 3.94058 92.696 3.94058C118.297 3.94058 140.137 12.9636 158.219 31.0096C176.3 49.1256 185.34 70.9836 185.34 96.5836Z" fill="white"/>
</mask>
<g mask="url(#mask1_3_169)">
<path d="M102.181 152.469C102.172 151.719 102.155 151.018 102.13 150.366C102.112 149.994 102.095 149.636 102.078 149.29C94.801 151.959 88.153 151.941 82.135 149.238C81.874 150.41 81.566 152.015 81.212 154.057C86.454 156.221 93.444 156.358 102.182 154.467C102.214 153.635 102.214 152.968 102.181 152.469Z" fill="white"/>
<path d="M137.147 138.781C132.853 138.877 128.563 139.833 124.278 141.651C121.398 142.873 119.057 143.693 117.255 144.112C116.908 145.729 116.293 147.968 115.408 150.829C114.929 150.518 114.416 150.194 113.87 149.854H113.819C113.751 150.09 113.666 150.331 113.563 150.573C113.29 151.256 112.982 151.923 112.641 152.571C112.23 153.323 111.837 153.973 111.461 154.52C108.248 152.058 106.351 150.658 105.77 150.316C105.395 150.128 104.934 149.975 104.385 149.854V149.906C103.241 149.882 102.489 150.036 102.13 150.367C102.155 151.018 102.172 151.72 102.181 152.47C102.214 152.969 102.214 153.636 102.181 154.469C102.131 157.422 101.858 162.464 101.361 169.594C100.721 178.755 101.337 186.07 103.206 191.538C103.915 191.476 104.616 191.407 105.308 191.332C105.522 191.318 105.727 191.302 105.923 191.281C106.194 191.253 106.467 191.22 106.744 191.178C108.281 191.024 109.819 190.836 111.358 190.614C113.017 190.39 114.674 190.134 116.331 189.846C123.931 188.533 131.588 186.619 139.3 184.104C137.249 172.825 135.625 163.87 134.429 157.239C134.087 155.222 133.762 153.427 133.455 151.855C133.044 149.36 132.72 147.411 132.48 146.01C132.275 144.985 132.139 144.233 132.069 143.754C132.138 144.233 132.275 144.984 132.48 146.01C132.719 147.41 133.044 149.36 133.455 151.855C133.762 153.427 134.087 155.222 134.429 157.239C135.625 163.87 137.249 172.825 139.3 184.104C148.323 180.515 154.51 176.362 157.859 171.645C154.578 164.638 150.288 157.205 144.991 149.342C142.94 146.334 141.095 143.754 139.453 141.601C138.65 140.558 137.881 139.618 137.147 138.781ZM79.93 149.494C79.048 149.857 78.382 150.147 77.93 150.366C77.51 150.585 75.783 151.849 72.752 154.161C72.369 153.615 71.976 152.965 71.572 152.212C71.221 151.556 70.896 150.889 70.599 150.213C70.288 150.425 69.981 150.63 69.676 150.828C68.499 147.079 67.781 144.413 67.523 142.829C67.509 142.648 67.492 142.46 67.471 142.266C66.078 141.869 64.608 141.357 63.062 140.728C57.662 138.542 54.09 137.447 52.346 137.447C51.171 137.447 49.992 137.635 48.809 138.011C47.934 139.109 46.942 140.39 45.835 141.857C44.126 144.147 42.161 146.915 39.939 150.162C34.846 157.477 30.488 164.655 26.865 171.695C29.975 176.891 36.299 181.112 45.835 184.36C47.92 172.943 49.578 163.903 50.808 157.238C51.047 155.734 51.287 154.332 51.526 153.033C51.56 152.725 51.611 152.401 51.68 152.058C52.261 148.743 52.688 146.368 52.961 144.933C53.029 144.42 53.081 144.027 53.114 143.753C53.08 144.026 53.029 144.42 52.961 144.933C52.688 146.368 52.261 148.743 51.68 152.058C51.611 152.401 51.559 152.725 51.526 153.033C51.287 154.332 51.047 155.734 50.808 157.238C49.579 163.903 47.92 172.943 45.835 184.36C56.253 187.926 66.782 190.251 77.417 191.332C78.011 191.385 78.592 191.435 79.16 191.485C79.188 190.57 79.223 189.545 79.263 188.409C79.434 183.351 79.519 180.275 79.519 179.18C79.516 178.022 79.584 176.056 79.724 173.284C79.905 170.538 80.041 167.888 80.135 165.337C80.229 162.828 80.366 160.35 80.545 157.903L80.597 157.955C80.815 156.525 81.02 155.226 81.212 154.058C81.567 152.016 81.874 150.411 82.135 149.239C82.192 149.109 82.243 148.972 82.288 148.829L79.93 149.494Z" fill="#56B6E0"/>
<path d="M111.335 154.683C108.145 152.239 106.237 150.829 105.666 150.493C105.351 150.336 104.951 150.197 104.485 150.087L104.381 150.11L104.159 150.107C102.964 150.107 102.471 150.331 102.268 150.517L101.945 150.815L101.873 149.299C101.84 148.53 101.806 147.865 101.769 147.303C101.699 146.162 101.428 144.957 100.962 143.722L100.913 143.591L101.017 143.496C102.922 141.796 104.299 140.522 105.111 139.71C105.791 139.03 106.45 138.406 107.068 137.857C107.209 137.75 107.321 137.654 107.419 137.558C108.067 136.977 108.562 136.499 108.899 136.128C108.899 136.128 109.02 136.006 109.027 135.999C109.281 135.285 109.41 134.513 109.41 133.703C109.41 133.069 109.36 132.496 109.26 132C109.128 131.24 108.898 130.61 108.573 130.125C108.278 129.667 107.813 129.203 107.186 128.741C106.654 128.334 106.008 127.926 105.262 127.525L105.122 127.45L105.161 127.296C105.124 126.935 105.09 126.49 105.052 125.977L105.035 125.74L105.272 125.758C108.595 126.014 111.142 126.625 112.842 127.577C113.178 127.779 113.478 127.978 113.747 128.178C114.144 128.241 114.539 128.307 114.931 128.375C117.358 128.809 119.676 129.31 121.817 129.865C126.567 130.993 130.369 132.556 133.112 134.511C134.267 135.329 135.676 136.72 137.303 138.648L137.579 138.976L137.15 138.986C132.9 139.081 128.596 140.042 124.356 141.84C121.545 143.031 119.215 143.853 117.425 144.281C117.074 145.888 116.461 148.109 115.602 150.888L115.522 151.147L115.294 151.001C114.87 150.726 114.419 150.439 113.941 150.143C113.886 150.311 113.821 150.481 113.749 150.653C113.476 151.336 113.162 152.014 112.819 152.667C112.404 153.428 112.004 154.089 111.626 154.637L111.504 154.815L111.335 154.683ZM72.584 154.28C72.198 153.731 71.798 153.068 71.392 152.31C71.08 151.726 70.785 151.126 70.511 150.52C70.27 150.683 69.56 151.148 69.56 151.148L69.479 150.89C68.306 147.15 67.579 144.449 67.32 142.863C67.308 142.714 67.295 142.57 67.281 142.425C65.926 142.033 64.481 141.527 62.984 140.918C57.631 138.75 54.053 137.651 52.345 137.651C51.197 137.651 50.027 137.838 48.87 138.206L48.172 138.429L48.652 137.877C49.574 136.817 50.388 135.934 51.071 135.25C53.55 132.806 57.466 130.994 62.709 129.863C65.438 129.22 68.349 128.653 71.355 128.174C73.114 126.839 75.986 126.049 79.963 125.758L80.2 125.741L80.07 127.427L79.969 127.478C78.265 128.346 77.102 129.237 76.508 130.126C76.176 130.616 75.928 131.247 75.769 132.003C75.705 132.496 75.672 133.074 75.672 133.704C75.672 134.509 75.783 135.279 76.002 135.994C76.059 136.043 76.106 136.093 76.145 136.146C76.504 136.503 76.997 136.961 77.602 137.498C77.746 137.627 77.882 137.744 78.01 137.855C78.618 138.413 79.258 139.037 79.921 139.713C80.766 140.539 82.161 141.814 84.063 143.497L84.169 143.591L84.12 143.723C83.652 144.971 83.24 146.224 82.894 147.449C82.799 147.771 82.696 148.098 82.583 148.432C82.562 148.557 82.527 148.715 82.485 148.88L82.455 148.994L79.982 149.691C79.128 150.044 78.466 150.333 78.018 150.55C77.613 150.76 75.882 152.03 72.874 154.323L72.704 154.452L72.584 154.28Z" fill="#3592BB"/>
<path d="M105.359 127.347C106.115 127.752 106.765 128.161 107.308 128.577C107.957 129.055 108.435 129.534 108.743 130.012C109.085 130.525 109.324 131.175 109.461 131.961C109.565 132.474 109.615 133.054 109.615 133.704C109.615 134.559 109.478 135.361 109.204 136.113C110.127 135.157 110.776 134.217 111.153 133.293C110.777 134.217 110.128 135.157 109.204 136.113C109.17 136.147 109.119 136.199 109.051 136.267C108.708 136.642 108.213 137.121 107.564 137.702C107.461 137.805 107.342 137.907 107.205 138.011C106.59 138.558 105.94 139.173 105.257 139.857C104.437 140.677 103.069 141.942 101.155 143.651C101.63 144.912 101.903 146.125 101.975 147.291C102.01 147.856 102.044 148.522 102.077 149.291C102.094 149.637 102.111 149.995 102.129 150.367C102.488 150.036 103.24 149.882 104.384 149.906V149.854C104.933 149.975 105.394 150.128 105.769 150.316C106.35 150.658 108.247 152.058 111.46 154.52C111.836 153.973 112.229 153.323 112.64 152.571C112.981 151.923 113.289 151.256 113.562 150.573C113.666 150.331 113.751 150.091 113.818 149.854C112.521 149.04 111.016 148.152 109.307 147.188C107.598 146.198 106.247 145.359 105.256 144.676C106.247 145.359 107.597 146.197 109.307 147.188C111.016 148.152 112.52 149.041 113.818 149.854H113.869C114.415 150.194 114.928 150.518 115.407 150.829C116.291 147.969 116.907 145.729 117.254 144.112C117.393 143.634 117.495 143.207 117.561 142.83C117.731 140.404 117.663 138.216 117.356 136.268C116.809 133.054 115.596 130.44 113.716 128.423L113.665 128.372C113.391 128.166 113.083 127.961 112.742 127.757C111.06 126.815 108.564 126.217 105.257 125.963C105.294 126.475 105.328 126.92 105.359 127.295C105.361 127.322 105.361 127.338 105.359 127.347ZM71.419 128.372C71.4 128.39 71.382 128.406 71.368 128.423C69.479 130.439 68.266 133.053 67.727 136.268C67.434 138.083 67.348 140.083 67.471 142.266C67.492 142.46 67.509 142.649 67.523 142.829C67.781 144.413 68.499 147.079 69.676 150.828C69.982 150.63 70.289 150.425 70.599 150.213C72.074 149.305 73.801 148.296 75.777 147.188C77.502 146.199 78.852 145.362 79.827 144.676C80.622 145.172 81.117 145.496 81.313 145.65C81.117 145.497 80.621 145.172 79.827 144.676C78.852 145.362 77.502 146.199 75.777 147.188C73.8 148.296 72.074 149.305 70.599 150.213C70.896 150.889 71.221 151.556 71.572 152.212C71.976 152.965 72.368 153.615 72.752 154.161C75.783 151.85 77.51 150.585 77.93 150.366C78.382 150.147 79.048 149.857 79.93 149.494L82.288 148.828C82.33 148.668 82.364 148.513 82.391 148.367C82.502 148.034 82.604 147.71 82.699 147.392C83.049 146.155 83.459 144.907 83.929 143.65C82.014 141.957 80.631 140.692 79.776 139.856C79.111 139.176 78.479 138.561 77.879 138.01C77.749 137.899 77.613 137.78 77.469 137.651C76.861 137.111 76.365 136.65 75.983 136.267C75.944 136.214 75.892 136.163 75.829 136.113C75.59 135.359 75.471 134.554 75.471 133.704C75.471 133.063 75.505 132.481 75.573 131.961C75.737 131.176 75.993 130.526 76.342 130.012C76.957 129.09 78.136 128.184 79.88 127.295C79.911 126.918 79.945 126.473 79.982 125.963C75.919 126.259 73.065 127.062 71.419 128.372ZM114.895 128.577C114.489 128.506 114.079 128.437 113.666 128.372L113.716 128.423C115.596 130.44 116.809 133.054 117.356 136.268C117.663 138.215 117.732 140.404 117.561 142.83C117.495 143.207 117.394 143.635 117.255 144.112C119.057 143.693 121.398 142.873 124.278 141.651C128.563 139.833 132.853 138.876 137.147 138.781C135.523 136.857 134.14 135.49 132.994 134.679C130.259 132.73 126.517 131.192 121.766 130.065C119.619 129.507 117.329 129.012 114.895 128.577ZM71.368 128.423C71.382 128.406 71.4 128.39 71.419 128.372C68.396 128.852 65.508 129.416 62.754 130.064C57.525 131.191 53.68 132.968 51.218 135.395C50.532 136.081 49.729 136.953 48.809 138.01C49.992 137.634 51.17 137.446 52.346 137.446C54.09 137.446 57.661 138.541 63.062 140.727C64.608 141.356 66.078 141.869 67.471 142.265C67.348 140.082 67.434 138.083 67.727 136.268C68.266 133.053 69.479 130.439 71.368 128.423Z" fill="#3592BB"/>
<path d="M79.981 125.963C79.944 126.473 79.91 126.918 79.879 127.295C78.135 128.184 76.956 129.09 76.341 130.012C75.992 130.526 75.736 131.176 75.572 131.961C75.504 132.482 75.47 133.064 75.47 133.704C75.47 134.555 75.589 135.359 75.828 136.113C75.891 136.163 75.943 136.215 75.982 136.267C76.365 136.65 76.86 137.111 77.468 137.651C77.612 137.78 77.748 137.899 77.878 138.01C78.478 138.561 79.11 139.176 79.775 139.856C80.63 140.692 82.014 141.957 83.928 143.65C83.457 144.907 83.047 146.155 82.698 147.392C82.604 147.709 82.502 148.034 82.39 148.367C82.363 148.513 82.329 148.668 82.287 148.828C82.242 148.971 82.191 149.108 82.134 149.238C88.152 151.941 94.801 151.959 102.077 149.29C102.044 148.521 102.01 147.855 101.975 147.29C101.903 146.124 101.629 144.911 101.155 143.65C103.068 141.941 104.437 140.676 105.257 139.856C105.94 139.172 106.59 138.557 107.205 138.01C107.342 137.907 107.461 137.805 107.564 137.701C108.213 137.121 108.709 136.641 109.051 136.266C109.119 136.198 109.17 136.146 109.204 136.112C109.477 135.36 109.615 134.557 109.615 133.703C109.615 133.053 109.564 132.473 109.461 131.96C109.325 131.174 109.085 130.524 108.743 130.011C108.435 129.533 107.957 129.055 107.308 128.576C106.766 128.16 106.116 127.751 105.359 127.346C105.361 127.337 105.361 127.321 105.359 127.294C105.328 126.919 105.294 126.474 105.257 125.962C105.181 124.816 105.096 123.33 105.001 121.5C104.727 116.989 104.59 114.494 104.59 114.016C96.387 116.1 88.389 116.1 80.596 114.016C80.596 114.495 80.476 116.99 80.237 121.5C80.176 122.687 80.107 123.729 80.032 124.628C80.022 125.116 80.004 125.559 79.981 125.963Z" fill="#EC9F82"/>
<path d="M80.597 157.955L80.545 157.903C80.367 160.349 80.23 162.828 80.135 165.337C80.042 167.889 79.905 170.538 79.724 173.284C79.584 176.055 79.516 178.021 79.519 179.18C79.519 180.275 79.434 183.351 79.263 188.409C79.223 189.545 79.189 190.57 79.16 191.485C87.106 192.194 95.121 192.212 103.206 191.538C101.336 186.069 100.721 178.755 101.361 169.594C101.858 162.464 102.131 157.422 102.181 154.469C93.443 156.36 86.453 156.223 81.211 154.059C81.02 155.227 80.815 156.526 80.597 157.955Z" fill="#5D5D5D"/>
<path d="M71.0309 128.058C64.9029 134.127 66.9989 143.6 69.2409 150.803C69.3219 151.064 69.7049 151.391 69.9899 151.206C73.7079 148.793 77.8339 146.934 81.3209 144.182C81.7329 143.857 81.0479 143.145 80.6919 143.426C77.2049 146.179 73.0789 148.037 69.3609 150.451C69.6099 150.586 69.8599 150.719 70.1099 150.854C67.9199 143.816 65.8169 134.621 71.8079 128.687C72.1439 128.354 71.3759 127.715 71.0309 128.058Z" fill="#583646"/>
<path d="M79.5309 125.832C79.3829 127.85 79.1889 129.86 79.0689 131.881C79.0429 132.331 79.9349 132.712 79.9679 132.143C80.0869 130.122 80.2809 128.112 80.4299 126.094C80.4639 125.644 79.5729 125.263 79.5309 125.832Z" fill="#583646"/>
<path d="M105.707 126.094C105.451 122.124 105.102 118.126 105.04 114.148C105.035 113.844 104.676 113.53 104.369 113.604C96.4729 115.536 88.4839 115.643 80.5959 113.617C80.3889 113.564 80.1509 113.638 80.1469 113.887C80.1049 116.939 79.8669 119.998 79.6969 123.043C79.6549 123.799 79.9719 125.533 78.8439 125.629C77.7549 125.721 76.6789 125.903 75.6089 126.117C73.7409 126.492 72.1099 127.812 70.2949 128.107C65.8089 128.835 61.2299 129.688 56.9669 131.297C53.4049 132.641 50.8749 134.868 48.4459 137.722C48.1339 138.088 48.9089 138.72 49.2229 138.351C53.2499 133.622 57.8099 131.672 63.8059 130.286C65.2219 129.958 66.6489 129.676 68.0769 129.402C69.3459 129.159 71.0769 129.23 72.1349 128.457C74.3449 126.842 77.5729 126.599 80.2019 126.377C80.3459 126.364 80.4229 126.222 80.4309 126.095C80.5949 123.254 80.7539 120.413 80.8979 117.572C80.9459 116.627 80.9919 115.68 81.0299 114.734C81.0579 114.03 80.8959 114.495 81.4979 114.649C82.3939 114.879 83.3019 115.056 84.2089 115.232C91.0469 116.559 98.0789 116.077 104.811 114.431C104.587 114.249 104.364 114.069 104.14 113.887C104.203 117.866 104.551 121.864 104.807 125.833C104.836 126.278 105.743 126.653 105.707 126.094Z" fill="#583646"/>
<path d="M104.808 125.832C104.842 126.283 104.91 126.787 104.91 127.241C104.91 127.449 105.071 127.632 105.245 127.724C106.849 128.584 108.337 129.55 108.905 131.371C109.357 132.818 109.214 134.464 108.77 135.883C108.648 136.275 109.289 136.761 109.594 136.427C110.411 135.531 111.078 134.619 111.589 133.522C111.781 133.109 110.941 132.588 110.72 133.063C110.228 134.122 109.595 134.944 108.817 135.798C109.091 135.979 109.366 136.16 109.641 136.342C110.261 134.36 110.197 132.252 109.374 130.339C109.007 129.487 108.236 128.862 107.536 128.297C107.227 128.048 106.862 127.826 106.531 127.611C106.297 127.279 106.057 127.216 105.811 127.425C105.775 126.981 105.741 126.537 105.709 126.093C105.674 125.649 104.766 125.275 104.808 125.832Z" fill="#583646"/>
<path d="M105.372 126.383C107.14 126.539 108.873 126.783 110.586 127.266C111.709 127.581 112.614 128.467 113.667 128.773C117.137 129.779 120.832 130.151 124.333 131.142C127.476 132.032 130.582 133.323 133.209 135.288C136.122 137.467 138.381 140.745 140.521 143.642C145.21 149.989 149.468 156.671 153.299 163.568C154.123 165.05 154.909 166.553 155.681 168.063C156.276 169.228 157.725 171.028 156.787 172.234C154.954 174.592 152.554 176.466 150.092 178.119C143.678 182.424 136.333 184.72 128.931 186.661C121.574 188.591 114.076 189.927 106.523 190.79C90.5919 192.612 74.3409 191.445 58.7639 187.733C52.2509 186.18 45.6799 184.259 39.5809 181.472C36.9899 180.287 34.5249 178.834 32.2639 177.102C31.0979 176.207 26.8029 172.885 27.7059 171.14C33.6769 159.616 41.0039 148.403 49.2229 138.35C49.5279 137.977 48.7509 137.347 48.4459 137.721C43.8399 143.355 39.7169 149.421 35.7379 155.508C33.6909 158.639 31.7519 161.84 29.8909 165.085C29.1279 166.415 28.3939 167.762 27.6659 169.112C27.0809 170.196 26.0619 171.112 26.7659 172.245C29.3549 176.416 33.6619 179.284 37.9359 181.49C44.4189 184.837 51.7139 186.801 58.7649 188.532C73.5489 192.16 88.9819 193.254 104.136 191.885C111.401 191.229 118.595 190.038 125.7 188.393C132.971 186.709 140.12 184.676 146.757 181.211C151.127 178.93 155.311 175.969 158.248 171.957C158.339 171.832 158.313 171.69 158.251 171.561C155.265 165.239 151.793 159.177 148.033 153.287C144.228 147.327 140.214 141.166 135.219 136.126C131.418 132.291 126.035 130.749 120.953 129.458C118.404 128.811 115.101 128.818 112.857 127.404C110.66 126.018 107.653 125.764 105.142 125.543C104.527 125.489 104.916 126.343 105.372 126.383Z" fill="#583646"/>
<path d="M113.345 128.558C117.047 132.26 117.994 138.973 116.845 143.908C116.741 144.355 117.599 144.862 117.715 144.367C118.927 139.158 117.917 132.116 113.987 128.187C113.602 127.801 112.877 128.091 113.345 128.558Z" fill="#583646"/>
<path d="M131.636 143.728C133.76 157.217 136.423 170.643 138.866 184.078C138.949 184.536 139.846 184.74 139.735 184.129C137.293 170.693 134.629 157.269 132.505 143.779C132.433 143.318 131.54 143.115 131.636 143.728Z" fill="#583646"/>
<path d="M108.816 135.799C106.237 138.402 103.498 140.89 100.767 143.336C100.697 143.399 100.693 143.545 100.721 143.625C101.477 145.806 101.574 147.98 101.681 150.261C101.702 150.708 102.607 151.084 102.58 150.523C102.521 149.258 102.477 147.993 102.358 146.733C102.308 146.204 102.179 145.686 102.063 145.17C101.728 143.672 102.429 143.174 103.466 142.23C105.54 140.342 107.62 138.419 109.592 136.428C109.927 136.091 109.158 135.453 108.816 135.799Z" fill="#583646"/>
<path d="M113.96 149.501C111.15 147.774 108.215 146.248 105.483 144.396C105.337 144.296 105.117 144.184 104.943 144.297C104.447 144.621 103.95 144.944 103.456 145.271C103.02 145.559 103.702 146.28 104.085 146.027C104.394 145.822 105.203 145.076 105.531 145.292C106.336 145.821 107.153 146.329 107.978 146.826C109.883 147.974 111.834 149.042 113.73 150.206C114.293 150.552 114.428 149.788 113.96 149.501Z" fill="#583646"/>
<path d="M105.372 144.324C104.999 144.08 104.64 143.817 104.304 143.525C103.833 143.117 103.386 143.679 103.852 144.084C104.257 144.436 104.695 144.737 105.143 145.029C105.313 145.14 105.62 145.129 105.693 144.906C105.773 144.657 105.557 144.445 105.372 144.324Z" fill="#583646"/>
<path d="M101.681 150.261C102.208 163.951 98.366 178.165 102.772 191.512C102.915 191.945 103.834 192.147 103.641 191.563C99.26 178.291 103.103 164.138 102.58 150.523C102.563 150.075 101.659 149.699 101.681 150.261Z" fill="#583646"/>
<path d="M116.845 143.908C116.324 146.166 115.655 148.386 114.974 150.599C115.157 150.558 115.34 150.517 115.523 150.476C115.065 150.18 114.292 149.434 113.731 149.434C113.11 149.434 113.497 150.274 113.961 150.274C114.207 150.274 115.048 151.023 115.294 151.181C115.462 151.289 115.774 151.284 115.843 151.058C116.525 148.844 117.193 146.623 117.715 144.367C117.818 143.919 116.959 143.412 116.845 143.908Z" fill="#583646"/>
<path d="M79.564 126.917C77.4 128.087 75.761 129.27 75.163 131.731C74.759 133.396 74.85 135.613 76.095 136.865C77.749 138.529 79.511 140.115 81.235 141.711C82.802 143.161 83.413 143.535 82.712 145.683C82.351 146.79 82.072 147.923 81.725 149.035C81.655 149.26 81.843 149.531 82.045 149.617C88.69 152.456 95.566 152.079 102.299 149.704C102.839 149.514 102.282 148.728 101.857 148.878C97.702 150.344 93.481 151.122 89.067 150.737C88.776 150.712 82.572 149.569 82.723 149.084C83.266 147.344 83.739 145.596 84.365 143.881C84.435 143.69 84.29 143.49 84.156 143.372C81.968 141.43 79.93 139.313 77.721 137.399C75.799 135.734 75.614 133.915 76.213 131.451C76.672 129.56 78.6299 128.518 80.1929 127.674C80.6459 127.428 79.969 126.699 79.564 126.917Z" fill="#583646"/>
<path d="M79.713 145.029C80.176 145.319 80.653 145.598 81.088 145.929C81.579 146.303 82.036 145.748 81.54 145.37C81.035 144.985 80.48 144.659 79.942 144.323C79.77 144.215 79.466 144.22 79.392 144.446C79.312 144.693 79.526 144.911 79.713 145.029Z" fill="#583646"/>
<path d="M81.726 149.034C81.355 150.631 81.059 152.241 80.777 153.854C80.724 154.161 80.945 154.379 81.213 154.484C87.973 157.128 95.485 156.345 102.428 154.906C102.983 154.791 102.426 153.989 101.986 154.08C95.175 155.493 87.844 156.277 81.211 153.684C81.357 153.894 81.502 154.104 81.647 154.314C81.929 152.7 82.225 151.089 82.595 149.494C82.699 149.046 81.84 148.539 81.726 149.034Z" fill="#583646"/>
<path d="M80.776 153.855C80.564 155.144 80.36 156.435 80.162 157.726C80.414 157.741 80.666 157.755 80.918 157.77C80.909 157.761 80.901 157.752 80.892 157.744C80.687 157.535 80.157 157.337 80.121 157.799C79.251 168.958 79.064 180.171 78.711 191.355C78.697 191.806 79.592 192.185 79.61 191.617C79.964 180.432 80.15 169.221 81.02 158.061C80.763 158.08 80.506 158.097 80.249 158.116C80.258 158.125 80.266 158.134 80.275 158.142C80.41 158.28 80.97 158.581 81.031 158.186C81.23 156.894 81.433 155.604 81.646 154.315C81.721 153.864 80.858 153.363 80.776 153.855Z" fill="#583646"/>
<path d="M73.54 133.375C73.993 134.48 74.7219 135.434 75.5329 136.299C75.9089 136.7 76.627 136.409 76.176 135.928C75.416 135.117 74.7469 134.245 74.3229 133.211C74.1309 132.743 73.292 132.772 73.54 133.375Z" fill="#583646"/>
<path d="M52.6649 143.622C50.9389 157.18 47.8549 170.689 45.3999 184.13C45.3179 184.58 46.1799 185.082 46.2699 184.589C48.7369 171.082 51.8299 157.507 53.5639 143.884C53.6219 143.437 52.7379 143.055 52.6649 143.622Z" fill="#583646"/>
<path d="M104.91 127.242C105.049 128.787 105.157 130.335 105.27 131.882C105.302 132.327 106.21 132.701 106.169 132.144C106.056 130.597 105.948 129.049 105.809 127.504C105.769 127.06 104.86 126.687 104.91 127.242Z" fill="#583646"/>
</g>
<path d="M113.41 31.2666C112.544 31.7466 111.057 32.3436 108.948 33.0606C106.217 33.9716 103.055 34.8946 99.4629 35.8306C100.026 34.7696 100.881 32.8886 102.027 30.1896C100.891 30.2446 99.5579 30.5006 98.0279 30.9596C94.6869 31.9796 91.3539 33.7726 88.0309 36.3436C87.8839 35.4426 87.5589 34.3826 87.0569 33.1646C86.3849 31.5596 85.8549 30.2606 85.4679 29.2676C84.6979 30.6946 83.2629 32.3006 81.1609 34.0866C77.7889 37.0096 73.9949 38.5306 69.7779 38.6506L69.8299 38.5996C70.5249 37.3926 71.1059 36.3506 71.5719 35.4716C70.3759 35.6726 69.1109 35.9106 67.7789 36.1896C64.1849 36.9236 60.5619 38.3086 56.9089 40.3426C57.5899 39.2516 58.8539 37.2696 60.7029 34.3946C59.4629 35.0916 57.9419 35.9466 56.1399 36.9586C51.2519 39.6596 47.6629 41.7776 45.3729 43.3156C42.8719 45.0036 40.8209 46.9676 39.2209 49.2126C39.1529 50.1736 39.1179 51.1986 39.1179 52.2886C39.1179 54.6816 39.1009 57.0566 39.0669 59.4156C40.6389 57.2966 41.9549 55.6046 43.0139 54.3396C42.9459 54.5786 42.8769 54.8016 42.8089 55.0066C42.7749 55.1426 42.7409 55.2796 42.7069 55.4156C42.1609 57.2626 41.7839 58.4756 41.5789 59.0576C41.3749 59.6376 41.1689 60.9706 40.9639 63.0556C40.7589 65.1756 40.8619 67.0546 41.2719 68.6956C41.6479 70.3026 42.3999 72.2156 43.5279 74.4386C44.9639 73.7886 46.7059 73.4636 48.7569 73.4636C50.1589 73.4636 51.0309 73.4806 51.3729 73.5146C51.5769 73.5826 51.7829 73.6346 51.9879 73.6686C52.1239 69.7706 52.2439 66.3886 52.3459 63.5176C51.6629 63.8586 50.9959 64.2016 50.3469 64.5426C50.9959 64.2006 51.6629 63.8576 52.3459 63.5176C55.8329 61.7056 59.4389 59.3476 63.1649 56.4416C63.4029 56.2716 63.6249 56.1176 63.8309 55.9816C67.9999 54.7166 71.6419 53.3836 74.7519 51.9816C76.2559 51.2976 77.4519 50.7006 78.3409 50.1876C78.2719 50.3926 78.2379 50.5976 78.2379 50.8016C78.2379 52.5116 78.8709 54.2886 80.1359 56.1336C80.9899 57.3996 82.3919 59.0396 84.3399 61.0556C88.6129 57.3306 92.5429 54.1696 96.1319 51.5716C96.7129 51.1616 98.1659 50.2046 100.49 48.7006C100.251 50.5116 99.3969 52.5456 97.9259 54.8026C97.3109 55.6916 96.6779 56.5456 96.0299 57.3656C101.498 55.6216 104.831 54.4766 106.028 53.9306C107.908 53.1446 109.292 52.2716 110.181 51.3146C111.855 55.1426 114.539 57.8266 118.23 59.3646C119.666 57.1086 120.623 55.4346 121.102 54.3406C121.648 53.0416 121.922 51.8626 121.922 50.8026C123.939 53.4356 126.16 55.7426 128.587 57.7246C129.92 58.7856 131.236 59.6566 132.535 60.3396C134.312 61.3646 136.038 61.9806 137.713 62.1856C136.039 61.9806 134.313 61.3656 132.535 60.3396C132.672 63.7576 132.876 68.1996 133.151 73.6696C133.424 73.6356 133.732 73.5836 134.073 73.5156C134.38 73.4816 135.253 73.4646 136.687 73.4646C137.405 73.4646 138.089 73.5156 138.738 73.6176C138.909 73.6176 139.081 73.6356 139.251 73.6696C141.098 68.6796 142.242 64.6806 142.687 61.6726C143.302 57.3316 143.267 53.6916 142.583 50.7516C143.506 50.9906 144.532 51.1106 145.659 51.1106C146.719 51.1106 147.523 51.0066 148.07 50.8016C148.172 50.7676 148.275 50.7166 148.377 50.6486C146.258 49.1786 145.13 46.5646 144.994 42.8036C144.89 38.6676 144.771 35.5406 144.634 33.4216C144.43 29.5596 143.644 26.7056 142.276 24.8586C141.816 24.2306 141.27 23.6836 140.636 23.2186C141.49 24.5686 141.918 26.2606 141.918 28.2936C141.918 30.1396 140.978 32.4126 139.098 35.1116C139.023 35.2186 138.936 35.3216 138.842 35.4196C138.711 35.2656 138.556 35.1106 138.38 34.9586C137.129 33.8736 135.129 32.7456 132.382 31.5746C132.382 32.0346 132.382 32.5986 132.382 33.2666C132.285 34.7916 132.028 36.3646 131.613 37.9826C131.301 37.1816 130.908 36.3436 130.433 35.4706C128.449 31.8156 125.356 29.1656 121.153 27.5246C120.415 28.2696 119.527 29.3296 118.486 30.7036C117.453 32.0876 116.684 33.2836 116.179 34.2926C115.677 33.4796 114.753 32.4706 113.41 31.2666ZM136.429 95.1486C136.429 94.3286 136.583 93.1156 136.891 91.5086C136.003 91.8156 135.08 92.0216 134.122 92.1236C134.327 96.0546 134.448 98.4296 134.482 99.2496C135.336 99.8656 136.396 100.173 137.66 100.173C138.002 100.173 138.344 100.088 138.685 99.9166C137.967 99.3696 137.454 98.8746 137.147 98.4296C136.668 97.6436 136.429 96.5506 136.429 95.1486ZM51.1169 92.1236C50.1259 91.9866 49.1849 91.7646 48.2969 91.4566C48.5349 93.4746 48.6549 94.6866 48.6549 95.0976C48.6549 96.6356 48.3469 98.0716 47.7319 99.4046C47.6979 99.5066 47.6469 99.6276 47.5789 99.7626C48.9119 99.9676 50.0219 99.6596 50.9109 98.8406C50.9449 97.0296 51.0139 94.7896 51.1169 92.1236Z" fill="#FFA131"/>
<path d="M39.0169 49.1976C39.1749 46.9496 39.5239 45.0176 40.0529 43.4546C40.7409 41.4496 41.7539 39.8396 43.0699 38.6546C42.6739 38.7176 42.2179 38.7656 41.6969 38.8026C41.2959 38.8306 40.9209 38.8446 40.5749 38.8446C40.0539 38.8446 39.5879 38.8126 39.1889 38.7496C38.5299 38.6106 37.2959 38.3596 37.2959 38.3596L37.5959 38.0866C39.0799 36.7376 41.6569 33.2836 45.2529 27.8196C47.8909 23.7996 50.4839 21.1106 52.9699 19.8116C51.3649 19.5856 50.1029 18.9136 49.2119 17.8066C48.6249 17.0466 47.9279 15.9146 47.1399 14.4436L46.8849 13.9666L47.3929 14.1546C48.2959 14.4896 49.6429 14.7616 51.3949 14.9636C51.8079 15.0026 52.1979 15.0236 52.5629 15.0236C53.6749 15.0236 54.5489 14.8346 55.1609 14.4606C56.0149 12.7646 56.9159 11.4516 57.8429 10.5606C61.4649 7.27958 64.4789 4.9586 66.8059 3.6586C69.1359 2.3226 71.4169 1.43358 73.5839 1.02158C75.7419 0.610576 77.5309 0.402588 78.9029 0.402588H79.4349L79.0399 0.759583C77.6199 2.04458 76.5759 3.1066 75.9359 3.9126C75.9309 3.9206 75.9249 3.92758 75.9189 3.93558C79.8689 1.55458 86.1429 0.349579 94.5909 0.349579C101.569 0.349579 107.106 1.5326 111.05 3.8656C114.878 6.1336 118.327 7.66258 121.301 8.40558C121.978 8.57658 122.679 8.66458 123.384 8.66458C125.706 8.66458 128.226 7.7256 130.875 5.8736L131.053 5.7486L131.167 5.93359C131.933 7.18659 131.611 9.33458 130.185 12.4916C133.367 11.5826 135.613 10.6176 136.863 9.6236C137.084 9.4336 137.298 9.2036 137.493 8.9436L137.728 8.63058L137.852 9.00058C138.335 10.4526 138.546 11.7896 138.476 12.9746C138.372 14.1226 138.021 15.4196 137.436 16.8346C136.7 18.6106 135.585 19.9866 134.116 20.9336C136.882 21.0766 139.112 21.7886 140.755 23.0546C141.674 24.4836 142.117 26.2276 142.117 28.2916C142.117 30.1726 141.156 32.5056 139.26 35.2276C139.178 35.3436 139.086 35.4556 138.982 35.5616L138.825 35.7226L138.68 35.5516C138.554 35.4046 138.409 35.2576 138.24 35.1126C137.055 34.0856 135.153 33.0006 132.581 31.8836V33.2656C132.483 34.8106 132.222 36.4096 131.805 38.0326L131.647 38.6506L131.416 38.0556C131.109 37.2656 130.716 36.4286 130.248 35.5686C128.316 32.0086 125.272 29.3836 121.2 27.7636C120.49 28.4956 119.632 29.5236 118.646 30.8266C117.626 32.1916 116.856 33.3896 116.358 34.3836L116.194 34.7116L116.001 34.3986C115.525 33.6286 114.643 32.6586 113.377 31.5146C112.49 31.9856 111.023 32.5706 109.012 33.2536C106.295 34.1596 103.1 35.0926 99.5129 36.0266L99.0609 36.1446L99.2789 35.7316C99.8149 34.7226 100.631 32.9336 101.705 30.4146C100.661 30.4976 99.4449 30.7466 98.0839 31.1536C94.7829 32.1616 91.4409 33.9606 88.1529 36.5036L87.8799 36.7136L87.8249 36.3736C87.6809 35.4926 87.3569 34.4386 86.8629 33.2406C86.2779 31.8406 85.7989 30.6736 85.4289 29.7376C84.6109 31.0876 83.2199 32.5996 81.2889 34.2406C77.8979 37.1806 74.0259 38.7326 69.7799 38.8526L69.2609 38.8676L69.6299 38.5016C70.2449 37.4566 70.7609 36.5376 71.1899 35.7416C70.1089 35.9286 68.9759 36.1456 67.8179 36.3876C64.2609 37.1156 60.6239 38.5046 57.0059 40.5206L56.7329 40.2326C57.3579 39.2316 58.4729 37.4786 60.0819 34.9756L56.2379 37.1356C51.3749 39.8216 47.7579 41.9576 45.4849 43.4846C43.0149 45.1506 40.9629 47.1176 39.3859 49.3296L38.9639 49.9226L39.0169 49.1976Z" fill="#FFC741"/>
<path d="M55.8839 19.1166C55.1659 19.1836 54.4489 19.3726 53.7309 19.6796C51.0639 20.8086 48.2959 23.5586 45.4239 27.9336C41.8009 33.4376 39.2369 36.8716 37.7339 38.2396C38.0759 38.3076 38.5719 38.4106 39.2209 38.5476C39.8699 38.6506 40.6909 38.6666 41.6819 38.5996C42.6389 38.5316 43.3559 38.4276 43.8349 38.2916C44.3479 37.9146 45.2019 37.3856 46.3979 36.7016C45.2009 37.3856 44.3469 37.9146 43.8349 38.2916C42.2289 39.4866 41.0319 41.2306 40.2459 43.5206C39.7199 45.0736 39.3789 46.9706 39.2209 49.2106C40.8209 46.9666 42.8719 45.0016 45.3729 43.3136C47.6629 41.7756 51.2519 39.6576 56.1399 36.9566C57.9419 35.9446 59.4629 35.0906 60.7029 34.3926C58.8539 37.2676 57.5899 39.2496 56.9089 40.3406C60.5619 38.3066 64.1849 36.9216 67.7789 36.1876C69.1109 35.9096 70.3759 35.6706 71.5719 35.4696C71.1059 36.3486 70.5249 37.3906 69.8299 38.5976L69.7779 38.6486C73.9949 38.5296 77.7889 37.0076 81.1609 34.0846C83.2629 32.2986 84.6979 30.6916 85.4679 29.2656C85.8559 30.2586 86.3849 31.5576 87.0569 33.1626C87.5599 34.3806 87.8839 35.4396 88.0309 36.3416C91.3549 33.7716 94.6869 31.9776 98.0279 30.9576C99.5569 30.4986 100.89 30.2426 102.027 30.1876C100.881 32.8856 100.026 34.7666 99.4629 35.8286C103.055 34.8936 106.216 33.9706 108.948 33.0586C111.057 32.3416 112.543 31.7446 113.41 31.2646C114.754 32.4686 115.677 33.4776 116.178 34.2896C116.683 33.2806 117.452 32.0846 118.485 30.7006C119.525 29.3266 120.414 28.2666 121.152 27.5216C125.355 29.1636 128.448 31.8126 130.432 35.4676C130.907 36.3406 131.3 37.1786 131.612 37.9796C132.027 36.3616 132.284 34.7896 132.381 33.2636C132.381 32.5956 132.381 32.0316 132.381 31.5716C135.128 32.7426 137.128 33.8706 138.379 34.9556C138.555 35.1076 138.71 35.2626 138.841 35.4166C138.936 35.3186 139.022 35.2166 139.097 35.1086C140.976 32.4096 141.917 30.1356 141.917 28.2906C141.917 26.2576 141.489 24.5646 140.635 23.2156C138.882 21.8636 136.471 21.1636 133.406 21.1126C133.303 21.1466 133.217 21.1986 133.15 21.2656C132.911 21.3686 132.671 21.4706 132.432 21.5736C132.671 21.4706 132.911 21.3696 133.15 21.2656C133.218 21.1986 133.303 21.1466 133.406 21.1126C135.148 20.1896 136.43 18.7366 137.251 16.7556C137.832 15.3536 138.173 14.0886 138.276 12.9616C138.344 11.7986 138.139 10.4996 137.66 9.06558C137.454 9.33858 137.232 9.57859 136.994 9.78259C135.66 10.8436 133.268 11.8506 129.816 12.8076C129.507 12.8756 129.183 12.9616 128.841 13.0636C128.499 13.1326 128.14 13.2176 127.765 13.3206C128.141 13.2186 128.499 13.1326 128.841 13.0636C129.183 12.9616 129.507 12.8756 129.816 12.8076C131.354 9.52759 131.747 7.27059 130.995 6.04059C127.474 8.50259 124.227 9.35558 121.254 8.60358C118.246 7.85158 114.811 6.33059 110.949 4.04059C107.018 1.71659 101.566 0.554596 94.5939 0.554596C85.5709 0.554596 79.1279 1.90559 75.2659 4.60559C75.4019 4.33259 75.5729 4.05858 75.7789 3.78558C76.4279 2.96558 77.4699 1.9056 78.9059 0.606598C77.5389 0.606598 75.7789 0.811588 73.6249 1.22159C71.4719 1.63159 69.2329 2.5026 66.9089 3.8356C64.5849 5.1346 61.6109 7.4246 57.9879 10.7056C57.0659 11.5956 56.1759 12.8936 55.3229 14.6016C55.0839 15.0806 54.8439 15.5926 54.6049 16.1396C54.8439 15.5926 55.0839 15.0796 55.3229 14.6016C54.4689 15.1486 53.1519 15.3366 51.3759 15.1656C49.5989 14.9606 48.2479 14.6866 47.3249 14.3456C48.1109 15.8156 48.7939 16.9256 49.3759 17.6776C50.3679 18.9076 51.8189 19.5746 53.7339 19.6776C54.4489 19.3716 55.1659 19.1836 55.8839 19.1166Z" fill="#FFC741"/>
<path d="M139.248 73.6666C139.078 73.6326 138.907 73.6146 138.735 73.6146C138.086 73.5126 137.402 73.4616 136.684 73.4616C135.249 73.4616 134.377 73.4786 134.07 73.5126C133.728 73.5806 133.421 73.6326 133.148 73.6666C133.216 74.9996 133.301 76.4006 133.404 77.8706C134.155 77.6986 134.839 77.6136 135.455 77.6136C135.763 77.6136 136.07 77.6316 136.377 77.6656C137.436 77.6986 138.326 77.8876 139.043 78.2296C138.325 77.8876 137.436 77.6996 136.377 77.6656C136.07 77.6316 135.763 77.6136 135.455 77.6136C134.839 77.6136 134.155 77.6986 133.404 77.8706C133.404 78.3486 133.421 78.8616 133.455 79.4086C133.728 84.7066 133.951 88.9446 134.12 92.1236C135.078 92.0206 136.001 91.8146 136.889 91.5086C138.598 90.9276 140.17 90.0566 141.606 88.8936C144.613 86.4326 146.117 83.6646 146.117 80.5886C146.117 78.5376 145.365 76.8796 143.861 75.6146C143.246 75.1016 142.528 74.6756 141.708 74.3326C141.401 74.1966 141.076 74.0936 140.734 74.0246C140.257 73.8546 139.761 73.7356 139.248 73.6666ZM43.5279 74.4366C42.8099 74.7446 42.1609 75.1356 41.5789 75.6156C40.0749 76.8806 39.3239 78.5386 39.3239 80.5896C39.3239 83.6656 40.8099 86.4336 43.7839 88.8946C45.1849 90.0226 46.6889 90.8776 48.2959 91.4576C49.1839 91.7656 50.1249 91.9876 51.1159 92.1246C51.2519 88.8096 51.4399 84.8266 51.6799 80.1786C51.6799 79.3596 51.7139 78.5736 51.7819 77.8216C51.0979 77.6836 50.4999 77.6156 49.9879 77.6156C49.6459 77.6156 49.3389 77.6336 49.0659 77.6676C48.0049 77.7006 47.1169 77.8896 46.3999 78.2316C45.6479 78.5056 45.0499 78.9326 44.6059 79.5126C44.1609 80.1286 43.8529 80.9836 43.6839 82.0766C43.8539 80.9836 44.1619 80.1296 44.6059 79.5126C45.0499 78.9326 45.6479 78.5056 46.3999 78.2316C47.1179 77.8896 48.0059 77.7016 49.0659 77.6676C49.3389 77.6336 49.6469 77.6156 49.9879 77.6156C50.4999 77.6156 51.0979 77.6836 51.7819 77.8216C51.8159 76.3856 51.8849 75.0016 51.9869 73.6686C51.7819 73.6346 51.5759 73.5826 51.3719 73.5146C51.0299 73.4806 50.1579 73.4636 48.7559 73.4636C46.7059 73.4616 44.9639 73.7856 43.5279 74.4366ZM73.9319 77.3066C73.5899 76.4876 72.8549 76.2816 71.7269 76.6916C70.8729 77.0006 70.4449 77.5636 70.4449 78.3836C70.4109 79.2726 70.2059 79.8186 69.8299 80.0236C69.6249 79.3756 69.4189 78.8786 69.2139 78.5386C68.8729 77.8536 68.2919 77.5136 67.4699 77.5136C66.2409 77.5136 65.6249 78.2306 65.6249 79.6656C65.6249 79.7336 65.9159 80.4516 66.4969 81.8186C67.3849 83.1866 68.6159 83.8696 70.1879 83.8696C71.7939 83.8696 72.9229 83.2376 73.5719 81.9736C73.9479 81.2556 74.1359 80.4356 74.1359 79.5116C74.1359 78.4176 74.0679 77.6826 73.9319 77.3066ZM111.512 76.7426C110.771 76.0996 110.242 76.1516 109.923 76.8956C109.478 77.1996 109.256 77.7286 109.256 78.4846C109.256 79.2746 109.461 79.8216 109.872 80.1266C110 80.5116 110.155 81.0066 110.334 81.6136C111.12 83.1176 112.367 83.8686 114.076 83.8686C115.718 83.8686 116.981 83.1856 117.87 81.8176C118.451 80.8956 118.741 80.0916 118.741 79.4086C118.775 79.0666 118.724 78.7076 118.588 78.3316C118.315 77.6136 117.75 77.2556 116.896 77.2556C115.974 77.2556 115.392 77.7166 115.153 78.6396C114.949 79.5636 114.572 80.0236 114.025 80.0236C113.66 79.3936 113.301 78.8306 112.948 78.3326C112.887 77.4086 112.408 76.8796 111.512 76.7426Z" fill="#EC9F82"/>
<path d="M78.238 50.7996C78.238 50.5956 78.272 50.3906 78.341 50.1856C77.452 50.6986 76.256 51.2956 74.752 51.9796C71.642 53.3816 68 54.7146 63.831 55.9796C63.625 56.1156 63.403 56.2696 63.165 56.4396C59.439 59.3456 55.833 61.7046 52.346 63.5156C52.244 66.3866 52.124 69.7696 51.988 73.6666C51.886 74.9996 51.8169 76.3836 51.7829 77.8196C51.7149 78.5716 51.681 79.3576 51.681 80.1766C51.441 84.8246 51.2529 88.8076 51.1169 92.1226C51.0139 94.7886 50.946 97.0276 50.911 98.8396C50.842 100.857 50.825 102.343 50.86 103.3C50.962 106.069 55.354 110.307 64.036 116.015C73.197 121.962 82.647 124.937 92.389 124.937C102.608 124.937 112.298 121.962 121.459 116.015C130.141 110.307 134.482 104.821 134.482 99.5576C134.482 99.5236 134.482 99.4196 134.482 99.2486C134.448 98.4286 134.328 96.0536 134.122 92.1226C133.952 88.9436 133.729 84.7056 133.457 79.4076C133.423 78.8606 133.406 78.3476 133.406 77.8696C133.303 76.3996 133.217 74.9986 133.15 73.6656C132.876 68.1956 132.671 63.7536 132.534 60.3356C131.235 59.6516 129.919 58.7806 128.586 57.7206C126.159 55.7396 123.938 53.4316 121.921 50.7986C121.921 51.8596 121.648 53.0376 121.101 54.3366C120.622 55.4316 119.665 57.1046 118.229 59.3606C114.538 57.8226 111.855 55.1386 110.18 51.3106C109.291 52.2676 107.907 53.1406 106.027 53.9266C104.83 54.4726 101.498 55.6166 96.029 57.3616C96.678 56.5416 97.311 55.6866 97.925 54.7986C99.395 52.5416 100.249 50.5086 100.489 48.6966C98.1649 50.2006 96.7119 51.1576 96.1309 51.5676C92.5419 54.1666 88.612 57.3276 84.339 61.0516C82.391 59.0356 80.9889 57.3956 80.1349 56.1296C78.8709 54.2866 78.238 52.5096 78.238 50.7996ZM109.923 76.8966C110.241 76.1526 110.771 76.1006 111.512 76.7436C112.408 76.8806 112.887 77.4096 112.948 78.3326C113.3 78.8306 113.66 79.3946 114.025 80.0236C114.572 80.0236 114.948 79.5636 115.153 78.6396C115.392 77.7166 115.974 77.2556 116.896 77.2556C117.75 77.2556 118.315 77.6136 118.588 78.3316C118.724 78.7076 118.776 79.0666 118.741 79.4086C118.741 80.0926 118.451 80.8956 117.87 81.8176C116.981 83.1856 115.717 83.8686 114.076 83.8686C112.367 83.8686 111.12 83.1176 110.334 81.6136C110.155 81.0066 110.001 80.5106 109.872 80.1266C109.461 79.8216 109.256 79.2746 109.256 78.4846C109.256 77.7296 109.478 77.2006 109.923 76.8966ZM71.7269 76.6916C72.8549 76.2816 73.59 76.4876 73.932 77.3066C74.068 77.6826 74.137 78.4176 74.137 79.5106C74.137 80.4346 73.949 81.2546 73.573 81.9726C72.924 83.2376 71.796 83.8686 70.189 83.8686C68.617 83.8686 67.386 83.1856 66.498 81.8176C65.916 80.4506 65.626 79.7326 65.626 79.6646C65.626 78.2296 66.242 77.5126 67.471 77.5126C68.292 77.5126 68.8729 77.8536 69.2149 78.5376C69.4199 78.8786 69.626 79.3746 69.831 80.0226C70.207 79.8186 70.412 79.2716 70.446 78.3826C70.445 77.5636 70.8729 76.9996 71.7269 76.6916Z" fill="#FFD2AF"/>
<path d="M55.828 18.6236C51.227 19.3136 48.088 23.2276 45.574 26.8166C42.965 30.5406 40.683 34.7716 37.346 37.9236C37.053 38.2006 37.344 38.6606 37.664 38.7266C39.617 39.1246 41.344 39.1926 43.334 38.9076C44.556 38.7326 45.649 37.7086 46.692 37.1046C47.245 36.7856 46.649 35.9816 46.107 36.2956C45.243 36.7946 44.209 37.7016 43.221 37.9226C41.417 38.3256 39.587 38.1126 37.805 37.7496C37.911 38.0176 38.017 38.2846 38.123 38.5526C40.755 36.0676 42.751 32.8176 44.758 29.8356C47.48 25.7936 50.653 20.3996 55.94 19.6066C56.576 19.5126 56.456 18.5306 55.828 18.6236Z" fill="#583646"/>
<path d="M53.802 19.1916C50.439 18.8586 49.19 16.7526 47.723 14.0636C47.525 14.3086 47.326 14.5536 47.128 14.7986C49.406 15.5566 51.992 15.9986 54.369 15.5236C54.796 15.4376 55.549 15.2416 55.778 14.8056C56.984 12.5046 58.425 10.9516 60.375 9.26161C65.777 4.58161 71.633 1.24959 78.961 1.09959C78.844 0.800593 78.728 0.501597 78.612 0.203597C77.225 1.4766 75.74 2.74562 74.808 4.40462C74.556 4.85362 75.183 5.26261 75.558 5.01161C79.156 2.59461 83.536 1.80261 87.771 1.35661C93.434 0.759612 99.333 0.838607 104.889 2.15761C109.973 3.36561 114.162 6.7376 119.067 8.4676C123.576 10.0586 127.385 9.05361 131.288 6.44661C131.037 6.36861 130.785 6.2906 130.533 6.2126C131.515 8.2196 130.191 10.7626 129.361 12.6076C129.174 13.0226 129.605 13.3856 129.997 13.2736C132.724 12.4926 136.143 11.6686 138.05 9.38161C137.766 9.33361 137.482 9.28559 137.198 9.23759C138.492 13.5346 137.115 18.3606 133.113 20.7106C132.752 20.9226 132.911 21.5876 133.335 21.6036C136.811 21.7306 140.102 22.5656 142.179 25.5856C144.021 28.2646 144.069 31.9746 144.232 35.0956C144.504 40.3306 143.331 47.4146 148.067 51.0276C148.11 50.7466 148.153 50.4636 148.196 50.1826C146.568 50.9956 144.346 50.6346 142.652 50.2606C142.359 50.1966 142.023 50.4896 142.088 50.7956C143.734 58.5136 141.427 66.2596 138.792 73.4646C138.68 73.7706 138.852 74.0946 139.178 74.1546C143.27 74.9166 146.024 77.5476 145.521 81.9066C145.068 85.8266 141.455 88.8536 138.143 90.4746C137.7 90.6916 136.659 90.7856 136.434 91.3056C135.979 92.3606 135.977 93.9226 135.938 95.0686C135.858 97.3886 136.633 98.8766 138.377 100.299C138.42 100.017 138.463 99.7336 138.506 99.4526C137.237 99.9276 135.888 99.5476 134.791 98.8686C134.412 98.6336 133.989 98.8356 133.989 99.2966C133.989 107.469 125.04 113.335 118.865 117.036C110.165 122.25 100.09 124.827 89.961 124.384C80.09 123.951 70.875 120.036 62.768 114.581C59.498 112.381 56.203 110.018 53.51 107.118C51.125 104.55 51.296 102.31 51.403 98.9196C51.416 98.5266 50.992 98.1486 50.619 98.4356C49.792 99.1976 48.802 99.4766 47.649 99.2746C47.778 99.5046 47.907 99.7346 48.035 99.9646C49.291 97.0296 49.148 94.4866 48.79 91.4096C48.77 91.2386 48.655 91.0696 48.491 91.0056C45.246 89.7286 42.409 87.5936 40.737 84.4806C38.78 80.8356 39.995 76.6946 43.708 74.9006C43.933 74.7926 44.119 74.5236 43.991 74.2656C42.353 70.9556 41.251 67.7676 41.387 64.0266C41.494 61.0576 42.327 58.4296 43.165 55.6166C43.3 55.1606 42.852 54.7266 42.415 55.0096C42.37 55.0376 42.325 55.0676 42.28 55.0966C42.541 55.2576 42.803 55.4186 43.064 55.5796C43.146 55.2136 43.282 54.8666 43.472 54.5396C43.707 54.0286 42.978 53.5986 42.626 54.0226C41.258 55.6736 39.96 57.3786 38.679 59.0986C38.973 59.1876 39.267 59.2766 39.561 59.3666C39.65 52.7266 38.276 43.4056 44.128 38.6946C44.624 38.2966 44.035 37.4896 43.543 37.8856C37.326 42.8886 38.669 52.3926 38.575 59.4596C38.569 59.8946 39.215 60.0516 39.457 59.7276C40.739 58.0086 42.036 56.3036 43.404 54.6516C43.122 54.4796 42.841 54.3066 42.558 54.1346C42.376 54.5286 42.101 54.9706 42.081 55.4206C42.063 55.8426 42.483 56.1506 42.865 55.9046C42.91 55.8756 42.954 55.8456 42.999 55.8166C42.75 55.6146 42.5 55.4126 42.25 55.2106C41.122 59.0026 40.201 62.4696 40.421 66.4986C40.544 68.7626 41.388 70.9466 42.29 72.9966C42.954 74.5076 42.483 74.3166 41.287 75.2096C40.689 75.6546 40.091 76.3496 39.748 77.0006C37.727 80.8476 39.345 85.0426 42.116 88.0196C42.945 88.9096 43.911 89.6286 44.91 90.3106C45.557 90.7526 47.793 91.4166 47.897 92.3186C48.199 94.9116 48.183 97.0756 47.121 99.5596C47.002 99.8376 47.185 100.225 47.507 100.25C48.949 100.364 50.037 100.14 51.202 99.2446C50.941 99.0826 50.68 98.9216 50.418 98.7606C50.332 101.481 49.994 103.933 51.562 106.269C53.787 109.585 57.475 112.061 60.671 114.325C69.599 120.649 79.625 124.913 90.649 125.396C101.111 125.854 111.301 122.727 120.217 117.383C126.568 113.577 134.972 107.469 134.972 99.2016C134.704 99.3446 134.437 99.4866 134.17 99.6296C135.585 100.507 137.25 100.984 138.862 100.38C139.218 100.247 139.28 99.7706 138.991 99.5336C137.119 98.0076 136.79 96.3546 136.991 94.0536C137.183 91.8596 138.262 91.5816 139.976 90.6316C142.554 89.2026 144.697 86.8756 145.906 84.2016C148.357 78.7776 144.622 74.1646 139.316 73.1776C139.445 73.4076 139.574 73.6376 139.702 73.8676C142.391 66.5166 144.749 58.5706 143.071 50.7006C142.883 50.8786 142.695 51.0576 142.508 51.2356C144.356 51.6436 146.785 51.9916 148.552 51.1086C148.872 50.9496 149.005 50.5096 148.681 50.2636C145.441 47.7916 145.516 43.7556 145.408 40.0506C145.311 36.7376 145.28 33.3716 144.769 30.0916C143.808 23.9266 139.547 20.8466 133.473 20.6246C133.547 20.9226 133.621 21.2206 133.695 21.5176C138.096 18.9336 139.535 13.5926 138.12 8.89461C138.009 8.52661 137.496 8.4786 137.268 8.7516C135.504 10.8656 132.163 11.6186 129.633 12.3446C129.845 12.5666 130.057 12.7876 130.269 13.0106C131.199 10.9446 132.559 8.12661 131.454 5.86961C131.312 5.58161 130.982 5.4456 130.699 5.6356C128.05 7.4066 125.261 8.66961 122.012 8.26161C119.373 7.92961 116.694 6.5396 114.346 5.3636C112.124 4.2516 110.085 2.89261 107.753 2.00761C105.71 1.23261 103.54 0.804593 101.384 0.487593C96.139 -0.283407 90.615 -0.071394 85.379 0.644606C81.736 1.14261 78.048 2.1316 74.969 4.1996C75.218 4.4026 75.468 4.6046 75.718 4.8076C76.549 3.3276 77.964 2.1416 79.193 1.0106C79.56 0.673603 79.362 0.1036 78.844 0.1136C73.151 0.2306 68.09 2.15259 63.51 5.46559C61.116 7.19659 58.572 9.13361 56.682 11.4166C55.661 12.6496 55.358 14.3156 53.632 14.6616C51.755 15.0366 49.318 14.4946 47.512 13.8946C47.021 13.7316 46.678 14.1926 46.917 14.6296C48.557 17.6366 50.042 19.8076 53.657 20.1656C54.3 20.2316 54.438 19.2546 53.802 19.1916Z" fill="#583646"/>
<path d="M55.06 16.3436C55.288 15.8256 55.526 15.3126 55.778 14.8056C56.059 14.2396 55.147 13.8306 54.864 14.4016C54.612 14.9086 54.375 15.4226 54.146 15.9396C53.891 16.5176 54.802 16.9276 55.06 16.3436Z" fill="#583646"/>
<path d="M74.6849 5.67757C74.9639 5.43857 75.2529 5.21858 75.5569 5.01158C76.0849 4.65158 75.4929 3.84658 74.9719 4.20058C74.6679 4.40758 74.3789 4.62858 74.0999 4.86858C73.6189 5.28158 74.2059 6.08957 74.6849 5.67757Z" fill="#583646"/>
<path d="M99.9959 46.6436C100.392 50.6216 97.964 54.0626 95.641 57.0486C95.331 57.4466 95.7479 57.9746 96.2089 57.8266C99.2959 56.8396 102.403 55.8786 105.43 54.7156C107.88 53.7746 110.422 52.4876 111.611 50.0296C111.886 49.4606 110.974 49.0516 110.697 49.6256C109.512 52.0776 106.769 53.1576 104.356 54.0586C101.557 55.1036 98.695 55.9906 95.85 56.9006C96.039 57.1606 96.2289 57.4186 96.4179 57.6786C98.9119 54.4736 101.406 50.7996 100.982 46.5506C100.919 45.9176 99.9319 46.0026 99.9959 46.6436Z" fill="#583646"/>
<path d="M78.602 47.6756C76.175 53.1896 80.421 57.6586 84.031 61.4356C84.17 61.5806 84.482 61.5886 84.632 61.4586C89.778 56.9906 95.064 52.8076 100.782 49.1036C101.319 48.7556 100.725 47.9516 100.197 48.2926C96.254 50.8486 92.519 53.5846 88.877 56.5596C87.725 57.5006 86.59 58.4616 85.459 59.4286C83.989 60.6836 82.951 58.8696 82.001 57.7576C79.601 54.9476 77.904 51.7436 79.517 48.0796C79.77 47.5016 78.859 47.0916 78.602 47.6756Z" fill="#583646"/>
<path d="M109.716 51.4836C111.47 55.2876 114.187 58.1136 118.033 59.8136C118.216 59.8946 118.5 59.8606 118.616 59.6766C119.814 57.7796 121.041 55.8756 121.851 53.7756C122.913 51.0216 122.082 50.1886 120.475 47.9526C120.101 47.4316 119.297 47.9976 119.673 48.5206C120.134 49.1626 120.595 49.8026 121.056 50.4436C121.838 51.5296 121.052 53.0736 120.643 54.1356C120.077 55.6016 119.12 56.9926 118.3 58.3176C117.62 59.4166 114.639 56.6346 113.995 56.0496C112.518 54.7056 111.468 52.9356 110.641 51.1426C110.376 50.5666 109.446 50.8966 109.716 51.4836Z" fill="#583646"/>
<path d="M50.527 65.0046C58.605 60.7856 66.857 55.4956 72.679 48.3466C73.079 47.8546 72.302 47.2256 71.902 47.7176C66.203 54.7156 58.08 59.9456 50.168 64.0766C49.606 64.3696 49.969 65.2966 50.527 65.0046Z" fill="#583646"/>
<path d="M42.559 54.1356C42.443 54.5356 42.318 54.9306 42.217 55.3346C42.063 55.9466 43.045 56.1106 43.199 55.4926C43.28 55.1716 43.38 54.8566 43.472 54.5396C43.646 53.9416 42.736 53.5246 42.559 54.1356Z" fill="#583646"/>
<path d="M52.239 73.1746C52.136 73.1746 52.034 73.1746 51.931 73.1746C51.723 73.1746 51.51 73.3826 51.496 73.5876C50.902 81.9466 50.59 90.3806 50.419 98.7616C50.406 99.3836 51.389 99.5606 51.401 98.9196C51.449 96.5956 52.265 74.1586 52.35 74.1586C52.996 74.1586 52.867 73.1746 52.239 73.1746Z" fill="#583646"/>
<path d="M52.0579 73.1786C49.3409 72.4966 45.9079 72.8946 43.3479 73.9726C42.7569 74.2206 43.1249 75.1466 43.7069 74.9006C46.0969 73.8946 49.3679 73.5156 51.9159 74.1556C52.5429 74.3126 52.6709 73.3326 52.0579 73.1786Z" fill="#583646"/>
<path d="M51.8529 77.3316C50.0169 76.9906 47.9569 77.0066 46.2199 77.7656C46.0129 77.8556 45.8839 78.0456 45.9069 78.2766C46.0579 79.8086 46.4799 81.2676 47.4859 82.4626C47.8959 82.9486 48.7039 82.3876 48.2879 81.8946C47.3839 80.8216 47.0289 79.5606 46.8929 78.1836C46.7889 78.3536 46.6839 78.5246 46.5799 78.6946C48.1649 78.0036 50.0389 77.9986 51.7129 78.3096C52.3469 78.4266 52.4789 77.4486 51.8529 77.3316Z" fill="#583646"/>
<path d="M51.8549 63.4366C51.7339 66.8206 51.6149 70.2046 51.4969 73.5876C51.4749 74.2116 52.4569 74.3876 52.4789 73.7456C52.5979 70.3616 52.7169 66.9776 52.8369 63.5946C52.8599 62.9706 51.8769 62.7946 51.8549 63.4366Z" fill="#583646"/>
<path d="M64.011 56.4436C69.024 54.9036 74.039 53.1506 78.634 50.5896C79.191 50.2796 78.595 49.4766 78.049 49.7806C73.534 52.2966 68.577 54.0016 63.652 55.5146C63.037 55.7036 63.41 56.6276 64.011 56.4436Z" fill="#583646"/>
<path d="M46.2199 77.7656C44.3229 78.5106 43.5179 80.0636 43.1919 81.9946C43.0869 82.6176 44.0669 82.7856 44.1739 82.1526C44.4409 80.5766 45.0159 79.3066 46.5789 78.6926C47.1769 78.4586 46.8079 77.5336 46.2199 77.7656Z" fill="#583646"/>
<path d="M48.1019 91.9086C49.0629 92.2336 50.0419 92.4676 51.0459 92.6126C51.6839 92.7046 51.8179 91.7276 51.1869 91.6356C50.2689 91.5026 49.3709 91.3026 48.4909 91.0056C47.8859 90.8006 47.4949 91.7026 48.1019 91.9086Z" fill="#583646"/>
<path d="M127.945 13.7856C128.624 13.6036 129.311 13.4306 129.996 13.2726C130.62 13.1296 130.243 12.2056 129.637 12.3446C128.951 12.5006 128.265 12.6756 127.586 12.8576C126.965 13.0246 127.34 13.9486 127.945 13.7856Z" fill="#583646"/>
<path d="M133.225 20.6516C132.897 20.7996 132.584 20.9696 132.251 21.1126C131.662 21.3646 132.029 22.2896 132.61 22.0406C132.941 21.8986 133.259 21.7276 133.584 21.5796C134.166 21.3156 133.8 20.3896 133.225 20.6516Z" fill="#583646"/>
<path d="M139.925 46.2136C140.756 47.7306 141.556 49.2796 142.118 50.9196C142.325 51.5226 143.252 51.1876 143.044 50.5776C142.454 48.8556 141.6 47.2376 140.727 45.6446C140.419 45.0836 139.62 45.6566 139.925 46.2136Z" fill="#583646"/>
<path d="M132.338 60.7876C133.998 61.7226 135.746 62.4076 137.64 62.6706C138.278 62.7586 138.413 61.7816 137.781 61.6936C135.969 61.4426 134.315 60.7776 132.727 59.8846C132.165 59.5696 131.785 60.4776 132.338 60.7876Z" fill="#583646"/>
<path d="M133.205 74.1586C135.181 73.8816 137.197 73.8546 139.178 74.1546C139.816 74.2516 139.949 73.2736 139.319 73.1776C137.261 72.8656 135.148 72.8846 133.092 73.1736C132.455 73.2646 132.576 74.2466 133.205 74.1586Z" fill="#583646"/>
<path d="M133.461 78.3636C134.906 78.0676 136.315 78.0626 137.769 78.3206C139.822 78.6836 140.81 80.1886 141.166 82.1216C141.28 82.7416 142.269 82.6616 142.152 82.0276C141.826 80.2596 141.213 78.9066 139.634 77.9616C137.854 76.8966 135.296 76.9816 133.348 77.3796C132.723 77.5066 132.84 78.4906 133.461 78.3636Z" fill="#583646"/>
<path d="M132.655 73.7136C132.981 79.8656 133.3 86.0186 133.628 92.1706C133.642 92.4336 133.922 92.6496 134.177 92.6156C135.176 92.4806 136.108 92.2736 137.07 91.9716C137.684 91.7796 137.311 90.8556 136.711 91.0436C134.425 91.7606 134.59 91.6036 134.478 89.4926C134.397 87.9526 134.316 86.4136 134.235 84.8736C134.039 81.1206 133.84 77.3706 133.642 73.6186C133.608 72.9866 132.621 73.0736 132.655 73.7136Z" fill="#583646"/>
<path d="M121.519 51.0836C124.185 54.4926 127.284 57.8126 131.034 60.0416C132.75 61.0626 132.196 64.0756 132.279 65.8906C132.398 68.4986 132.526 71.1066 132.656 73.7136C132.688 74.3486 133.675 74.2606 133.642 73.6196C133.512 71.0116 133.385 68.4036 133.265 65.7956C133.191 64.1976 133.571 61.6556 132.996 60.1656C132.872 59.8456 132.275 59.6366 132.077 59.5276C130.7 58.7706 129.44 57.7956 128.238 56.7916C126.024 54.9426 124.095 52.7816 122.322 50.5156C121.927 50.0116 121.121 50.5756 121.519 51.0836Z" fill="#583646"/>
<path d="M138.553 78.1506C138.396 79.5156 138.024 80.8026 137.117 81.8636C136.704 82.3456 137.483 82.9736 137.894 82.4926C138.907 81.3066 139.359 79.8376 139.535 78.3086C139.608 77.6826 138.626 77.5116 138.553 78.1506Z" fill="#583646"/>
<path d="M133.628 92.1706C133.752 94.5456 133.886 96.9206 133.988 99.2966C134.015 99.9316 135.002 99.8436 134.974 99.2026C134.872 96.8266 134.738 94.4516 134.614 92.0766C134.581 91.4436 133.595 91.5306 133.628 92.1706Z" fill="#583646"/>
<path d="M76.2083 76.3059C76.2083 74.6494 75.6022 73.2174 74.39 72.0051C73.2191 70.8331 71.8059 70.247 70.1494 70.247C68.4941 70.247 67.0609 70.8331 65.8487 72.0051C64.6778 73.2174 64.0929 74.6494 64.0929 76.3059C64.0929 77.9613 64.6789 79.3756 65.8487 80.5465C67.0609 81.7575 68.4941 82.3636 70.1494 82.3636C71.8059 82.3636 73.2191 81.7575 74.39 80.5465C75.6022 79.3756 76.2083 77.9613 76.2083 76.3059ZM70.1494 74.3682C71.4019 74.4887 72.0281 75.1551 72.0281 76.3674C72.0281 76.7715 71.8863 77.1755 71.6027 77.5784C71.24 78.0641 70.7343 78.3063 70.0892 78.3063C69.3224 78.3063 68.7765 77.9837 68.4539 77.3362C68.2921 76.6911 68.2117 76.3473 68.2117 76.3071C68.2117 74.933 68.858 74.2867 70.1494 74.3682ZM120.792 76.3059C120.792 74.6494 120.186 73.2174 118.975 72.0051C117.804 70.8331 116.391 70.247 114.735 70.247C113.079 70.247 111.645 70.8331 110.434 72.0051C109.263 73.2174 108.677 74.6494 108.677 76.3059C108.677 77.9613 109.263 79.3756 110.434 80.5465C111.645 81.7575 113.079 82.3636 114.735 82.3636C116.391 82.3636 117.804 81.7575 118.975 80.5465C120.186 79.3756 120.792 77.9613 120.792 76.3059ZM114.735 74.3682C115.987 74.4887 116.613 75.1551 116.613 76.3674C116.613 76.7715 116.473 77.1755 116.189 77.5784C115.825 78.0641 115.321 78.3063 114.674 78.3063C113.908 78.3063 113.362 77.9837 113.039 77.3362C112.877 76.6911 112.797 76.3473 112.797 76.3071C112.797 74.933 113.442 74.2867 114.735 74.3682Z" fill="#583646"/>
<path d="M72.028 76.3674C72.028 75.1551 71.4018 74.4899 70.1494 74.3682C68.858 74.2867 68.2117 74.9342 68.2117 76.3071C68.2117 76.3473 68.292 76.6911 68.4539 77.3362C68.7764 77.9837 69.3223 78.3063 70.0891 78.3063C70.7354 78.3063 71.2399 78.064 71.6027 77.5784C71.8862 77.1744 72.028 76.7715 72.028 76.3674ZM116.613 76.3674C116.613 75.1551 115.987 74.4899 114.735 74.3682C113.443 74.2867 112.797 74.9342 112.797 76.3071C112.797 76.3473 112.877 76.6911 113.039 77.3362C113.362 77.9837 113.907 78.3063 114.674 78.3063C115.321 78.3063 115.825 78.064 116.189 77.5784C116.471 77.1744 116.613 76.7715 116.613 76.3674Z" fill="white"/>
<path d="M88.42 84.2853C88.101 85.4833 87.767 86.6803 87.293 87.8283C86.982 88.5803 86.509 89.0893 86.421 89.9253C86.245 91.5693 88.79 92.0423 89.907 92.0943C90.447 92.1203 90.545 91.3063 90.015 91.2823C89.106 91.2403 86.397 90.9323 87.573 89.0833C87.76 88.7893 87.919 88.4933 88.063 88.1753C88.601 86.9863 88.912 85.6853 89.245 84.4283C89.378 83.9253 88.557 83.7693 88.42 84.2853Z" fill="#583646"/>
<path d="M96.0591 100.281C95.6461 103.089 93.8161 104.318 91.0941 104.54C88.051 104.787 85.523 103.568 85.298 100.318C85.262 99.7944 84.435 99.8443 84.472 100.386C84.69 103.524 86.829 105.282 89.95 105.362C93.485 105.452 96.3351 104.166 96.8841 100.424C96.9601 99.9083 96.1371 99.7473 96.0591 100.281Z" fill="#583646"/>
<path d="M84.646 74.1796C84.8 74.0906 84.936 74.0056 85.056 73.9236C90.082 70.7646 95.106 70.7306 100.13 73.8196C100.263 73.8876 100.382 73.9566 100.488 74.0246C100.452 74.6506 100.435 75.3176 100.437 76.0246C100.44 80.0316 101.858 83.4486 104.693 86.2786C107.557 89.1476 111.008 90.5836 115.049 90.5856C119.101 90.5846 122.519 89.1506 125.303 86.2786C128.174 83.4496 129.609 80.0316 129.61 76.0246C129.613 75.3846 129.578 74.7526 129.507 74.1276L134.89 72.4866C135.157 72.3986 135.345 72.2276 135.455 71.9736C135.605 71.7266 135.639 71.4696 135.557 71.2046C135.469 70.9386 135.298 70.7336 135.044 70.5896C134.796 70.4726 134.539 70.4556 134.275 70.5376L129.097 72.0756C128.484 69.6786 127.22 67.5236 125.303 65.6156V65.6666C122.51 62.8326 119.093 61.4136 115.049 61.4116C111.01 61.4166 107.557 62.8346 104.693 65.6666H104.641C102.843 67.5096 101.612 69.5766 100.95 71.8716C95.371 68.5786 89.8 68.6296 84.236 72.0246C83.584 69.6536 82.319 67.5356 80.442 65.6666C77.613 62.8336 74.179 61.4146 70.137 61.4116C66.097 61.4166 62.645 62.8346 59.78 65.6666H59.729C57.902 67.5496 56.672 69.6866 56.038 72.0756L51.013 70.5376C50.748 70.4556 50.492 70.4726 50.244 70.5896C49.991 70.7346 49.819 70.9396 49.731 71.2046C49.649 71.4696 49.666 71.7256 49.782 71.9736C49.926 72.2276 50.132 72.3986 50.398 72.4866L55.678 74.1276C55.612 74.7216 55.578 75.3536 55.576 76.0246C55.581 80.0306 56.982 83.4486 59.78 86.2786C62.645 89.1476 66.097 90.5836 70.137 90.5856C74.179 90.5836 77.614 89.1496 80.442 86.2786C83.313 83.4496 84.748 80.0316 84.749 76.0246C84.75 75.3656 84.716 74.7506 84.646 74.1796ZM82.596 74.1796C82.662 74.7486 82.697 75.3646 82.699 76.0256C82.699 79.4696 81.468 82.4096 79.007 84.8436C76.571 87.3056 73.615 88.5356 70.138 88.5346C66.658 88.5366 63.684 87.3056 61.217 84.8436C58.82 82.4096 57.623 79.4696 57.628 76.0256C57.625 75.1856 57.676 74.4166 57.782 73.7176C57.791 73.6746 57.791 73.6236 57.782 73.5646V73.5126C58.266 71.0876 59.411 68.9516 61.217 67.1046C63.684 64.6726 66.658 63.4586 70.138 63.4636C73.616 63.4596 76.573 64.6736 79.007 67.1046C81.023 69.1316 82.219 71.4906 82.596 74.1796ZM106.128 67.1046C108.595 64.6726 111.569 63.4586 115.049 63.4636C118.526 63.4606 121.465 64.6746 123.867 67.1046C125.726 68.9426 126.889 71.0616 127.354 73.4616C127.36 73.5436 127.378 73.6296 127.405 73.7176C127.512 74.4726 127.563 75.2406 127.559 76.0256C127.559 79.4696 126.329 82.4096 123.867 84.8436H123.816C121.439 87.3046 118.517 88.5346 115.049 88.5346C111.569 88.5366 108.596 87.3056 106.128 84.8436C103.699 82.4086 102.485 79.4696 102.488 76.0256C102.49 75.3646 102.524 74.7496 102.59 74.1796C102.974 71.4906 104.153 69.1306 106.128 67.1046Z" fill="#9A9A9A"/>
<path d="M130.086 76.1226C130.06 75.0506 129.478 74.6416 130.456 74.3436C131.486 74.0296 132.517 73.7156 133.547 73.4016C134.706 73.0486 136.304 72.8296 136.029 71.1856C135.607 68.6516 130.094 71.3036 128.928 71.6586C129.15 71.8006 129.372 71.9416 129.595 72.0836C128.841 69.4826 127.557 67.3436 125.676 65.3956C125.453 65.1636 124.828 65.0456 124.828 65.5456C124.828 65.5536 124.828 65.5616 124.828 65.5696C125.08 65.4876 125.331 65.4056 125.583 65.3236C122.615 62.4556 119.086 61.0456 114.973 60.9466C112.885 60.8956 110.812 61.3926 108.893 62.1806C108.163 62.4806 107.479 62.8956 106.81 63.3076C106.439 63.5356 104.895 65.2006 104.59 65.2006C103.617 65.2006 102.118 67.9926 101.727 68.7426C101.537 69.1076 100.837 71.3226 100.28 71.0096C99.185 70.3926 98.006 69.9716 96.815 69.5866C92.401 68.1596 87.84 69.3736 83.961 71.6306C84.207 71.7156 84.453 71.8016 84.698 71.8866C83.04 66.5536 78.724 62.5206 73.286 61.2606C70.689 60.6576 67.912 60.9186 65.376 61.6516C62.984 62.3416 61.394 63.9766 59.454 65.2726C58.887 65.6516 54.833 71.2526 56.051 71.6286C54.459 71.1356 52.867 70.6426 51.275 70.1496C50.59 69.9376 49.159 70.2206 49.26 71.2256C49.409 72.7116 50.169 72.8846 51.455 73.2846C52.345 73.5616 53.235 73.8386 54.124 74.1146C54.482 74.2256 54.84 74.3376 55.198 74.4476C55.951 74.6816 55.167 74.4126 55.147 74.6366C54.892 77.4346 55.457 80.2156 56.656 82.7396C59.003 87.6776 64.103 90.6416 69.414 91.0326C74.955 91.4406 80.581 88.3116 83.283 83.4666C84.746 80.8426 85.264 78.1566 85.207 75.1676C85.175 73.4916 88.134 72.8806 89.455 72.4606C92.114 71.6136 94.913 71.9986 97.471 72.9516C97.936 73.1246 100.042 73.9076 99.995 74.5796C99.942 75.3226 99.931 76.0976 99.986 76.8406C100.121 78.6766 100.509 80.3756 101.214 82.0726C102.445 85.0396 104.91 87.4136 107.588 89.0866C113.381 92.7046 121.021 91.1796 125.718 86.5946C126.042 86.2786 125.585 85.8146 125.252 85.8146C125.243 85.8146 125.235 85.8146 125.226 85.8146C125.381 86.0746 125.537 86.3356 125.692 86.5946C128.528 83.6626 129.987 80.2006 130.086 76.1226C130.1 75.5626 129.149 75.3086 129.134 75.9276C129.038 79.8556 127.645 83.1426 124.915 85.9646C124.602 86.2876 125.04 86.7446 125.381 86.7446C125.39 86.7446 125.398 86.7446 125.407 86.7446C125.252 86.4846 125.096 86.2236 124.941 85.9646C120.533 90.2676 114.148 91.3046 108.578 88.6186C103.023 85.9396 100.577 80.0126 100.991 74.1486C101.002 73.9916 100.932 73.7956 100.794 73.7076C95.422 70.2526 89.728 70.4476 84.372 73.7846C84.224 73.8766 84.19 74.0396 84.201 74.1996C84.765 82.7226 78.772 89.9076 70.06 90.1196C61.402 90.3306 55.409 82.4046 56.155 74.2246C56.181 73.9446 55.97 73.7476 55.723 73.6706C53.98 73.1296 52.238 72.5876 50.495 72.0466C50.504 71.1926 50.734 70.8626 51.185 71.0616C51.376 71.1206 51.566 71.1796 51.757 71.2386C52.336 71.4186 52.914 71.5966 53.493 71.7766C54.335 72.0376 55.176 72.2986 56.018 72.5586C56.196 72.6146 56.457 72.5026 56.511 72.3146C58.13 66.6296 62.725 62.6866 68.629 61.9556C75.529 61.1016 81.806 65.6756 83.824 72.1646C83.916 72.4616 84.314 72.5646 84.561 72.4206C89.927 69.2996 95.379 69.2686 100.784 72.3126C100.988 72.4276 101.322 72.3486 101.398 72.1096C104.603 62.0276 117.256 58.5056 125.023 66.0116C125.253 66.2336 125.778 66.1386 125.778 65.7656C125.778 65.7576 125.778 65.7496 125.778 65.7416C125.495 65.7926 125.213 65.8426 124.93 65.8916C126.676 67.6996 127.946 69.6976 128.65 72.1236C128.733 72.4126 128.998 72.6446 129.317 72.5486C131.018 72.0316 132.718 71.5166 134.418 70.9996C134.922 71.6516 134.946 72.0196 134.488 72.1036C134.305 72.1596 134.123 72.2146 133.94 72.2706C133.373 72.4436 132.806 72.6166 132.239 72.7896C131.263 73.0876 130.286 73.3846 129.31 73.6826C129.099 73.7466 129.016 73.9446 129.033 74.1486C129.066 74.7416 129.098 75.3356 129.132 75.9276C129.148 76.4836 130.102 76.7386 130.086 76.1226Z" fill="#583646"/>
<path d="M58.283 73.6876C58.283 71.4146 60.178 68.9726 61.632 67.4186C61.938 67.0916 61.513 66.6386 61.166 66.6386C61.157 66.6386 61.148 66.6386 61.14 66.6386C61.295 66.8986 61.451 67.1596 61.606 67.4186C66.045 63.2766 72.653 62.7516 77.568 66.4126C82.294 69.9326 83.398 76.4676 80.852 81.5986C78.122 87.1016 71.411 89.2456 65.809 87.3346C60.313 85.4606 57.201 79.2476 58.283 73.6876C58.391 73.1326 57.449 72.8836 57.331 73.4926C56.117 79.7296 59.724 85.7856 65.477 88.1666C71.198 90.5326 78.305 87.9806 81.378 82.6656C84.736 76.8556 83.15 69.9536 78.125 65.7256C73.04 61.4476 65.451 62.4776 60.828 66.7906C60.495 67.1016 60.968 67.5706 61.294 67.5706C61.303 67.5706 61.312 67.5706 61.32 67.5706C61.165 67.3106 61.009 67.0496 60.854 66.7906C59.299 68.4526 57.331 71.0776 57.331 73.4926C57.331 74.0496 58.283 74.3046 58.283 73.6876Z" fill="#583646"/>
<path d="M127.083 75.9276C126.862 83.8846 119.841 89.3436 112.025 87.7306C107.758 86.8506 104.41 83.1266 103.302 79.0416C102.155 74.8096 103.64 70.5286 106.542 67.4196C106.847 67.0926 106.423 66.6396 106.076 66.6396C106.067 66.6396 106.059 66.6396 106.05 66.6396C106.205 66.8996 106.361 67.1606 106.516 67.4196C110.723 63.4956 116.97 62.7506 121.839 65.9616C125.107 68.1156 127.011 71.9306 127.083 75.9276C127.093 76.4836 128.046 76.7396 128.035 76.1226C127.826 64.6396 114.226 58.8716 105.739 66.7896C105.406 67.1006 105.879 67.5696 106.205 67.5696C106.214 67.5696 106.223 67.5696 106.231 67.5696C106.076 67.3096 105.92 67.0486 105.765 66.7896C99.178 73.8476 101.866 85.2586 111.093 88.4056C119.458 91.2586 127.801 84.5566 128.035 76.1226C128.051 75.5636 127.101 75.3086 127.083 75.9276Z" fill="#583646"/>
</svg>
