<svg width="1878" height="393" viewBox="0 0 1878 393" fill="none" xmlns="http://www.w3.org/2000/svg">
<path fill-rule="evenodd" clip-rule="evenodd" d="M579 68C532.056 68 494 106.056 494 153V318.632C494 320.097 494.037 321.553 494.11 323H1877.89C1877.96 321.553 1878 320.097 1878 318.633V153C1878 106.056 1839.94 68 1793 68H579Z" fill="url(#paint0_linear_16_20)"/>
<g filter="url(#filter0_d_16_20)">
<path d="M548 230.164C548 225.32 549.725 221.174 553.175 217.726C556.625 214.196 560.815 212.43 565.744 212.43C570.673 212.43 574.862 214.196 578.313 217.726C581.763 221.174 583.488 225.32 583.488 230.164C583.488 237.224 585.994 243.259 591.005 248.267C596.016 253.275 602.054 255.779 609.118 255.779C616.101 255.779 622.098 253.275 627.109 248.267C632.202 243.177 634.749 237.142 634.749 230.164V133.738C634.749 128.894 636.474 124.748 639.924 121.3C643.374 117.852 647.523 116.128 652.369 116.128C657.298 116.128 661.488 117.852 664.938 121.3C668.388 124.748 670.114 128.894 670.114 133.738V230.164C670.114 247.076 664.158 261.485 652.246 273.389C640.335 285.294 625.959 291.246 609.118 291.246C592.278 291.246 577.902 285.294 565.99 273.389C553.997 261.403 548 246.994 548 230.164ZM741.755 228.686C741.755 236.157 744.384 242.561 749.642 247.897C754.981 253.152 761.389 255.779 768.864 255.779C776.34 255.779 782.747 253.152 788.085 247.897C793.346 242.561 795.973 236.198 795.973 228.809V133.861C795.973 128.935 797.698 124.748 801.149 121.3C804.68 117.852 808.872 116.128 813.717 116.128C818.646 116.128 822.835 117.852 826.287 121.3C829.736 124.748 831.461 128.935 831.461 133.861V228.809C831.545 236.198 834.214 242.561 839.472 247.897C844.729 253.152 851.094 255.779 858.57 255.779C866.129 255.779 872.536 253.152 877.794 247.897C883.133 242.561 885.802 236.157 885.802 228.686V133.861C885.802 129.017 887.527 124.871 890.978 121.423C894.427 117.975 898.616 116.251 903.546 116.251C908.394 116.251 912.541 117.975 915.993 121.423C919.442 124.871 921.166 129.017 921.166 133.861V228.686C921.166 246.009 915.087 260.746 902.932 272.896C890.689 285.129 875.904 291.246 858.57 291.246C841.154 291.246 826.203 284.924 813.717 272.281C801.312 284.924 786.361 291.246 768.864 291.246C751.613 291.246 736.867 285.129 724.627 272.896C712.387 260.664 706.267 245.927 706.267 228.686V133.861C706.267 128.935 707.992 124.748 711.442 121.3C714.893 117.852 719.082 116.128 724.011 116.128C728.94 116.128 733.13 117.852 736.58 121.3C740.03 124.748 741.755 128.935 741.755 133.861V228.686ZM1090.15 116.128C1095.08 116.128 1099.27 117.852 1102.72 121.3C1106.17 124.748 1107.9 128.935 1107.9 133.861C1107.9 138.705 1106.17 142.851 1102.72 146.299C1099.27 149.747 1095.08 151.472 1090.15 151.472H1044.69V273.512C1044.69 278.438 1042.96 282.625 1039.51 286.074C1036.06 289.522 1031.87 291.246 1026.94 291.246C1022.1 291.246 1017.95 289.522 1014.5 286.074C1010.96 282.625 1009.2 278.438 1009.2 273.512V151.472H963.728C958.883 151.472 954.733 149.747 951.284 146.299C947.832 142.851 946.108 138.705 946.108 133.861C946.108 128.935 947.832 124.748 951.284 121.3C954.733 117.852 958.883 116.128 963.728 116.128H1090.15ZM1198.39 116.128C1222.63 116.128 1243.29 124.666 1260.37 141.743C1277.46 158.819 1286.01 179.467 1286.01 203.687C1286.01 227.824 1277.46 248.472 1260.37 265.631C1243.29 282.707 1222.63 291.246 1198.39 291.246C1174.24 291.246 1153.58 282.707 1136.41 265.631C1119.32 248.472 1110.78 227.824 1110.78 203.687C1110.78 179.467 1119.32 158.819 1136.41 141.743C1153.58 124.666 1174.24 116.128 1198.39 116.128ZM1235.36 166.865C1225.17 156.685 1212.85 151.595 1198.39 151.595C1184.02 151.595 1171.74 156.685 1161.55 166.865C1151.36 177.045 1146.27 189.319 1146.27 203.687C1146.27 218.054 1151.36 230.328 1161.55 240.508C1171.74 250.689 1184.02 255.779 1198.39 255.779C1212.85 255.779 1225.17 250.689 1235.36 240.508C1245.47 230.328 1250.52 218.054 1250.52 203.687C1250.52 189.319 1245.47 177.045 1235.36 166.865ZM1317.11 133.861C1317.11 128.935 1318.83 124.748 1322.28 121.3C1325.73 117.852 1329.92 116.128 1334.85 116.128C1339.78 116.128 1343.97 117.852 1347.42 121.3C1350.87 124.748 1352.6 128.935 1352.6 133.861V211.691C1352.6 223.842 1356.91 234.228 1365.53 242.848C1374.16 251.469 1384.55 255.779 1396.71 255.779C1408.78 255.779 1419.13 251.469 1427.76 242.848C1436.39 234.228 1440.7 223.842 1440.7 211.691V133.861C1440.7 128.935 1442.42 124.748 1445.87 121.3C1449.32 117.852 1453.51 116.128 1458.44 116.128C1463.37 116.128 1467.56 117.852 1471.01 121.3C1474.46 124.748 1476.19 128.935 1476.19 133.861V211.691C1476.19 233.612 1468.38 252.331 1452.77 267.847C1437.25 283.446 1418.56 291.246 1396.71 291.246C1374.77 291.246 1356.04 283.446 1340.52 267.847C1324.91 252.331 1317.11 233.612 1317.11 211.691V133.861ZM1513.57 186.323C1513.57 166.865 1520.43 150.281 1534.15 136.571C1547.95 122.86 1564.55 116.005 1583.93 116.005C1603.32 116.005 1619.91 122.86 1633.72 136.571C1647.43 150.281 1654.29 166.865 1654.29 186.323C1654.29 205.698 1647.43 222.241 1633.72 235.952C1628.54 241.124 1621.6 245.188 1612.89 248.143L1636.42 260.951C1640.53 263.989 1643.08 267.601 1644.07 271.788C1645.13 276.14 1644.23 280.203 1641.35 283.98C1638.48 287.921 1634.62 290.26 1629.77 290.999C1624.93 291.738 1620.57 290.63 1616.71 287.674L1563.11 253.932C1557.52 250.401 1554.73 245.393 1554.73 238.907C1554.73 233.981 1556.45 229.794 1559.9 226.346C1563.36 222.898 1567.54 221.174 1572.47 221.174H1583.93C1593.54 221.174 1601.76 217.767 1608.58 210.953C1615.39 204.138 1618.8 195.928 1618.8 186.323C1618.8 176.717 1615.39 168.507 1608.58 161.693C1601.76 154.879 1593.54 151.472 1583.93 151.472C1574.32 151.472 1566.11 154.879 1559.29 161.693C1552.47 168.507 1549.06 176.717 1549.06 186.323V273.512C1549.06 278.438 1547.34 282.625 1543.88 286.074C1540.44 289.522 1536.25 291.246 1531.32 291.246C1526.39 291.246 1522.2 289.522 1518.75 286.074C1515.3 282.625 1513.57 278.438 1513.57 273.512V186.323ZM1811.45 137.925C1814.74 141.537 1816.26 145.725 1816.01 150.486C1815.76 155.33 1813.88 159.394 1810.34 162.678C1806.73 165.88 1802.54 167.399 1797.77 167.235C1792.93 166.988 1788.86 165.059 1785.57 161.447C1779.25 154.468 1768.69 150.938 1753.91 150.856C1745.94 150.856 1738.5 152.169 1731.6 154.797C1722.48 158.327 1717.93 163.499 1717.93 170.313C1717.93 177.292 1723.43 182.012 1734.44 184.475C1738.3 185.379 1743.97 186.241 1751.44 187.062C1761.96 188.129 1768.45 188.827 1770.91 189.155C1787.18 191.454 1799.33 195.436 1807.38 201.101C1818.47 208.982 1824.02 221.01 1824.02 237.183C1824.02 254.752 1816.13 268.545 1800.36 278.561C1786.89 287.1 1770.87 291.41 1752.31 291.492C1738.83 291.574 1726.47 289.275 1715.21 284.596C1702.15 279.259 1692.62 271.46 1686.63 261.197C1683.34 255.615 1682.11 250.278 1682.93 245.188C1683.83 239.441 1687.28 235.295 1693.28 232.75C1697.06 231.19 1700.88 230.985 1704.74 232.134C1708.68 233.201 1711.77 235.336 1713.98 238.538C1719.24 245.927 1724.66 250.853 1730.25 253.316C1735.18 255.533 1742.53 256.641 1752.31 256.641C1760.36 256.559 1767.87 255.204 1774.86 252.577C1784.3 249.047 1789.02 243.916 1789.02 237.183C1789.02 230.451 1783.48 225.689 1772.39 222.898C1768.53 221.831 1762.86 220.805 1755.38 219.819C1744.38 218.259 1737.89 217.315 1735.92 216.987C1719.65 214.278 1707.49 210.132 1699.44 204.549C1688.35 196.831 1682.81 185.42 1682.81 170.313C1682.81 152.744 1690.61 138.91 1706.22 128.812C1719.69 120.11 1735.67 115.84 1754.15 116.005C1779.29 116.169 1798.39 123.476 1811.45 137.925Z" fill="white"/>
</g>
<path fill-rule="evenodd" clip-rule="evenodd" d="M317.226 114.759C320.915 112.71 325.833 113.939 328.292 117.628C330.752 121.317 329.112 126.235 325.423 128.694L305.341 140.58C301.652 142.629 296.734 141.399 294.275 137.711C291.816 134.022 293.455 129.104 297.144 126.645L317.226 114.759ZM259.847 348.375C260.667 354.113 265.995 357.802 271.733 356.572C277.471 355.753 281.159 350.425 279.93 344.687L277.471 331.571L299.193 310.669L303.701 342.228C304.931 349.605 311.488 354.933 319.276 353.703C326.653 352.474 331.981 345.916 330.752 338.129L323.784 289.356C323.784 288.537 323.374 288.127 323.374 287.307L343.457 268.044C348.785 263.126 348.785 254.519 343.867 249.191C338.949 243.863 330.342 243.863 325.014 248.781L303.701 269.274L258.208 256.568C250.83 254.519 243.453 258.617 241.404 265.995C239.354 273.372 243.453 280.749 250.83 282.799L280.749 290.996L259.027 311.898L245.912 308.62C240.584 307.39 234.846 310.669 233.616 316.407C232.387 321.735 235.666 327.473 241.404 328.702L257.798 332.391L259.847 348.375ZM131.563 152.875C128.284 154.925 124.186 157.794 119.677 161.072C115.579 164.351 111.48 166.4 107.382 167.63C102.053 169.269 91.3973 169.269 86.479 167.63C82.3805 166.4 78.282 164.351 74.1834 161.072C69.675 157.384 65.9864 154.515 62.2977 152.875C59.4287 151.236 56.5597 150.416 53.6908 150.006C53.2809 150.006 52.8711 150.006 52.0514 149.596V150.006C52.0514 150.006 52.0514 150.006 51.6415 150.006C48.7725 150.416 45.9036 151.236 43.0346 152.875C39.7558 154.925 35.6572 157.794 31.1488 161.072C27.0503 164.351 22.9518 166.4 18.8532 167.63C18.0335 168.04 17.2138 168.04 15.9843 168.04C15.9843 170.499 17.2138 172.958 18.8532 175.007C20.4927 176.647 23.3616 177.876 25.8207 177.876H165.991C168.86 177.876 171.319 176.647 172.958 175.007C174.597 173.368 175.827 170.909 175.827 168.04C175.007 168.04 174.597 167.63 174.188 167.63C170.089 166.4 165.991 164.351 161.892 161.072C157.384 157.384 153.695 154.515 150.006 152.875C143.858 149.596 137.711 149.596 131.563 152.875ZM15.9843 152.056V133.612C17.2138 133.612 18.0335 133.202 18.8532 133.202C22.9518 131.973 27.0503 129.923 31.1488 126.645C35.6572 122.956 39.3459 120.087 43.0346 118.448C45.9036 116.808 48.7725 115.988 51.6415 115.579C51.6415 115.579 51.6415 115.579 52.0514 115.579V115.169C52.4612 115.169 52.8711 115.579 53.6908 115.579C56.5597 115.988 59.4287 116.808 62.2977 118.448C65.5765 120.497 69.675 122.956 74.1834 126.645C78.282 129.923 82.3805 131.973 86.479 133.202C91.8071 134.842 102.463 134.842 107.382 133.202C111.48 131.973 115.579 129.923 119.677 126.645C124.186 122.956 127.874 120.087 131.563 118.448C137.711 115.169 144.268 115.169 150.416 118.448C153.695 120.497 157.794 123.366 162.302 126.645C166.4 129.923 170.499 131.973 174.597 133.202C175.007 133.202 175.827 133.612 176.237 133.612V151.646C174.597 150.826 172.958 150.006 171.729 148.777C166.81 144.678 162.302 141.399 157.794 138.94C138.53 128.284 125.825 136.071 110.251 148.777C102.873 154.925 90.9874 154.515 83.61 148.777C78.6918 144.678 74.1834 141.399 69.6751 138.94C64.7568 136.071 59.8386 134.432 54.9203 134.022C54.1006 134.022 53.2809 134.022 52.4612 134.432V134.022C52.0513 134.022 51.6415 134.022 51.2317 134.022C45.9036 134.432 41.3952 136.071 36.4769 138.94C31.9685 141.399 27.4602 144.678 22.5419 148.777C20.0828 150.416 18.0335 151.236 15.9843 152.056ZM15.9843 117.628C18.0335 116.808 19.6729 115.988 21.7222 114.349C26.6404 110.251 31.1488 106.972 35.6572 104.513C40.5755 101.644 45.4937 100.004 50.4119 99.5944C50.8218 99.5944 51.2317 99.5944 51.6415 99.5944V100.004C52.4612 99.5944 53.2809 99.5944 54.1006 99.5944C59.4287 100.004 63.9371 101.644 68.8553 104.513C73.3637 106.972 77.8721 110.251 82.7903 114.349C90.1677 120.087 101.644 120.497 109.431 114.349C125.005 102.053 138.121 94.2663 156.974 104.513C161.482 106.972 165.991 110.251 170.909 114.349C172.138 115.579 173.778 116.398 175.417 117.218V27.87C175.417 25.0011 174.188 22.5419 172.548 20.9025C170.909 19.2631 168.04 18.0336 165.581 18.0336H26.2306C23.3616 18.0336 20.9025 19.2631 19.2631 20.9025C17.6237 22.5419 16.3941 25.4109 16.3941 27.87V117.628H15.9843ZM224.6 199.599H364.769C372.147 199.599 378.704 202.468 383.213 207.386C388.131 212.304 391 218.862 391 225.829V365.999C391 373.376 388.131 379.934 383.213 384.442C378.295 389.361 371.737 392.23 364.769 392.23H224.6C217.222 392.23 210.665 389.361 206.156 384.442C201.238 379.524 198.369 372.966 198.369 365.999V225.829C198.369 218.452 201.238 211.894 206.156 207.386C211.074 202.468 217.632 199.599 224.6 199.599ZM364.769 215.583C367.638 215.583 370.097 216.812 371.737 218.452C373.376 220.091 374.606 222.96 374.606 225.419V365.589C374.606 368.458 373.376 370.917 371.737 372.557C370.097 374.196 367.229 375.426 364.769 375.426H230.338L253.289 352.474C254.929 350.834 254.929 348.375 253.289 346.736C251.65 345.096 249.191 345.096 247.551 346.736L220.091 374.196C219.271 373.786 218.452 372.966 217.632 372.557C215.993 370.917 215.173 368.868 214.763 366.819L240.584 340.998C242.223 339.359 242.223 336.899 240.584 335.26C238.944 333.621 236.485 333.621 234.846 335.26L214.763 355.343V225.009C214.763 222.14 215.993 219.681 217.632 218.042C219.271 216.403 222.14 215.173 224.6 215.173H364.769V215.583ZM26.2306 199.599H166.4C173.778 199.599 180.335 202.468 184.844 207.386C189.762 212.304 192.631 218.862 192.631 225.829V365.999C192.631 373.376 189.762 379.934 184.844 384.442C179.926 389.361 173.778 392.23 166.4 392.23H116.808C84.8396 392.23 55.74 379.114 34.4277 357.802C13.1153 336.49 0 307.39 0 275.421V225.829C0 218.452 2.86895 211.894 7.78719 207.386C12.2956 202.468 18.8532 199.599 26.2306 199.599ZM166.4 215.583H26.2306C23.3616 215.583 20.9025 216.812 19.2631 218.452C17.6237 220.091 16.3941 222.96 16.3941 225.419V275.012C16.3941 278.7 16.804 282.799 17.2138 286.487L53.2809 250.42C56.5597 247.142 61.478 247.142 64.7568 250.42L109.431 295.094L140.58 263.945C143.858 260.667 148.777 260.667 152.056 263.945L176.647 288.537V225.009C176.647 222.14 175.417 219.681 173.778 218.042C171.319 216.812 168.86 215.583 166.4 215.583ZM20.9025 305.751C25.8207 321.325 34.4277 335.26 45.9036 346.736C64.3469 365.179 89.348 376.245 116.808 376.245H166.4H166.81L103.693 313.128L59.0188 268.454L20.9025 305.751ZM214.763 93.0367C236.075 97.1352 254.929 107.382 269.683 121.726C284.438 136.481 294.684 155.334 298.783 176.647H365.179C368.048 176.647 370.507 175.417 372.147 173.778C373.786 172.138 375.016 169.269 375.016 166.81V116.808C375.016 89.348 363.54 63.9371 345.506 45.9036C327.473 27.87 302.062 16.3941 274.602 16.3941H225.009C222.14 16.3941 219.681 17.6237 218.042 19.2631C216.403 20.9025 215.173 23.7715 215.173 26.2306V93.0367H214.763ZM282.389 176.647H225.009C222.14 176.647 219.681 175.417 218.042 173.778C216.403 172.138 215.173 169.269 215.173 166.81V109.431C231.977 113.12 247.141 121.726 258.617 133.202C270.093 145.088 278.29 159.843 282.389 176.647ZM224.6 0.409863C217.222 0.409863 210.665 3.27883 206.156 8.19707C201.238 13.1153 198.369 19.673 198.369 26.6405V100.004V166.81C198.369 174.188 201.238 180.745 206.156 185.254C211.074 190.172 217.632 193.041 224.6 193.041H291.406H364.36C371.737 193.041 378.295 190.172 382.803 185.254C387.721 180.335 390.59 174.188 390.59 166.81V116.808C390.59 84.8396 377.475 55.7401 356.162 34.4277C334.85 13.1153 305.751 0 273.782 0H224.6V0.409863ZM26.2306 2.04927H166.4C173.778 2.04927 180.335 4.91825 184.844 9.83648C189.762 14.7547 192.631 21.3124 192.631 28.2799V168.45C192.631 175.827 189.762 182.385 184.844 186.893C179.926 191.811 173.778 194.68 166.4 194.68H26.2306C18.8532 194.68 12.2956 191.811 7.78719 186.893C2.86895 181.975 0 175.417 0 168.45V27.87C0 20.4927 2.86895 13.935 7.78719 9.42664C12.2956 4.91825 18.8532 2.04927 26.2306 2.04927ZM176.237 362.72V311.898L145.908 281.569L120.497 306.98L176.237 362.72ZM353.294 145.498C357.392 144.268 361.9 146.727 363.13 151.236C364.36 155.334 361.9 159.843 357.392 161.072L315.997 172.138C311.898 173.368 307.39 170.909 306.16 166.4C304.931 162.302 307.39 157.794 311.898 156.564L353.294 145.498ZM306.98 73.3637L276.651 103.693C273.372 106.972 273.372 111.89 276.651 115.169C279.93 118.448 284.848 118.448 288.127 115.169L318.456 84.8396C321.735 81.5608 321.735 76.6426 318.456 73.3637C315.177 70.4948 309.849 70.4948 306.98 73.3637ZM230.747 34.4277C231.977 30.3291 236.485 27.4602 240.584 28.6897C244.682 29.9193 247.551 34.4277 246.322 38.5262L235.256 79.9214C234.026 84.0199 229.518 86.8889 225.419 85.6593C221.321 84.4298 218.452 79.9214 219.681 75.8229L230.747 34.4277ZM262.716 93.0367C260.667 96.7254 255.748 98.3648 251.65 95.9057C247.961 93.8564 246.322 88.9382 248.781 84.8396L260.257 64.347C262.306 60.6583 267.224 59.0189 271.323 61.478C275.012 63.5273 276.651 68.4455 274.192 72.544L262.716 93.0367Z" fill="#002C0A"/>
<path fill-rule="evenodd" clip-rule="evenodd" d="M176.237 117.218V27.8699C176.237 25.001 175.007 22.5418 173.368 20.9024C171.728 19.263 168.859 18.0334 166.4 18.0334H26.2305C23.3615 18.0334 20.9024 19.263 19.263 20.9024C17.6236 22.5418 16.394 25.4108 16.394 27.8699V117.628C18.4433 116.808 20.0827 115.988 22.132 114.349C27.0502 110.25 31.5586 106.972 36.067 104.512C40.9852 101.644 45.9035 100.004 50.8217 99.5943C51.2315 99.5943 51.6414 99.5943 52.0513 99.5943V100.004C52.871 99.5942 53.6907 99.5943 54.5104 99.5943C59.8385 100.004 64.3469 101.644 69.2651 104.512C73.7735 106.972 78.2819 110.25 83.2001 114.349C90.5775 120.087 102.053 120.497 109.841 114.349C125.415 102.053 138.53 94.2662 157.384 104.512C161.892 106.972 166.4 110.25 171.319 114.349C172.958 115.579 174.597 116.398 176.237 117.218Z" fill="#D0E5E3"/>
<path fill-rule="evenodd" clip-rule="evenodd" d="M260.257 64.7566C262.306 61.0679 267.224 59.4285 271.323 61.8876C275.011 63.9369 276.651 68.8552 274.192 72.9537L262.716 93.4464C260.666 97.135 255.748 98.7744 251.65 96.3153C247.961 94.266 246.322 89.3478 248.781 85.2493L260.257 64.7566ZM245.912 38.526C247.141 34.4275 244.682 29.9191 240.174 28.6895C236.075 27.46 231.567 29.9191 230.337 34.4275L219.271 75.8226C218.042 79.9212 220.501 84.4296 225.009 85.6591C229.108 86.8887 233.616 84.4296 234.846 79.9212L245.912 38.526ZM214.763 26.6403V93.0365C236.075 97.135 254.929 107.381 269.683 121.726C284.438 136.481 294.684 155.334 298.783 176.647H365.179C368.048 176.647 370.507 175.417 372.147 173.778C373.786 172.138 375.016 169.269 375.016 166.81V116.808C375.016 89.3478 363.54 63.9369 345.506 45.9034C327.473 27.8698 302.062 16.3939 274.602 16.3939H225.009C222.14 16.3939 219.681 17.6235 218.042 19.2629C215.993 21.3122 214.763 23.7713 214.763 26.6403ZM306.98 73.3635L276.651 103.693C273.372 106.972 273.372 111.89 276.651 115.169C279.93 118.447 284.848 118.447 288.127 115.169L318.456 84.8394C321.735 81.5606 321.735 76.6424 318.456 73.3635C315.177 70.4946 309.849 70.4946 306.98 73.3635ZM317.226 114.759C320.915 112.709 325.833 113.939 328.292 117.628C330.751 121.316 329.112 126.235 325.423 128.694L305.341 140.579C301.652 142.629 296.734 141.399 294.275 137.71C291.815 134.022 293.455 129.104 297.143 126.644L317.226 114.759ZM353.293 145.498C357.392 144.268 361.9 146.727 363.13 151.236C364.359 155.334 361.9 159.843 357.392 161.072L315.997 172.138C311.898 173.368 307.39 170.909 306.16 166.4C304.931 162.302 307.39 157.793 311.898 156.564L353.293 145.498Z" fill="#D0E5E3"/>
<path fill-rule="evenodd" clip-rule="evenodd" d="M364.769 215.583H224.599C221.73 215.583 219.271 216.812 217.632 218.452C215.992 220.091 214.763 222.96 214.763 225.419V355.753L234.846 335.67C236.485 334.03 238.944 334.03 240.584 335.67C242.223 337.309 242.223 339.768 240.584 341.408L214.763 367.229C215.173 369.278 215.992 371.327 217.632 372.967C218.452 373.786 219.271 374.196 220.091 374.606L247.551 347.146C249.191 345.506 251.65 345.506 253.289 347.146C254.929 348.785 254.929 351.244 253.289 352.884L230.337 375.836H364.769C367.638 375.836 370.097 374.606 371.737 372.967C373.376 371.327 374.606 368.458 374.606 365.999V225.829C374.606 222.96 373.376 220.501 371.737 218.862C370.097 216.812 367.638 215.583 364.769 215.583ZM258.207 256.978L303.701 269.684L325.014 249.191C330.342 244.273 338.948 244.273 343.867 249.601C348.785 254.929 348.785 263.536 343.457 268.454L323.374 287.717C323.374 288.127 323.784 288.947 323.784 289.766L330.751 338.539C331.981 345.916 326.653 352.884 319.276 354.113C311.898 355.343 304.931 350.015 303.701 342.637L299.193 311.079L277.471 331.571L279.93 345.097C280.749 350.834 277.061 355.753 271.733 356.982C265.995 357.802 261.076 354.113 259.847 348.785L256.978 333.211L240.584 329.522C235.256 328.293 231.567 322.555 232.797 317.227C234.026 311.898 239.764 308.21 245.092 309.439L258.207 312.718L279.93 291.816L250.01 283.619C242.633 281.569 238.534 274.192 240.584 266.815C243.453 259.027 250.83 254.929 258.207 256.978Z" fill="#D0E5E3"/>
<path fill-rule="evenodd" clip-rule="evenodd" d="M176.237 289.356V225.829C176.237 222.96 175.007 220.501 173.368 218.862C171.728 217.222 168.859 215.993 166.4 215.993H26.2305C23.3615 215.993 20.9024 217.222 19.263 218.862C17.6236 220.501 16.394 223.37 16.394 225.829V275.421C16.394 279.11 16.8039 283.208 17.2137 286.897L53.2808 250.83C56.5597 247.551 61.4779 247.551 64.7567 250.83L109.431 295.504L140.58 264.355C143.858 261.076 148.777 261.076 152.055 264.355L176.237 289.356Z" fill="#D0E5E3"/>
<path fill-rule="evenodd" clip-rule="evenodd" d="M109.84 149.187C125.415 136.891 138.53 129.104 157.383 139.35C161.892 141.809 166.4 145.088 171.318 149.187C172.548 150.416 174.187 151.236 175.827 152.056V134.022C175.007 134.022 174.597 133.612 174.187 133.612C170.089 132.383 165.99 130.333 161.892 127.054C157.383 123.366 153.695 120.497 150.006 118.857C143.858 115.579 137.301 115.579 131.153 118.857C127.874 120.907 123.775 123.776 119.267 127.054C115.169 130.333 111.07 132.383 106.972 133.612C101.643 135.252 90.9872 135.252 86.069 133.612C81.9705 132.383 77.8719 130.333 73.7734 127.054C69.265 123.366 65.5763 120.497 61.8876 118.857C59.0187 117.218 56.1497 116.398 53.2807 115.988C52.8709 115.988 52.461 115.988 51.6413 115.579V115.988C51.6413 115.988 51.6413 115.988 51.2315 115.988C48.3625 116.398 45.4935 117.218 42.6245 118.857C39.3457 120.907 35.2472 123.776 30.7388 127.054C26.6403 130.333 22.5417 132.383 18.4432 133.612C17.6235 134.022 16.8038 134.022 15.5742 134.022V152.465C17.6235 151.646 19.2629 150.826 21.3122 149.187C26.2304 145.088 30.7388 141.809 35.2472 139.35C40.1654 136.481 45.0837 134.842 50.0019 134.432C50.4118 134.432 50.8216 134.432 51.2315 134.432V134.842C52.0512 134.432 52.8709 134.432 53.6906 134.432C59.0187 134.842 63.5271 136.481 68.4453 139.35C72.9537 141.809 77.4621 145.088 82.3803 149.187C90.9872 154.925 102.463 154.925 109.84 149.187Z" fill="#6BB3B1"/>
<path fill-rule="evenodd" clip-rule="evenodd" d="M150.416 152.875C144.268 149.596 137.711 149.596 131.563 152.875C128.284 154.925 124.186 157.794 119.677 161.072C115.579 164.351 111.48 166.4 107.382 167.63C102.054 169.269 91.3974 169.269 86.4792 167.63C82.3806 166.4 78.2821 164.351 74.1836 161.072C69.6752 157.384 65.9865 154.515 62.2978 152.875C59.4288 151.236 56.5599 150.416 53.6909 150.006C53.281 150.006 52.8712 150.006 52.0515 149.596V150.006C52.0515 150.006 52.0515 150.006 51.6416 150.006C48.7727 150.416 45.9037 151.236 43.0347 152.875C39.7559 154.925 35.6574 157.794 31.149 161.072C27.0504 164.351 22.9519 166.4 18.8534 167.63C18.0337 168.04 17.2139 168.04 15.9844 168.04C15.9844 170.499 17.214 172.958 18.8534 175.007C20.4928 176.647 23.3617 177.876 25.8209 177.876H165.991C168.86 177.876 171.319 176.647 172.958 175.007C174.598 173.368 175.827 170.909 175.827 168.04C175.007 168.04 174.598 167.63 174.188 167.63C170.089 166.4 165.991 164.351 161.892 161.072C157.384 157.794 153.695 154.925 150.416 152.875Z" fill="#6BB3B1"/>
<path fill-rule="evenodd" clip-rule="evenodd" d="M214.763 109.431V166.81C214.763 169.679 215.992 172.138 217.632 173.778C219.271 175.417 222.14 176.647 224.599 176.647H281.979C278.29 159.843 269.683 145.088 258.207 133.202C246.732 121.317 231.567 113.12 214.763 109.431Z" fill="#F4DD58"/>
<path fill-rule="evenodd" clip-rule="evenodd" d="M176.237 311.898L145.908 281.569L120.497 306.98L176.237 362.72V311.898Z" fill="#6D774C"/>
<path fill-rule="evenodd" clip-rule="evenodd" d="M166.81 375.835L103.693 312.718L59.019 268.044L21.3125 305.75C26.2307 321.325 34.8377 335.26 46.3135 346.736C64.7569 365.179 89.758 376.245 117.218 376.245H166.81C166.401 375.835 166.401 375.835 166.81 375.835Z" fill="#919F60"/>
<defs>
<filter id="filter0_d_16_20" x="544" y="116" width="1284.02" height="183.494" filterUnits="userSpaceOnUse" color-interpolation-filters="sRGB">
<feFlood flood-opacity="0" result="BackgroundImageFix"/>
<feColorMatrix in="SourceAlpha" type="matrix" values="0 0 0 0 0 0 0 0 0 0 0 0 0 0 0 0 0 0 127 0" result="hardAlpha"/>
<feOffset dy="4"/>
<feGaussianBlur stdDeviation="2"/>
<feComposite in2="hardAlpha" operator="out"/>
<feColorMatrix type="matrix" values="0 0 0 0 0 0 0 0 0 0 0 0 0 0 0 0 0 0 0.25 0"/>
<feBlend mode="normal" in2="BackgroundImageFix" result="effect1_dropShadow_16_20"/>
<feBlend mode="normal" in="SourceGraphic" in2="effect1_dropShadow_16_20" result="shape"/>
</filter>
<linearGradient id="paint0_linear_16_20" x1="494" y1="196" x2="1877.98" y2="191.361" gradientUnits="userSpaceOnUse">
<stop stop-color="#002C0A"/>
<stop offset="1" stop-color="#235835"/>
</linearGradient>
</defs>
</svg>
