<svg width="148" height="148" viewBox="0 0 148 148" fill="none" xmlns="http://www.w3.org/2000/svg">
<circle cx="73.5" cy="74.5" r="71.5" fill="#212121"/>
<path d="M77.6554 90.1325C78.0137 80.6106 70.5851 72.6012 61.0633 72.2429C51.5414 71.8846 43.5319 79.3132 43.1737 88.835C42.8154 98.3569 50.244 106.366 59.7658 106.725C69.2877 107.083 77.2972 99.6543 77.6554 90.1325Z" fill="#FB5918"/>
<path d="M58.8257 62.991V64.9761C58.8257 65.8543 59.5392 66.5587 60.4083 66.5587C61.2773 66.5587 61.9909 65.8452 61.9909 64.9761V62.991C61.9909 62.1128 61.2773 61.4084 60.4083 61.4084C59.5392 61.4084 58.8257 62.1128 58.8257 62.991Z" fill="white"/>
<path d="M71.8799 69.6232C72.1269 69.7695 72.4013 69.8336 72.6666 69.8336C73.2155 69.8336 73.746 69.55 74.0388 69.0377L75.0267 67.3179C75.4658 66.5586 75.2005 65.589 74.4504 65.1499C73.6911 64.7108 72.7215 64.976 72.2824 65.7262L71.2944 67.446C70.8644 68.2236 71.1206 69.1932 71.8799 69.6232Z" fill="white"/>
<path d="M81.65 78.817C81.9152 78.817 82.1897 78.753 82.4367 78.6066L84.1565 77.6186C84.9158 77.1795 85.1719 76.2099 84.7328 75.4506C84.2937 74.6913 83.324 74.4352 82.5648 74.8743L80.8449 75.8622C80.0857 76.3013 79.8295 77.271 80.2686 78.0303C80.5705 78.5334 81.1011 78.817 81.65 78.817Z" fill="white"/>
<path d="M38.2613 74.8651C37.502 74.426 36.5323 74.6912 36.0932 75.4414C35.6541 76.2007 35.9102 77.1795 36.6695 77.6094C38.2247 78.4785 38.4899 78.817 39.176 78.817C39.7249 78.817 40.2555 78.5334 40.5482 78.0211C40.9873 77.2618 40.722 76.2921 39.9719 75.853L38.2613 74.8651Z" fill="white"/>
<path d="M46.7872 69.0472C47.0799 69.5595 47.6105 69.843 48.1594 69.843C48.4246 69.843 48.6991 69.779 48.9461 69.6326C49.7054 69.1935 49.9615 68.2239 49.5224 67.4646L48.5344 65.7448C48.0953 64.9855 47.1256 64.7294 46.3664 65.1685C45.6071 65.6076 45.3509 66.5772 45.79 67.3365L46.7872 69.0472Z" fill="white"/>
<path d="M42.4509 55.6636C43.1187 56.2216 44.125 56.1393 44.683 55.4624C44.9666 55.1239 45.3783 54.9318 45.8082 54.9318C46.2839 54.9318 46.7322 55.1605 47.0066 55.5538C47.3725 56.0661 47.9671 56.3771 48.6075 56.3771C49.2387 56.3771 49.8424 56.0661 50.2084 55.5538C50.4828 55.1696 50.931 54.9318 51.4067 54.9318C51.8458 54.9318 52.2575 55.1239 52.5319 55.4624C53.09 56.1301 54.0962 56.2216 54.764 55.6636C55.4318 55.1056 55.5233 54.0993 54.9653 53.4315C54.0779 52.3704 52.7789 51.7666 51.4067 51.7666C50.3822 51.7666 49.4034 52.1051 48.6075 52.7088C47.8116 52.1051 46.8328 51.7666 45.8082 51.7666C44.4269 51.7666 43.137 52.3704 42.2497 53.4315C41.6917 54.1085 41.7831 55.1056 42.4509 55.6636Z" fill="white"/>
<path d="M59.0179 41.9967C59.6857 42.5548 60.692 42.4724 61.25 41.7955C61.5336 41.457 61.9452 41.2649 62.3752 41.2649C62.8509 41.2649 63.2991 41.4936 63.5736 41.887C63.9395 42.3992 64.5341 42.7103 65.1744 42.7103C65.8056 42.7103 66.4094 42.3992 66.7753 41.887C67.0498 41.5028 67.498 41.2649 67.9737 41.2649C68.4128 41.2649 68.8245 41.457 69.0989 41.7955C69.6569 42.4633 70.6632 42.5548 71.331 41.9967C71.9988 41.4387 72.0903 40.4324 71.5322 39.7646C70.6449 38.7035 69.3459 38.0997 67.9737 38.0997C66.9491 38.0997 65.9703 38.4382 65.1744 39.042C64.3786 38.4382 63.3997 38.0997 62.3752 38.0997C60.9938 38.0997 59.704 38.7035 58.8166 39.7646C58.2586 40.4324 58.3501 41.4296 59.0179 41.9967Z" fill="white"/>
<path d="M73.0692 95.9968C73.0692 95.1186 72.3556 94.4142 71.4866 94.4142H49.3486C48.4704 94.4142 47.7661 95.1277 47.7661 95.9968C47.7661 96.875 48.4796 97.5794 49.3486 97.5794H71.4866C72.3556 97.5794 73.0692 96.8658 73.0692 95.9968Z" fill="white"/>
<path d="M69.1904 101.888C69.1904 101.01 68.4769 100.305 67.6078 100.305H53.575C52.6968 100.305 51.9924 101.019 51.9924 101.888C51.9924 102.766 52.7059 103.471 53.575 103.471H67.6078C68.4769 103.471 69.1904 102.766 69.1904 101.888Z" fill="white"/>
<path d="M57.4537 105.941C56.5755 105.941 55.8711 106.654 55.8711 107.523C55.8711 108.401 56.5846 109.106 57.4537 109.106H63.3724C64.2506 109.106 64.955 108.392 64.955 107.523C64.955 106.645 64.2414 105.941 63.3724 105.941H57.4537Z" fill="white"/>
<path d="M127.737 109.28H89.3158C91.1637 106.672 94.1642 105.081 97.4757 105.081C97.5947 105.081 97.7227 105.081 97.8416 105.09C99.1681 105.136 100.485 104.943 101.711 104.523C103.083 106.032 105.068 106.983 107.264 106.983C111.353 106.983 114.692 103.699 114.774 99.6193C119.047 99.2351 123.218 99.9944 127.033 101.861C127.252 101.97 127.49 102.025 127.728 102.025C128.313 102.025 128.881 101.696 129.155 101.138C129.539 100.351 129.21 99.3998 128.423 99.0156C126.273 97.9636 124.032 97.2226 121.718 96.7926C122.312 94.6337 122.697 92.4108 122.87 90.1513H127.728C128.606 90.1513 129.31 89.4377 129.31 88.5687C129.31 87.6905 128.597 86.9861 127.728 86.9861H122.98C122.953 83.7569 122.514 80.4728 121.654 77.2161C119.998 70.9132 116.814 64.8298 112.396 59.46L124.801 56.368C125.523 56.1851 126.127 55.6728 126.411 54.9775C126.694 54.2914 126.639 53.5047 126.255 52.8644C123.767 48.7478 119.303 46.4517 114.646 46.6987L117.089 38.7674C117.29 38.1271 117.18 37.441 116.787 36.8921C116.394 36.3432 115.79 36.0231 115.113 36.0048C110.082 35.8675 105.489 38.7034 103.294 43.1036C102.772 42.6553 102.214 42.2436 101.629 41.8869C100.888 41.4295 99.9091 41.6582 99.4517 42.4083C98.9943 43.1493 99.223 44.1281 99.9731 44.5855C100.632 44.988 101.245 45.4729 101.784 46.0126C101.922 46.1498 102.05 46.287 102.178 46.4334C101.885 47.9611 101.885 49.5254 102.15 51.0348C101.071 50.1291 99.845 49.4065 98.5186 48.8942C96.4877 46.534 94.0544 44.613 91.3741 43.2408C92.1425 43.067 92.9384 42.9663 93.7342 42.948C94.6124 42.9297 95.2985 42.1979 95.2802 41.3197C95.2619 40.4598 94.5575 39.7737 93.6976 39.7737C93.6885 39.7737 93.6702 39.7737 93.661 39.7737C91.5387 39.8286 89.4256 40.3317 87.5685 41.2374C86.8001 41.6124 86.3427 42.3992 86.3885 43.2499C86.4342 44.1007 86.9831 44.8417 87.7881 45.1344C89.6817 45.8205 91.4655 46.8085 93.0847 48.0617C88.7761 48.3545 84.7876 50.8152 82.6653 54.7397C82.3451 55.3252 82.3268 56.0113 82.6012 56.6242C82.8757 57.2371 83.4154 57.6762 84.074 57.8317L92.1699 59.6796C89.6268 63.5857 89.389 68.6079 91.7125 72.816C92.0693 73.4655 92.728 73.9137 93.4598 74.0143C93.5604 74.0235 93.661 74.0326 93.7708 74.0326C94.402 74.0326 95.0241 73.7765 95.4723 73.3099L104.757 63.6955C109.203 70.8309 111.088 78.8719 110.255 86.9769H79.0976C77.8717 77.701 69.9497 70.6388 60.4358 70.6388C50.9129 70.6388 42.9908 77.701 41.7741 86.9769H22.7098C22.7007 86.9769 22.6916 86.9769 22.6733 86.9769H9.59174C8.71354 86.9769 8 87.6905 8 88.5687C8 89.4469 8.71354 90.1604 9.59174 90.1604H45.6894C45.7717 90.1604 45.8541 90.1512 45.9364 90.1329H109.798C109.67 90.8282 109.514 91.5143 109.35 92.2095C108.7 92.0266 108.014 91.926 107.301 91.926C103.157 91.926 99.781 95.3015 99.781 99.4455C99.781 100.223 99.8999 100.973 100.119 101.678C99.4334 101.842 98.7107 101.925 97.9789 101.897C97.8233 101.888 97.6678 101.888 97.5123 101.888C92.4169 101.888 87.8796 104.742 85.6749 109.252H81.5218C80.6436 109.252 79.9392 109.966 79.9392 110.835C79.9392 111.713 80.6527 112.417 81.5218 112.417H127.764C128.643 112.417 129.347 111.704 129.347 110.835C129.329 109.984 128.615 109.28 127.737 109.28ZM44.9484 86.9861C46.1468 79.4756 52.6418 73.8131 60.4084 73.8131C68.175 73.8131 74.6791 79.4756 75.8684 86.9861H44.9484ZM105.425 46.47C105.434 46.4425 105.444 46.4151 105.453 46.3785C105.489 46.2413 105.526 46.1041 105.562 45.976C106.697 42.3077 109.908 39.6914 113.631 39.2431L111.115 47.3939C108.892 48.1624 106.944 49.5071 105.462 51.3001C105.05 49.7358 104.995 48.0617 105.425 46.47ZM86.2055 55.0873C88.4559 52.0776 92.3255 50.6048 96.0761 51.4556C97.8599 51.8672 99.47 52.7637 100.742 54.0353C98.4545 54.4287 96.3048 55.4441 94.5301 56.9809L86.2055 55.0873ZM105.736 58.1061L93.9904 70.282C92.5542 66.7783 93.2951 62.7441 95.9846 59.9631C97.9606 57.9232 100.714 56.8529 103.559 57.045C103.596 57.045 103.623 57.045 103.66 57.045C103.705 57.045 103.751 57.0541 103.797 57.045C104.94 57.0358 105.983 56.4229 106.56 55.4349C106.569 55.4166 106.587 55.3892 106.596 55.3709C106.614 55.3343 106.642 55.2977 106.66 55.2611C107.913 52.7089 110.219 50.8518 112.981 50.1657C116.741 49.2327 120.602 50.5957 122.916 53.5962L106.505 57.6853C106.203 57.7402 105.938 57.8957 105.736 58.1061ZM106.999 61.3628L107.694 60.6401L108.975 60.3199C113.613 65.6074 116.933 71.7091 118.598 78.0211C120.245 84.2783 120.217 90.5995 118.543 96.3993C117.098 96.3078 115.717 96.3352 114.171 96.4908C113.722 95.4479 113.036 94.5239 112.195 93.7921C112.625 92.1729 112.963 90.5446 113.192 88.9254C113.21 88.8339 113.228 88.7425 113.228 88.651C114.527 79.1463 112.396 69.6691 106.999 61.3628ZM107.273 95.1186C109.67 95.1186 111.618 97.0671 111.618 99.4638C111.618 101.861 109.67 103.809 107.273 103.809C104.876 103.809 102.928 101.861 102.928 99.4638C102.928 97.0671 104.876 95.1186 107.273 95.1186Z" fill="white"/>
</svg>
