<svg width="33" height="33" viewBox="0 0 33 33" fill="none" xmlns="http://www.w3.org/2000/svg">
<g clip-path="url(#clip0_7_135)">
<path d="M28.9008 9.18299C28.1953 9.51097 27.6076 9.76515 27.6076 9.76515L27.3788 10.8931C27.3404 11.0822 27.0736 11.0899 27.0244 10.9033L26.7848 9.99376C26.6576 10.017 26.5896 9.98553 26.5896 9.98553C26.5896 9.98553 26.5985 9.91098 26.6849 9.81462L26.0377 9.13325C25.9049 8.99348 26.0513 8.76977 26.2321 8.83615L27.3105 9.23205C27.3105 9.23205 27.8344 8.86362 28.4829 8.43335L26.8653 6.73754C26.8112 6.68084 26.8127 6.59063 26.8696 6.53688C26.9966 6.41711 27.2329 6.25518 27.4778 6.40237C27.7312 6.55468 28.9414 7.27495 29.6425 7.69205C29.9493 7.50579 30.2338 7.34392 30.4557 7.23736C31.4284 6.77036 31.6548 7.14876 31.6548 7.14876C31.6548 7.14876 31.8576 7.5404 30.951 8.12586C30.7442 8.25945 30.4575 8.41745 30.1384 8.58173C30.1254 9.39876 30.103 10.8093 30.0996 11.1055C30.0962 11.3917 29.8348 11.5085 29.6665 11.5541C29.5909 11.5746 29.5136 11.5285 29.4937 11.4527L28.9008 9.18299ZM25.6557 11.1844C24.1071 12.3553 22.3959 13.473 20.6042 14.488C19.7169 16.8358 17.4536 18.5052 14.8002 18.5052C14.0123 18.5052 13.2603 18.3551 12.567 18.0867C10.1573 18.8714 7.91039 19.3531 5.73348 19.4467C8.73773 26.5616 14.9011 31.1907 14.9011 31.1907C14.9011 31.1907 25.6786 23.0986 25.6786 11.865C25.6786 11.6362 25.6697 11.4096 25.6557 11.1844ZM25.5497 10.1975C20.7377 12.8252 14.9517 14.7645 9.46989 15.4727C7.66096 15.6934 5.93592 15.7486 4.39178 15.5922C2.22105 15.3312 0.890378 14.5114 0.488149 13.3324C0.147339 12.2261 0.790948 10.681 2.6746 9.29748C3.25198 8.87063 3.9585 8.45436 4.77191 8.08083V8.07952C6.30164 3.96973 10.2524 1.04504 14.8849 1.04504C18.4687 1.04504 21.6461 2.79644 23.6084 5.49119C24.6 6.84974 25.289 8.47992 25.5497 10.1975ZM4.17549 13.2102C3.96969 11.5968 4.15321 9.85719 4.67228 8.36201C3.81097 9.00917 3.11811 9.58062 2.77684 10.3394C2.27087 11.6217 2.86729 12.6373 4.17549 13.2102ZM20.9658 11.581C20.7429 9.59704 19.5894 7.89558 17.9535 6.92594C17.0294 6.37805 15.9506 6.06404 14.7997 6.06404C13.0209 6.06404 11.4178 6.81294 10.2865 8.01383C9.23787 9.128 8.59426 10.6311 8.59426 12.2839C8.59426 12.8502 8.67029 13.3981 8.81186 13.9197C12.9523 13.8458 17.0451 12.8993 20.9658 11.581Z" fill="url(#paint0_linear_7_135)"/>
<path d="M8.59426 12.2839C8.59426 12.8502 8.67028 13.3981 8.81185 13.9197C7.11259 13.9181 5.57552 13.81 4.17548 13.2102C3.96968 11.5967 4.1532 9.85716 4.67228 8.36197L4.76666 8.09657C5.98572 8.22402 7.93753 8.20694 10.2865 8.01379C9.23786 9.12796 8.59426 10.631 8.59426 12.2839Z" fill="url(#paint1_linear_7_135)"/>
<path d="M25.4763 9.77576C24.0934 10.4209 22.5794 11.0318 20.9658 11.581C20.743 9.59707 19.5894 7.89561 17.9535 6.92597C19.8398 6.54494 21.7588 6.07063 23.6084 5.49121C24.5194 6.74334 25.1696 8.1978 25.4763 9.77576Z" fill="url(#paint2_linear_7_135)"/>
</g>
<defs>
<linearGradient id="paint0_linear_7_135" x1="7.60423" y1="1.35837" x2="28.0645" y2="25.0651" gradientUnits="userSpaceOnUse">
<stop stop-color="#FF75E1"/>
<stop offset="1" stop-color="#6865FF"/>
</linearGradient>
<linearGradient id="paint1_linear_7_135" x1="7.35673" y1="11.2353" x2="9.07634" y2="19.7212" gradientUnits="userSpaceOnUse">
<stop stop-opacity="0"/>
<stop offset="1" stop-opacity="0.4"/>
</linearGradient>
<linearGradient id="paint2_linear_7_135" x1="21.8289" y1="8.91512" x2="23.2667" y2="16.0105" gradientUnits="userSpaceOnUse">
<stop stop-opacity="0"/>
<stop offset="1" stop-opacity="0.4"/>
</linearGradient>
<clipPath id="clip0_7_135">
<rect width="31.2733" height="30.1457" fill="white" transform="translate(0.40094 1.04504)"/>
</clipPath>
</defs>
</svg>
