<svg width="33" height="33" viewBox="0 0 33 33" fill="none" xmlns="http://www.w3.org/2000/svg">
<path fill-rule="evenodd" clip-rule="evenodd" d="M26.0462 9.4224C26.3491 9.25414 26.7529 9.3551 26.9548 9.65796C27.1567 9.96082 27.0221 10.3646 26.7192 10.5665L25.0703 11.5424C24.7674 11.7107 24.3636 11.6097 24.1617 11.3069C23.9598 11.004 24.0944 10.6002 24.3973 10.3983L26.0462 9.4224ZM21.335 28.6037C21.4023 29.0748 21.8398 29.3777 22.3109 29.2767C22.782 29.2094 23.0849 28.772 22.9839 28.3008L22.782 27.224L24.5655 25.5078L24.9357 28.0989C25.0367 28.7047 25.5751 29.1421 26.2145 29.0412C26.8202 28.9402 27.2577 28.4018 27.1567 27.7624L26.5846 23.7579C26.5846 23.6906 26.551 23.657 26.551 23.5896L28.1999 22.008C28.6374 21.6042 28.6374 20.8975 28.2335 20.4601C27.8297 20.0226 27.123 20.0226 26.6856 20.4264L24.9357 22.109L21.2004 21.0658C20.5947 20.8975 19.9889 21.234 19.8207 21.8398C19.6524 22.4455 19.9889 23.0512 20.5947 23.2195L23.0512 23.8925L21.2677 25.6087L20.1909 25.3395C19.7534 25.2386 19.2823 25.5078 19.1813 25.9789C19.0804 26.4164 19.3496 26.8875 19.8207 26.9884L21.1667 27.2913L21.335 28.6037ZM10.8021 12.552C10.5329 12.7202 10.1964 12.9558 9.82621 13.225C9.4897 13.4942 9.15319 13.6625 8.81667 13.7634C8.3792 13.898 7.50427 13.898 7.10045 13.7634C6.76394 13.6625 6.42742 13.4942 6.09091 13.225C5.72074 12.9221 5.41788 12.6866 5.11502 12.552C4.87946 12.4174 4.6439 12.3501 4.40834 12.3164C4.37468 12.3164 4.34103 12.3164 4.27373 12.2828V12.3164C4.27373 12.3164 4.27373 12.3164 4.24008 12.3164C4.00452 12.3501 3.76896 12.4174 3.5334 12.552C3.26419 12.7202 2.92767 12.9558 2.55751 13.225C2.22099 13.4942 1.88448 13.6625 1.54796 13.7634C1.48066 13.7971 1.41336 13.7971 1.3124 13.7971C1.3124 13.999 1.41336 14.2009 1.54796 14.3692C1.68257 14.5038 1.91813 14.6047 2.12004 14.6047H13.6288C13.8644 14.6047 14.0663 14.5038 14.2009 14.3692C14.3355 14.2346 14.4365 14.0326 14.4365 13.7971C14.3692 13.7971 14.3355 13.7634 14.3019 13.7634C13.9653 13.6625 13.6288 13.4942 13.2923 13.225C12.9221 12.9221 12.6193 12.6866 12.3164 12.552C11.8116 12.2828 11.3069 12.2828 10.8021 12.552ZM1.3124 12.4847V10.9704C1.41336 10.9704 1.48066 10.9367 1.54796 10.9367C1.88448 10.8358 2.22099 10.6675 2.55751 10.3983C2.92767 10.0954 3.23054 9.85987 3.5334 9.72526C3.76896 9.59066 4.00452 9.52335 4.24008 9.4897C4.24008 9.4897 4.24008 9.4897 4.27373 9.4897V9.45605C4.30738 9.45605 4.34103 9.4897 4.40834 9.4897C4.6439 9.52335 4.87946 9.59066 5.11502 9.72526C5.38423 9.89352 5.72074 10.0954 6.09091 10.3983C6.42742 10.6675 6.76394 10.8358 7.10045 10.9367C7.53792 11.0713 8.41285 11.0713 8.81667 10.9367C9.15319 10.8358 9.4897 10.6675 9.82621 10.3983C10.1964 10.0954 10.4992 9.85987 10.8021 9.72526C11.3069 9.45605 11.8453 9.45605 12.3501 9.72526C12.6193 9.89352 12.9558 10.1291 13.326 10.3983C13.6625 10.6675 13.999 10.8358 14.3355 10.9367C14.3692 10.9367 14.4365 10.9704 14.4701 10.9704V12.451C14.3355 12.3837 14.2009 12.3164 14.0999 12.2155C13.6961 11.879 13.326 11.6097 12.9558 11.4078C11.3742 10.5329 10.331 11.1723 9.05223 12.2155C8.44651 12.7202 7.47061 12.6866 6.86489 12.2155C6.46107 11.879 6.09091 11.6097 5.72074 11.4078C5.31692 11.1723 4.91311 11.0377 4.50929 11.004C4.44199 11.004 4.37468 11.004 4.30738 11.0377V11.004C4.27373 11.004 4.24008 11.004 4.20643 11.004C3.76896 11.0377 3.39879 11.1723 2.99497 11.4078C2.62481 11.6097 2.25465 11.879 1.85083 12.2155C1.64892 12.3501 1.48066 12.4174 1.3124 12.4847ZM1.3124 9.65796C1.48066 9.59066 1.61527 9.52335 1.78352 9.38875C2.18734 9.05223 2.55751 8.78302 2.92767 8.58111C3.33149 8.34555 3.73531 8.21095 4.13912 8.1773C4.17277 8.1773 4.20643 8.1773 4.24008 8.1773V8.21095C4.30738 8.1773 4.37468 8.1773 4.44199 8.1773C4.87946 8.21095 5.24962 8.34555 5.65344 8.58111C6.0236 8.78302 6.39377 9.05223 6.79759 9.38875C7.40331 9.85987 8.34555 9.89352 8.98493 9.38875C10.2637 8.3792 11.3405 7.73983 12.8885 8.58111C13.2587 8.78302 13.6288 9.05223 14.0326 9.38875C14.1336 9.4897 14.2682 9.557 14.4028 9.62431V2.2883C14.4028 2.05274 14.3019 1.85083 14.1672 1.71622C14.0326 1.58162 13.7971 1.48066 13.5952 1.48066H2.15369C1.91813 1.48066 1.71622 1.58162 1.58162 1.71622C1.44701 1.85083 1.34606 2.08639 1.34606 2.2883V9.65796H1.3124ZM18.441 16.3882H29.9498C30.5555 16.3882 31.0939 16.6238 31.4641 17.0276C31.8679 17.4314 32.1035 17.9699 32.1035 18.5419V30.0507C32.1035 30.6564 31.8679 31.1949 31.4641 31.565C31.0603 31.9689 30.5218 32.2044 29.9498 32.2044H18.441C17.8353 32.2044 17.2968 31.9689 16.9267 31.565C16.5228 31.1612 16.2873 30.6228 16.2873 30.0507V18.5419C16.2873 17.9362 16.5228 17.3978 16.9267 17.0276C17.3305 16.6238 17.8689 16.3882 18.441 16.3882ZM29.9498 17.7006C30.1853 17.7006 30.3872 17.8016 30.5218 17.9362C30.6564 18.0708 30.7574 18.3064 30.7574 18.5083V30.0171C30.7574 30.2526 30.6564 30.4545 30.5218 30.5891C30.3872 30.7238 30.1517 30.8247 29.9498 30.8247H18.9121L20.7966 28.9402C20.9312 28.8056 20.9312 28.6037 20.7966 28.4691C20.662 28.3345 20.4601 28.3345 20.3255 28.4691L18.0708 30.7237C18.0035 30.6901 17.9362 30.6228 17.8689 30.5891C17.7343 30.4545 17.667 30.2863 17.6333 30.118L19.7534 27.998C19.888 27.8634 19.888 27.6615 19.7534 27.5269C19.6188 27.3923 19.4169 27.3923 19.2823 27.5269L17.6333 29.1758V18.4746C17.6333 18.2391 17.7343 18.0372 17.8689 17.9026C18.0035 17.768 18.2391 17.667 18.441 17.667H29.9498V17.7006ZM2.15369 16.3882H13.6625C14.2682 16.3882 14.8066 16.6238 15.1768 17.0276C15.5806 17.4314 15.8162 17.9699 15.8162 18.5419V30.0507C15.8162 30.6564 15.5806 31.1949 15.1768 31.565C14.773 31.9689 14.2682 32.2044 13.6625 32.2044H9.59066C6.96584 32.2044 4.57659 31.1276 2.82672 29.3777C1.07684 27.6278 0 25.2386 0 22.6138V18.5419C0 17.9362 0.235558 17.3978 0.639375 17.0276C1.00954 16.6238 1.54796 16.3882 2.15369 16.3882ZM13.6625 17.7006H2.15369C1.91813 17.7006 1.71622 17.8016 1.58162 17.9362C1.44701 18.0708 1.34606 18.3064 1.34606 18.5083V22.5801C1.34606 22.883 1.37971 23.2195 1.41336 23.5223L4.37469 20.561C4.6439 20.2918 5.04771 20.2918 5.31692 20.561L8.98493 24.229L11.5424 21.6715C11.8116 21.4023 12.2155 21.4023 12.4847 21.6715L14.5038 23.6906V18.4746C14.5038 18.2391 14.4028 18.0372 14.2682 17.9026C14.0663 17.8016 13.8644 17.7006 13.6625 17.7006ZM1.71622 25.104C2.12004 26.3827 2.82672 27.5269 3.76896 28.4691C5.28327 29.9834 7.33601 30.892 9.59066 30.892H13.6625H13.6961L8.51381 25.7097L4.8458 22.0417L1.71622 25.104ZM17.6333 7.63887C19.3832 7.97539 20.9312 8.81667 22.1426 9.99447C23.3541 11.2059 24.1954 12.7539 24.5319 14.5038H29.9834C30.219 14.5038 30.4209 14.4028 30.5555 14.2682C30.6901 14.1336 30.7911 13.898 30.7911 13.6961V9.59066C30.7911 7.33601 29.8488 5.24962 28.3682 3.76896C26.8875 2.2883 24.8011 1.34606 22.5465 1.34606H18.4746C18.2391 1.34606 18.0372 1.44701 17.9026 1.58162C17.768 1.71622 17.667 1.95178 17.667 2.15369V7.63887H17.6333ZM23.1858 14.5038H18.4746C18.2391 14.5038 18.0372 14.4028 17.9026 14.2682C17.768 14.1336 17.667 13.898 17.667 13.6961V8.98493C19.0467 9.28779 20.2918 9.99447 21.234 10.9367C22.1763 11.9126 22.8493 13.1241 23.1858 14.5038ZM18.441 0.0336522C17.8353 0.0336522 17.2968 0.269211 16.9267 0.673028C16.5228 1.07685 16.2873 1.61527 16.2873 2.18734V8.21095V13.6961C16.2873 14.3019 16.5228 14.8403 16.9267 15.2104C17.3305 15.6143 17.8689 15.8498 18.441 15.8498H23.9262H29.9161C30.5218 15.8498 31.0603 15.6143 31.4304 15.2104C31.8342 14.8066 32.0698 14.3019 32.0698 13.6961V9.59066C32.0698 6.96584 30.993 4.57659 29.2431 2.82672C27.4932 1.07685 25.104 0 22.4792 0H18.441V0.0336522ZM2.15369 0.168257H13.6625C14.2682 0.168257 14.8066 0.403818 15.1768 0.807635C15.5806 1.21145 15.8162 1.74987 15.8162 2.32195V13.8307C15.8162 14.4365 15.5806 14.9749 15.1768 15.345C14.773 15.7489 14.2682 15.9844 13.6625 15.9844H2.15369C1.54796 15.9844 1.00954 15.7489 0.639375 15.345C0.235558 14.9412 0 14.4028 0 13.8307V2.2883C0 1.68257 0.235558 1.14415 0.639375 0.773984C1.00954 0.403818 1.54796 0.168257 2.15369 0.168257ZM14.4701 29.7815V25.6087L11.9799 23.1185L9.89352 25.2049L14.4701 29.7815ZM29.0075 11.9463C29.344 11.8453 29.7142 12.0472 29.8152 12.4174C29.9161 12.7539 29.7142 13.1241 29.344 13.225L25.9452 14.1336C25.6087 14.2346 25.2386 14.0326 25.1376 13.6625C25.0367 13.326 25.2386 12.9558 25.6087 12.8548L29.0075 11.9463ZM25.2049 6.02361L22.7147 8.51381C22.4455 8.78302 22.4455 9.18684 22.7147 9.45605C22.9839 9.72526 23.3877 9.72526 23.657 9.45605L26.1472 6.96585C26.4164 6.69663 26.4164 6.29282 26.1472 6.02361C25.8779 5.78805 25.4405 5.78805 25.2049 6.02361ZM18.9458 2.82672C19.0467 2.49021 19.4169 2.25465 19.7534 2.3556C20.0899 2.45655 20.3255 2.82672 20.2245 3.16323L19.3159 6.56203C19.215 6.89854 18.8448 7.1341 18.5083 7.03315C18.1718 6.93219 17.9362 6.56203 18.0372 6.22551L18.9458 2.82672ZM21.5706 7.63887C21.4023 7.94174 20.9985 8.07634 20.662 7.87443C20.3591 7.70618 20.2245 7.30236 20.4264 6.96585L21.3687 5.28328C21.5369 4.98041 21.9407 4.8458 22.2772 5.04771C22.5801 5.21597 22.7147 5.61979 22.5128 5.9563L21.5706 7.63887Z" fill="#183413"/>
<path fill-rule="evenodd" clip-rule="evenodd" d="M14.4701 9.62436V2.28835C14.4701 2.05279 14.3692 1.85088 14.2346 1.71627C14.1 1.58167 13.8644 1.48071 13.6625 1.48071H2.1537C1.91814 1.48071 1.71623 1.58167 1.58163 1.71627C1.44702 1.85088 1.34607 2.08644 1.34607 2.28835V9.65801C1.51433 9.59071 1.64893 9.5234 1.81719 9.3888C2.221 9.05228 2.59117 8.78307 2.96134 8.58116C3.36515 8.3456 3.76897 8.211 4.17279 8.17735C4.20644 8.17735 4.24009 8.17735 4.27374 8.17735V8.211C4.34104 8.17735 4.40835 8.17735 4.47565 8.17735C4.91312 8.211 5.28328 8.3456 5.6871 8.58116C6.05727 8.78307 6.42743 9.05228 6.83125 9.3888C7.43698 9.85992 8.37922 9.89357 9.01859 9.3888C10.2973 8.37925 11.3742 7.73988 12.9222 8.58116C13.2923 8.78307 13.6625 9.05228 14.0663 9.3888C14.2009 9.48975 14.3355 9.55705 14.4701 9.62436Z" fill="#D0E5E3"/>
<path fill-rule="evenodd" clip-rule="evenodd" d="M21.3686 5.31682C21.5369 5.01395 21.9407 4.87935 22.2772 5.08125C22.5801 5.24951 22.7147 5.65333 22.5128 5.98984L21.5705 7.67242C21.4023 7.97528 20.9984 8.10988 20.6619 7.90797C20.3591 7.73972 20.2245 7.3359 20.4264 6.99939L21.3686 5.31682ZM20.1908 3.16312C20.2918 2.82661 20.0899 2.45644 19.7197 2.35549C19.3832 2.25454 19.013 2.45644 18.9121 2.82661L18.0035 6.2254C17.9025 6.56192 18.1044 6.93208 18.4746 7.03304C18.8111 7.13399 19.1813 6.93208 19.2822 6.56192L20.1908 3.16312ZM17.6333 2.18723V7.63876C19.3832 7.97528 20.9311 8.81656 22.1426 9.99436C23.354 11.2058 24.1953 12.7538 24.5318 14.5037H29.9834C30.2189 14.5037 30.4208 14.4027 30.5554 14.2681C30.6901 14.1335 30.791 13.8979 30.791 13.696V9.59055C30.791 7.3359 29.8488 5.24951 28.3681 3.76885C26.8874 2.28819 24.8011 1.34595 22.5464 1.34595H18.4746C18.239 1.34595 18.0371 1.4469 17.9025 1.58151C17.7343 1.74976 17.6333 1.95167 17.6333 2.18723ZM25.2049 6.0235L22.7147 8.5137C22.4455 8.78291 22.4455 9.18673 22.7147 9.45594C22.9839 9.72515 23.3877 9.72515 23.6569 9.45594L26.1471 6.96574C26.4163 6.69652 26.4163 6.29271 26.1471 6.0235C25.8779 5.78794 25.4404 5.78794 25.2049 6.0235ZM26.0462 9.42229C26.349 9.25403 26.7528 9.35499 26.9547 9.65785C27.1567 9.96071 27.022 10.3645 26.7192 10.5664L25.0703 11.5423C24.7674 11.7106 24.3636 11.6096 24.1617 11.3068C23.9598 11.0039 24.0944 10.6001 24.3972 10.3982L26.0462 9.42229ZM29.0075 11.9461C29.344 11.8452 29.7142 12.0471 29.8151 12.4173C29.9161 12.7538 29.7142 13.1239 29.344 13.2249L25.9452 14.1335C25.6087 14.2344 25.2385 14.0325 25.1376 13.6624C25.0366 13.3259 25.2385 12.9557 25.6087 12.8547L29.0075 11.9461Z" fill="#D0E5E3"/>
<path fill-rule="evenodd" clip-rule="evenodd" d="M29.9497 17.7007H18.4409C18.2054 17.7007 18.0035 17.8016 17.8689 17.9362C17.7343 18.0709 17.6333 18.3064 17.6333 18.5083V29.2095L19.2822 27.5606C19.4168 27.4259 19.6187 27.4259 19.7533 27.5606C19.8879 27.6952 19.8879 27.8971 19.7533 28.0317L17.6333 30.1517C17.667 30.32 17.7343 30.4882 17.8689 30.6228C17.9362 30.6901 18.0035 30.7238 18.0708 30.7574L20.3254 28.5028C20.46 28.3682 20.6619 28.3682 20.7965 28.5028C20.9311 28.6374 20.9311 28.8393 20.7965 28.9739L18.9121 30.8584H29.9497C30.1853 30.8584 30.3872 30.7574 30.5218 30.6228C30.6564 30.4882 30.7574 30.2527 30.7574 30.0508V18.542C30.7574 18.3064 30.6564 18.1045 30.5218 17.9699C30.3872 17.8016 30.1853 17.7007 29.9497 17.7007ZM21.2004 21.0995L24.9357 22.1427L26.6855 20.4601C27.123 20.0563 27.8297 20.0563 28.2335 20.4938C28.6373 20.9312 28.6373 21.6379 28.1999 22.0417L26.5509 23.6233C26.5509 23.657 26.5846 23.7243 26.5846 23.7916L27.1567 27.7961C27.2576 28.4018 26.8201 28.9739 26.2144 29.0749C25.6087 29.1758 25.0366 28.7383 24.9357 28.1326L24.5655 25.5415L22.782 27.224L22.9839 28.3345C23.0512 28.8057 22.7483 29.2095 22.3109 29.3104C21.8397 29.3777 21.4359 29.0749 21.335 28.6374L21.0994 27.3586L19.7533 27.0558C19.3159 26.9548 19.013 26.4837 19.114 26.0462C19.2149 25.6088 19.686 25.3059 20.1235 25.4069L21.2004 25.6761L22.9839 23.9598L20.5273 23.2868C19.9216 23.1186 19.5851 22.5128 19.7533 21.9071C19.9889 21.2677 20.5946 20.9312 21.2004 21.0995Z" fill="#D0E5E3"/>
<path fill-rule="evenodd" clip-rule="evenodd" d="M14.4701 23.7579V18.5419C14.4701 18.3063 14.3692 18.1044 14.2346 17.9698C14.1 17.8352 13.8644 17.7343 13.6625 17.7343H2.1537C1.91814 17.7343 1.71623 17.8352 1.58163 17.9698C1.44702 18.1044 1.34607 18.34 1.34607 18.5419V22.6137C1.34607 22.9166 1.37972 23.2531 1.41337 23.5559L4.3747 20.5946C4.64391 20.3254 5.04772 20.3254 5.31694 20.5946L8.98494 24.2626L11.5424 21.7051C11.8117 21.4359 12.2155 21.4359 12.4847 21.7051L14.4701 23.7579Z" fill="#D0E5E3"/>
<path fill-rule="evenodd" clip-rule="evenodd" d="M9.01864 12.2492C10.2974 11.2396 11.3742 10.6002 12.9222 11.4415C13.2924 11.6434 13.6625 11.9126 14.0663 12.2492C14.1673 12.3501 14.3019 12.4174 14.4365 12.4847V11.0041C14.3692 11.0041 14.3356 10.9704 14.3019 10.9704C13.9654 10.8695 13.6289 10.7012 13.2924 10.432C12.9222 10.1291 12.6193 9.89356 12.3165 9.75896C11.8117 9.48974 11.2733 9.48974 10.7685 9.75896C10.4993 9.92721 10.1628 10.1628 9.79262 10.432C9.4561 10.7012 9.11959 10.8695 8.78308 10.9704C8.34561 11.105 7.47067 11.105 7.06685 10.9704C6.73034 10.8695 6.39383 10.7012 6.05731 10.432C5.68715 10.1291 5.38428 9.89356 5.08142 9.75896C4.84586 9.62435 4.6103 9.55705 4.37474 9.5234C4.34109 9.5234 4.30744 9.5234 4.24013 9.48975V9.5234C4.24013 9.5234 4.24014 9.5234 4.20648 9.5234C3.97092 9.55705 3.73536 9.62435 3.4998 9.75896C3.23059 9.92721 2.89408 10.1628 2.52391 10.432C2.1874 10.7012 1.85088 10.8695 1.51437 10.9704C1.44707 11.0041 1.37976 11.0041 1.27881 11.0041V12.5184C1.44707 12.4511 1.58167 12.3838 1.74993 12.2492C2.15375 11.9126 2.52391 11.6434 2.89408 11.4415C3.29789 11.206 3.70171 11.0714 4.10553 11.0377C4.13918 11.0377 4.17283 11.0377 4.20648 11.0377V11.0714C4.27379 11.0377 4.34109 11.0377 4.40839 11.0377C4.84586 11.0714 5.21603 11.206 5.61984 11.4415C5.99001 11.6434 6.36017 11.9126 6.76399 12.2492C7.47067 12.7203 8.41291 12.7203 9.01864 12.2492Z" fill="#6BB3B1"/>
<path fill-rule="evenodd" clip-rule="evenodd" d="M12.3501 12.5519C11.8453 12.2827 11.3069 12.2827 10.8021 12.5519C10.5329 12.7202 10.1964 12.9557 9.82625 13.225C9.48974 13.4942 9.15322 13.6624 8.81671 13.7634C8.37924 13.898 7.5043 13.898 7.10049 13.7634C6.76397 13.6624 6.42746 13.4942 6.09094 13.225C5.72078 12.9221 5.41791 12.6865 5.11505 12.5519C4.87949 12.4173 4.64393 12.35 4.40837 12.3164C4.37472 12.3164 4.34107 12.3164 4.27377 12.2827V12.3164C4.27377 12.3164 4.27377 12.3164 4.24011 12.3164C4.00455 12.35 3.76899 12.4173 3.53343 12.5519C3.26422 12.7202 2.92771 12.9557 2.55754 13.225C2.22103 13.4942 1.88451 13.6624 1.548 13.7634C1.4807 13.797 1.41339 13.797 1.31244 13.797C1.31244 13.9989 1.41339 14.2008 1.548 14.3691C1.68261 14.5037 1.91817 14.6047 2.12007 14.6047H13.6289C13.8644 14.6047 14.0663 14.5037 14.2009 14.3691C14.3355 14.2345 14.4365 14.0326 14.4365 13.797C14.3692 13.797 14.3355 13.7634 14.3019 13.7634C13.9654 13.6624 13.6289 13.4942 13.2923 13.225C12.9222 12.9557 12.6193 12.7202 12.3501 12.5519Z" fill="#6BB3B1"/>
<path fill-rule="evenodd" clip-rule="evenodd" d="M17.6333 8.98499V13.6962C17.6333 13.9317 17.7343 14.1337 17.8689 14.2683C18.0035 14.4029 18.239 14.5038 18.4409 14.5038H23.1521C22.8493 13.1241 22.1426 11.9127 21.2004 10.9368C20.2581 9.96087 19.013 9.28785 17.6333 8.98499Z" fill="#F4DD58"/>
<path fill-rule="evenodd" clip-rule="evenodd" d="M14.4701 25.6087L11.9799 23.1185L9.89349 25.2049L14.4701 29.7815V25.6087Z" fill="#6D774C"/>
<path fill-rule="evenodd" clip-rule="evenodd" d="M13.6961 30.8584L8.51381 25.6761L4.84581 22.0081L1.74988 25.104C2.1537 26.3827 2.86037 27.5269 3.80261 28.4691C5.31693 29.9834 7.36967 30.892 9.62431 30.892H13.6961C13.6625 30.8584 13.6625 30.8584 13.6961 30.8584Z" fill="#919F60"/>
</svg>
