<svg width="32" height="32" viewBox="0 0 32 32" fill="none" xmlns="http://www.w3.org/2000/svg">
<rect width="32" height="32" fill="white"/>
<path d="M3.65953 14.5357L3.62396 11.2002L6.59036 11.2358L6.57257 11.7116C6.56034 11.9674 6.50586 12.9925 6.40802 14.7892C6.34798 16.1624 6.27571 17.7112 6.1901 19.4367C6.14229 20.5397 6.10671 21.1779 6.08336 21.3491L6.04333 21.6382L4.00643 21.7316C2.71669 21.7916 1.87169 21.8205 1.47142 21.8205H1V19.3078L1.43584 19.3611C1.64265 19.3611 2.1174 19.3867 2.85901 19.4367L3.78406 19.4901L3.74848 18.8497C3.72402 18.4139 3.69511 16.9762 3.65953 14.5357Z" fill="#63C7C9"/>
<path d="M9.10503 11.2935C9.12838 11.2824 9.1584 11.2757 9.19397 11.2757C9.95892 11.1156 10.3814 11.03 10.4615 11.0178C10.5415 11.0067 10.5927 11 10.6171 11C10.7027 11 10.7572 11.0378 10.7817 11.1112C10.805 11.1823 10.8895 11.7405 11.0352 12.7834C11.2186 14.0854 11.3465 14.966 11.4177 15.4251C11.5511 16.2524 11.6356 16.7994 11.6712 17.0662C11.7445 17.6244 11.8001 17.9023 11.8357 17.9023C11.8357 17.9023 11.8413 17.9023 11.8535 17.9023C11.868 17.9023 11.8813 17.8912 11.8935 17.8668C11.9402 17.7845 12.0314 17.4265 12.1648 16.7949C12.455 15.4463 12.7586 14.1699 13.0765 12.9657L13.1299 12.7122L14.5887 12.6767C15.0745 12.6655 15.4448 12.6589 15.7005 12.6589C15.9551 12.6589 16.0885 12.6655 16.1008 12.6767C16.1241 12.7011 16.2031 12.9924 16.3365 13.5528C16.5055 14.3778 16.6711 15.1483 16.8346 15.8654C17.0002 16.5804 17.1326 17.1396 17.2304 17.5421C17.3282 17.9424 17.3827 18.1425 17.3949 18.1425C17.4539 18.0925 17.5995 17.2786 17.8308 15.7009C18.3044 12.5788 18.5424 11.0122 18.5424 11C18.5424 11 18.5479 11 18.5602 11C18.6313 11 19.145 11.0867 20.1034 11.2579C21.064 11.4269 21.5633 11.5292 21.6022 11.5648C21.6022 11.5648 21.6022 11.577 21.6022 11.6004C21.6022 11.6982 21.5321 12.0218 21.3931 12.5699C21.2531 13.1158 20.855 14.6457 20.1968 17.1596C19.5052 19.7691 19.1116 21.2623 19.0138 21.6381C19.0016 21.7249 18.9315 21.7738 18.8048 21.7849C18.6769 21.7971 18.2422 21.8027 17.5017 21.8027H16.0252L15.8428 21.0555C15.6616 20.3773 15.5415 19.9281 15.4826 19.708C15.298 19.1009 15.1335 18.4749 14.9889 17.8312C14.7688 17.0195 14.6476 16.5937 14.6242 16.5548C14.5887 16.5548 14.4608 16.9439 14.2418 17.72C14.1817 17.9157 14.1094 18.1469 14.0238 18.4138C13.9727 18.6095 13.9049 18.853 13.8193 19.1432C13.7359 19.4345 13.648 19.7436 13.5569 20.0727C13.4679 20.3995 13.4101 20.6175 13.3834 20.7264L13.0588 21.8027H10.1413L10.0167 21.2201C9.87109 20.5774 9.60313 19.4233 9.21176 17.76C8.82262 16.0967 8.52687 14.8948 8.32229 14.1532C7.90979 12.5966 7.7041 11.7516 7.7041 11.6182C7.7041 11.6071 7.7041 11.6004 7.7041 11.6004C7.71522 11.5893 8.1822 11.487 9.10503 11.2935Z" fill="#63C7C9"/>
<path d="M25.0983 21.8026L25.1339 21.5091C25.1573 21.2812 25.1806 20.5474 25.2051 19.3076C25.2318 17.9946 25.2807 16.7615 25.3518 15.6074C25.4252 14.4667 25.463 13.8841 25.463 13.8596C25.463 13.8007 24.9271 13.7707 23.8575 13.7707H22.2565V11.1289L23.4039 11.1645C25.4786 11.2245 27.4165 11.2612 29.2166 11.2757L31 11.2935V13.695H27.9936L28.0292 14.2243C28.0559 14.5156 28.0959 15.4473 28.1493 17.0217C28.2026 18.5938 28.236 19.8102 28.2515 20.673L28.2693 21.8026H25.0983Z" fill="#63C7C9"/>
</svg>
