<?xml version="1.0" encoding="UTF-8"?>
<!DOCTYPE svg PUBLIC "-//W3C//DTD SVG 1.1//EN" "http://www.w3.org/Graphics/SVG/1.1/DTD/svg11.dtd">
<!-- Creator: CorelDRAW -->
<svg xmlns="http://www.w3.org/2000/svg" xml:space="preserve" width="1.70666in" height="1.70666in" version="1.1" style="shape-rendering:geometricPrecision; text-rendering:geometricPrecision; image-rendering:optimizeQuality; fill-rule:evenodd; clip-rule:evenodd"
viewBox="0 0 1706.66 1706.66"
 xmlns:xlink="http://www.w3.org/1999/xlink"
 xmlns:xodm="http://www.corel.com/coreldraw/odm/2003">
 <defs>
  <style type="text/css">
   <![CDATA[
    .fil4 {fill:#204067}
    .fil0 {fill:#4A5254}
    .fil3 {fill:#D6E3FF}
    .fil2 {fill:#FF9621}
    .fil1 {fill:#FFB800}
    .fil5 {fill:white}
   ]]>
  </style>
 </defs>
 <g id="Layer_x0020_1">
  <metadata id="CorelCorpID_0Corel-Layer"/>
  <path class="fil0" d="M1103.9 552.57c-10.26,0 -18.72,-7.74 -19.87,-17.69l-26.92 0c-1.15,9.97 -9.62,17.69 -19.88,17.69 -11.04,0 -20,-8.96 -20,-20l0 -213.74c0,-90.37 -73.53,-163.91 -163.91,-163.91 -90.37,0 -163.91,73.53 -163.91,163.91l0 213.74c0,26.33 -40,26.33 -40,0l0 -0.94 -26.67 0 0 0.94c0,26.33 -40,26.33 -40,0l0 -213.74c0,-149.19 121.37,-270.56 270.56,-270.56 149.19,0 270.58,121.37 270.58,270.56l0 213.74c0.02,11.06 -8.94,20 -19.98,20z"/>
  <path class="fil1" d="M1113.57 1122.84l-520.5 0c-42.22,0 -76.56,-34.36 -76.56,-76.57l0 -457.13c0,-42.22 34.34,-76.56 76.56,-76.56l520.5 -0.01c42.22,0 76.58,34.35 76.58,76.57l0 457.15c-0.01,42.21 -34.37,76.56 -76.59,76.56z"/>
  <path class="fil2" d="M593.07 552.57c-20.17,0 -36.57,16.41 -36.57,36.57l0 457.15c0,20.15 16.41,36.56 36.57,36.56l520.5 0c20.17,0 36.57,-16.4 36.57,-36.56l0.01 -457.14c0,-20.17 -16.41,-36.57 -36.57,-36.57l-520.51 -0z"/>
  <path class="fil3" d="M853.32 850.61c-104.41,0 -104.41,-158.66 0,-158.66 104.43,0 104.43,158.66 0,158.66z"/>
  <path class="fil3" d="M853.32 943.48c-11.04,0 -20,-8.97 -20,-20l0 -92.88c0,-26.33 40,-26.33 40,0l0 92.88c0,11.04 -8.96,20 -20,20z"/>
  <path class="fil4" d="M1627.87 1658.4l-1549.09 0c-43.43,0 -78.76,-35.35 -78.76,-78.78l0 -418.01c0,-43.44 35.33,-78.79 78.76,-78.79l1549.09 0.01c43.43,0 78.78,35.35 78.78,78.79l0 418.01c-0.01,43.43 -35.34,78.77 -78.78,78.77z"/>
  <path class="fil5" d="M452.6 1477.52c-5.12,0 -10.24,-1.96 -14.14,-5.87l-52.75 -52.75 0 74.61c0,11.04 -8.96,20 -20,20 -11.04,0 -20,-8.97 -20,-20l0 -74.62 -52.78 52.78c-3.89,3.9 -9.01,5.84 -14.14,5.84 -17.63,0 -26.79,-21.52 -14.14,-34.16l72.76 -72.75 -72.76 -72.76c-18.63,-18.63 9.67,-46.92 28.28,-28.29l52.78 52.78 0 -74.6c0,-26.33 40,-26.32 40,0l0 74.59 52.75 -52.74c18.63,-18.65 46.89,9.7 28.28,28.3l-72.74 72.74 72.74 72.74c12.63,12.63 3.53,34.16 -14.14,34.16zm888.32 36c-11.04,0 -20,-8.97 -20,-20l0 -74.61 -52.74 52.74c-3.91,3.92 -9.04,5.87 -14.14,5.87 -17.64,0 -26.81,-21.51 -14.15,-34.16l72.75 -72.75 -72.76 -72.76c-18.65,-18.64 9.69,-46.91 28.29,-28.29l52.76 52.76 0 -74.59c0,-26.33 40,-26.32 40,0l0 74.59 52.76 -52.77c18.65,-18.65 46.91,9.7 28.3,28.29l-72.76 72.76 72.75 72.75c12.64,12.64 3.52,34.16 -14.14,34.16 -5.11,0 -10.24,-1.96 -14.15,-5.87l-52.75 -52.75 0 74.62c0.02,11.04 -8.96,20 -20,20zm-325.06 0c-11.04,0 -20,-8.97 -20,-20l0 -74.63 -52.77 52.77c-3.89,3.92 -9.04,5.87 -14.14,5.87 -17.64,0 -26.81,-21.51 -14.15,-34.16l72.76 -72.76 -72.76 -72.76c-18.65,-18.64 9.7,-46.91 28.3,-28.29l52.78 52.77 0 -74.6c0,-26.33 40,-26.32 40,0l0 74.58 52.76 -52.75c18.65,-18.65 46.91,9.7 28.3,28.29l-72.76 72.76 72.76 72.75c12.65,12.65 3.51,34.16 -14.14,34.16 -5.11,0 -10.23,-1.96 -14.15,-5.87l-52.75 -52.75 0 74.61c0.02,11.04 -8.95,20 -20,20zm-325.08 0c-11.04,0 -20,-8.97 -20,-20l0 -74.62 -52.75 52.75c-3.92,3.92 -9.03,5.87 -14.14,5.87 -17.63,0 -26.79,-21.52 -14.13,-34.16l72.75 -72.75 -72.76 -72.76c-18.64,-18.64 9.68,-46.91 28.28,-28.29l52.76 52.76 0 -74.59c0,-26.33 40,-26.32 40,0l0 74.6 52.78 -52.78c18.65,-18.65 46.89,9.7 28.28,28.29l-72.76 72.76 72.75 72.75c12.65,12.65 3.51,34.16 -14.14,34.16 -5.12,0 -10.24,-1.96 -14.13,-5.87l-52.77 -52.77 0 74.64c0,11.04 -8.94,20 -20,20z"/>
 </g>
</svg>
